<svg width="25" height="25" viewBox="0 0 25 25" fill="none" xmlns="http://www.w3.org/2000/svg">
<path d="M17.0928 4.36475C15.1568 4.36475 13.4618 5.19725 12.4053 6.60443C11.3487 5.19725 9.65371 4.36475 7.71777 4.36475C6.17674 4.36648 4.69931 4.97943 3.60963 6.06911C2.51995 7.15879 1.90701 8.63621 1.90527 10.1772C1.90527 16.7397 11.6356 22.0516 12.05 22.271C12.1592 22.3297 12.2813 22.3605 12.4053 22.3605C12.5293 22.3605 12.6514 22.3297 12.7606 22.271C13.175 22.0516 22.9053 16.7397 22.9053 10.1772C22.9035 8.63621 22.2906 7.15879 21.2009 6.06911C20.1112 4.97943 18.6338 4.36648 17.0928 4.36475ZM12.4053 20.7522C10.6934 19.7547 3.40527 15.2107 3.40527 10.1772C3.40676 9.03396 3.86159 7.93792 4.67002 7.12949C5.47845 6.32106 6.57448 5.86623 7.71777 5.86475C9.54121 5.86475 11.0721 6.836 11.7115 8.396C11.768 8.53355 11.8642 8.65121 11.9877 8.73401C12.1112 8.81681 12.2566 8.86102 12.4053 8.86102C12.554 8.86102 12.6993 8.81681 12.8229 8.73401C12.9464 8.65121 13.0425 8.53355 13.099 8.396C13.7384 6.83318 15.2693 5.86475 17.0928 5.86475C18.2361 5.86623 19.3321 6.32106 20.1405 7.12949C20.949 7.93792 21.4038 9.03396 21.4053 10.1772C21.4053 15.2032 14.1153 19.7538 12.4053 20.7522Z" fill="black"/>
</svg>
