<svg width="102" height="102" viewBox="0 0 102 102" fill="none" xmlns="http://www.w3.org/2000/svg">
<path d="M13.9521 85.6658C16.7622 88.9435 19.9974 91.7691 23.6577 94.1427" stroke="#FDDDD3" stroke-width="2"/>
<path d="M23.6572 94.1426C28.3142 97.3869 33.472 99.6698 39.1306 100.991C39.18 101.003 39.2314 101.003 39.2808 100.992C39.3303 100.981 39.3766 100.959 39.4164 100.927C39.4562 100.896 39.4883 100.856 39.5106 100.811C39.5328 100.766 39.5446 100.716 39.5449 100.666L39.5593 94.2535" stroke="#9E919B" stroke-width="2"/>
<path d="M39.5596 94.2535L39.6424 91.8382C39.6445 91.7627 39.6565 91.6928 39.6771 91.6373C39.6976 91.5819 39.7257 91.5434 39.7577 91.5268L40.0099 91.3909" stroke="#FCF9F7" stroke-width="2"/>
<path d="M40.0098 91.391C41.6814 93.4617 43.6953 94.9395 46.0514 95.8245C48.1866 96.6237 50.5499 96.8658 53.1414 96.5509C56.7801 96.1072 60.0909 94.6628 63.0739 92.2176C63.8929 91.5473 64.5138 90.7911 64.9365 89.949" stroke="#FEDCD3" stroke-width="2"/>
<path d="M64.9364 89.949L64.8535 100.344C64.8538 100.382 64.8629 100.42 64.8801 100.454C64.8972 100.488 64.9219 100.517 64.9523 100.54C64.9827 100.563 65.0178 100.579 65.0551 100.585C65.0923 100.592 65.1306 100.591 65.1669 100.58C69.5141 99.3563 73.5179 97.5934 77.1782 95.2914" stroke="#9E919B" stroke-width="2"/>
<path d="M77.1777 95.2913C82.1782 92.2379 86.4317 88.3519 89.9383 83.6333" stroke="#FDDBD2" stroke-width="2"/>
<path d="M89.9385 83.6332C90.4356 82.9987 90.9796 82.2651 91.5705 81.4326C91.986 80.8457 92.0736 80.1504 91.8335 79.3464" stroke="#E5AB99" stroke-width="2"/>
<path d="M91.834 79.3465C92.5497 79.5373 93.0204 79.3226 93.2462 78.7024" stroke="#FCF7F4" stroke-width="2"/>
<path d="M93.2461 78.7023C94.1179 77.9103 94.5154 77.048 94.4386 76.1152" stroke="#F7B89C" stroke-width="2"/>
<path d="M94.4386 76.1153C94.9093 75.965 95.1879 75.8016 95.2744 75.625C102.636 60.6607 102.899 45.552 96.0634 30.299C93.3974 24.3471 89.6975 19.118 84.9636 14.6118C78.9064 8.84836 71.8932 4.87647 63.9242 2.69611C61.6353 2.0711 59.2791 1.62024 56.8558 1.34352C50.873 0.658875 45.0955 0.997618 39.5234 2.35975C30.5793 4.54489 22.8036 8.88295 16.1963 15.374C14.5199 17.02 12.9467 18.8187 11.4768 20.77C2.66477 32.4519 -0.588435 45.7046 1.71726 60.5283C2.96858 68.577 6.15812 75.9948 11.2859 82.7816C11.7158 83.3493 12.6045 84.3107 13.9519 85.6657" stroke="#FEF3F0" stroke-width="2"/>
<path d="M94.4383 76.1151C94.3206 72.6275 92.9143 69.8245 90.2196 67.7062C89.672 67.2744 89.1316 66.8319 88.5984 66.3786C87.3999 65.36 86.6674 64.1136 86.4008 62.6393C86.3167 62.1694 86.3071 61.4155 86.3719 60.3778C86.4176 59.624 86.45 58.869 86.4692 58.1128C86.5533 54.5393 84.9549 52.1013 81.6741 50.7988C79.9833 50.1261 78.3825 49.2971 76.8718 48.3119C76.0095 47.7513 75.4079 47.2169 75.0668 46.7088C74.6033 46.0194 74.3403 45.2298 74.2779 44.34C74.2322 43.6935 74.213 42.7679 74.2202 41.5632C74.225 40.7665 74.3175 40.058 74.4976 39.4377" stroke="#F7AD8D" stroke-width="2"/>
<path d="M74.4977 39.4379C76.3783 37.9661 77.674 36.1734 78.385 34.0598C78.8773 32.5975 78.9554 31.0851 78.6192 29.5225C77.9202 26.2711 76 23.8128 72.8585 22.1477C71.6168 21.4893 70.9936 20.4468 70.9887 19.0203C70.9791 16.4535 69.9992 14.3518 68.049 12.7154C65.8153 10.838 63.3067 9.63684 60.523 9.11203C58.5272 8.7375 56.7967 8.76612 55.3316 9.1979C53.6168 9.70363 52.1217 10.7223 50.8463 12.2538C50.8247 12.28 50.7975 12.3011 50.7667 12.3156C50.7358 12.3301 50.7021 12.3376 50.668 12.3376C50.6339 12.3376 50.6002 12.3301 50.5694 12.3156C50.5385 12.3011 50.5113 12.28 50.4897 12.2538C49.7211 11.3377 48.8577 10.69 47.8994 10.3108C45.476 9.34939 42.9914 9.18121 40.4455 9.80621C38.159 10.3668 36.3337 11.4331 34.9695 13.0052C34.3786 13.6827 33.8839 14.5462 33.4852 15.5959C33.1297 16.5358 32.8451 17.4995 32.6314 18.4871C32.1102 20.9251 30.9117 22.9612 29.0359 24.5952C27.47 25.9621 26.5369 26.8245 26.2367 27.1823C24.1519 29.6728 24.182 32.2229 26.3267 34.8327C26.9968 35.6462 28.1833 36.5097 29.8861 37.4234" stroke="#FDBC96" stroke-width="2"/>
<path d="M29.8867 37.4233L31.1332 39.5703" stroke="#928082" stroke-width="2"/>
<path d="M31.133 39.5703C27.8041 41.4191 25.938 44.2316 25.5345 48.0079C25.3687 49.5704 25.2054 50.6427 25.0445 51.2248C24.7563 52.2672 24.2111 53.1571 23.4089 53.8942C22.4722 54.753 21.5379 55.6129 20.606 56.4741C18.7087 58.2322 17.8752 60.4162 18.1058 63.0259C18.1875 63.9563 18.2812 64.8867 18.3868 65.817C18.5814 67.5465 18.0013 68.9373 16.6467 69.9893C15.5587 70.8337 14.7794 71.9526 14.3086 73.3457C14.0036 74.257 13.8451 75.5678 13.8331 77.2782C13.8187 79.8355 13.9532 82.388 14.2366 84.9358" stroke="#F7AD8D" stroke-width="2"/>
<path d="M14.2367 84.9358L13.9521 85.6658" stroke="#FCD2C5" stroke-width="2"/>
<path d="M74.4983 39.4378C74.8898 38.758 74.682 38.3632 73.875 38.2534" stroke="#F78142" stroke-width="2"/>
<path d="M73.8748 38.2535C74.1317 36.5312 73.5806 35.1941 72.2212 34.2423C71.2773 33.5815 70.2517 33.0924 69.1445 32.7752C69.0988 32.7621 69.0569 32.7345 69.0233 32.6954C68.9896 32.6564 68.9655 32.6072 68.9536 32.5533C68.9367 32.4674 68.9067 32.3911 68.8635 32.3243C68.8034 32.2289 68.6906 32.1657 68.5248 32.1346C66.9325 31.8365 65.6487 31.5204 64.6736 31.1864C63.2902 30.7117 62.0965 29.8398 61.0926 28.5707C60.5234 27.8479 59.505 26.1995 58.0375 23.6255C57.1777 22.1178 56.2902 21.067 55.3752 20.473C54.573 19.953 53.7996 19.7371 53.0551 19.8254C51.4723 20.0114 50.1273 20.7939 49.0201 22.1727C48.1771 23.2247 47.4493 24.3459 46.8369 25.5363C45.9122 27.3326 45.3454 28.3596 45.1365 28.6172C44.2262 29.7551 43.0577 30.6127 41.6311 31.19C38.845 32.3183 35.9797 33.2081 33.0352 33.8594" stroke="#FDA579" stroke-width="2"/>
<path d="M33.0349 33.8594C31.9853 34.4295 31.0534 35.113 30.2392 35.9097C30.1911 35.9574 30.1551 36.0118 30.1359 36.066C30.1166 36.1201 30.115 36.1716 30.1311 36.2139C30.1576 36.2807 30.2032 36.3391 30.268 36.3892" stroke="#F8AC83" stroke-width="2"/>
<path d="M30.2686 36.3892L29.8867 37.4233" stroke="#925436" stroke-width="2"/>
<path d="M93.246 78.7023C93.4021 75.6703 92.6636 72.9615 91.0304 70.576C90.6437 70.0082 89.964 69.3117 88.9913 68.4863C88.1651 67.7849 87.3857 67.0359 86.6532 66.2391C85.9903 65.5187 85.5424 64.8639 85.3094 64.2746C85.0092 63.5184 84.8771 62.7169 84.9131 61.87C84.978 60.3791 85.0092 58.8881 85.0068 57.3972C85.0044 55.7798 84.5685 54.5203 83.699 53.6185C82.9088 52.7979 81.6827 52.0417 80.0207 51.3499C78.5941 50.7559 77.344 50.1249 76.2704 49.457C73.9214 47.9994 72.7902 45.8382 72.8767 42.9731" stroke="#F5B191" stroke-width="2"/>
<path d="M72.1489 42.8301C71.8703 42.9446 71.6554 43.1187 71.504 43.3525C71.2807 43.7008 71.1294 43.9131 71.0501 43.9894C70.7763 44.2518 70.5025 44.5131 70.2287 44.7731C70.1844 44.8149 70.1506 44.8646 70.1305 44.9177C70.1104 44.9708 70.1045 45.0256 70.1134 45.0772L70.2467 45.8537" stroke="#8F868A" stroke-width="2"/>
<path d="M70.2462 45.8536C69.9748 45.9013 69.8055 45.8059 69.7382 45.5674C69.6061 45.0855 69.3588 45.0282 68.9961 45.3956" stroke="#75362A" stroke-width="2"/>
<path d="M68.9963 45.3958L67.6309 46.0363" stroke="#936964" stroke-width="2"/>
<path d="M67.6315 46.0364C65.0977 47.0622 62.4929 47.3341 59.8174 46.8522" stroke="#91504D" stroke-width="2"/>
<path d="M59.8175 46.852C58.5902 46.1316 57.6379 45.1941 56.9606 44.0395C55.9519 42.3147 55.2926 40.4671 54.9827 38.4967C54.9299 38.1627 54.8566 37.9051 54.763 37.7238C54.4219 37.0726 54.0677 37.1596 53.7002 37.985" stroke="#926965" stroke-width="2"/>
<path d="M53.6996 37.9851L53.415 39.4021" stroke="#8F4B47" stroke-width="2"/>
<path d="M53.4157 39.4021C52.7888 41.7685 51.5639 43.541 49.741 44.7194C48.1775 45.7309 46.2188 46.2354 43.8651 46.233C41.4729 46.2306 39.1624 45.6832 36.9336 44.5906" stroke="#936964" stroke-width="2"/>
<path d="M36.9331 44.5907L34.0654 42.8159" stroke="#8E5857" stroke-width="2"/>
<path d="M34.065 42.8159L32.1592 41.0125" stroke="#8F868A" stroke-width="2"/>
<path d="M32.1591 41.0123C32.0654 40.8906 31.9453 40.8011 31.7988 40.7439" stroke="#6B2C2C" stroke-width="2"/>
<path d="M31.7995 40.744C31.8691 40.4578 31.7791 40.2788 31.5293 40.2073" stroke="#918689" stroke-width="2"/>
<path d="M31.5291 40.2072L31.1328 39.5703" stroke="#8C452E" stroke-width="2"/>
<path d="M30.2686 36.3891C30.9122 35.5184 31.7156 34.91 32.6787 34.5641C33.3176 34.3328 33.9997 34.4234 34.725 34.8361" stroke="#8D706F" stroke-width="2"/>
<path d="M35.1172 35.3909C35.2853 35.7201 35.3622 36.0708 35.3477 36.4429C35.3453 36.5455 35.3646 36.5515 35.4054 36.4608C35.917 35.385 36.7876 34.6538 38.0173 34.2673" stroke="#90777C" stroke-width="2"/>
<path d="M31.5294 40.2073C30.0499 41.3714 29.1721 42.1145 28.8959 42.4365C27.45 44.1088 26.6286 46.053 26.4317 48.2691C26.2539 50.3016 26.0846 51.5182 25.9237 51.919C25.4241 53.1666 24.6712 54.2389 23.6648 55.1359C23.1124 55.6297 22.5576 56.1175 22.0004 56.5994C19.4617 58.7917 18.6355 61.535 19.5218 64.8294C20.1126 67.0241 19.5446 68.8932 17.8177 70.4366C16.199 71.8798 15.2755 73.7358 15.0473 76.0044C14.8648 77.815 14.9296 80.5583 15.2418 84.2344" stroke="#F5B395" stroke-width="2"/>
<path d="M15.2415 84.2344C15.0397 84.6518 14.7047 84.8856 14.2363 84.9357" stroke="#F69771" stroke-width="2"/>
<path d="M73.8744 38.2534C73.7856 39.4486 73.5706 40.4326 73.2296 41.2055C72.9366 41.8687 72.8189 42.4579 72.8765 42.9732" stroke="#F79671" stroke-width="2"/>
<path d="M72.8768 42.9733C72.4829 42.9304 72.2956 42.9971 72.3148 43.1737" stroke="#FCD4C9" stroke-width="2"/>
<path d="M72.3142 43.1737L72.1484 42.9805" stroke="#ED7365" stroke-width="2"/>
<path d="M72.1484 42.9804V42.8301" stroke="#FAD6CD" stroke-width="2"/>
<path d="M72.1491 42.8302C73.0929 41.1675 73.5757 39.3735 73.5973 37.4484C73.6093 36.3129 73.1938 35.4112 72.3508 34.7432C71.6567 34.1922 70.8785 33.795 70.0163 33.5517C69.6368 33.4443 68.789 33.2976 67.4728 33.1116C64.9342 32.7513 62.3799 32.6046 59.81 32.6714C57.6604 32.7287 55.8807 33.5398 54.4709 35.1047C54.0025 35.6247 53.5378 35.6211 53.0766 35.0939C51.8373 33.6698 50.239 32.8742 48.2815 32.7072C45.1448 32.4376 41.7235 32.9577 38.0176 34.2673" stroke="#926965" stroke-width="2"/>
<path d="M38.0173 34.2673C36.9365 34.3103 35.9698 34.6848 35.1172 35.3909" stroke="#FBC8BF" stroke-width="2"/>
<path d="M35.1173 35.3908L34.7246 34.8362" stroke="#926965" stroke-width="2"/>
<path d="M34.7248 34.8362C34.4462 34.2041 33.883 33.8785 33.0352 33.8594" stroke="#F8C0B2" stroke-width="2"/>
<path d="M29.8181 55.415C29.076 56.4026 28.2882 57.2352 27.4548 57.9127C25.6223 59.3989 24.8525 61.2512 25.1455 63.4697C25.1479 63.4769 25.3124 64.115 25.6391 65.3841C26.0738 67.0707 25.9261 68.706 25.1959 70.29C25.1935 70.2947 24.9342 70.7348 24.4178 71.6103C23.6252 72.951 23.3886 74.4145 23.7081 76.0009C23.9795 77.3487 23.887 78.7502 23.4307 80.2054" stroke="#E6A995" stroke-width="2"/>
<path d="M23.4299 80.2053L16.8623 83.161" stroke="#E68A6D" stroke-width="2"/>
<path d="M27.7467 79.1211L25.1348 79.8654" stroke="#873D37" stroke-width="2"/>
<path d="M25.1347 79.8652L24.7744 79.6577" stroke="#E6896F" stroke-width="2"/>
<path d="M24.7746 79.6577C25.0604 78.1644 25.0208 76.6353 24.6557 75.0704C24.5452 74.6004 24.5873 74.146 24.7818 73.7071C25.3078 72.5215 25.8458 71.2726 26.3958 69.9606C26.7321 69.1519 26.8521 68.3933 26.7561 67.6848C26.6576 66.9668 26.3646 65.6178 25.877 63.6378C25.3799 61.6196 25.9431 59.8376 27.5667 58.2918C28.6018 57.3066 29.4124 56.387 29.9985 55.533" stroke="#E5A897" stroke-width="2"/>
<path d="M39.5596 90.9436V94.2535" stroke="#9C8B94" stroke-width="2"/>
<path d="M23.6572 94.1426C24.4354 89.3548 24.9278 84.5957 25.1343 79.8652" stroke="#9C6F70" stroke-width="2"/>
<path d="M24.7744 79.6577C24.3709 79.9798 23.923 80.1622 23.4307 80.2052" stroke="#FBDAD1" stroke-width="2"/>
<path d="M31.7989 40.7439L30.9883 41.549" stroke="#D49A93" stroke-width="2"/>
<path d="M30.9887 41.5491C29.8671 42.3053 29.0349 43.3024 28.4921 44.5405C27.7812 46.1531 27.457 47.8445 27.5194 49.6145C27.6083 52.1074 26.7496 54.1911 24.9435 55.8658C24.0284 56.7174 23.153 57.6072 22.3172 58.5352C21.4117 59.5442 20.9085 60.6929 20.8077 61.9811C20.7716 62.4271 20.8617 63.1177 21.0779 64.0529C21.2388 64.7375 21.3565 65.4293 21.4309 66.1283C21.551 67.2256 21.4453 68.1846 21.1139 69.0052C20.7248 69.957 20.1508 70.7765 19.3918 71.4635C18.5704 72.2078 17.934 73.0332 17.4824 73.9397C17.1126 74.6816 16.8724 75.6692 16.7619 76.9025C16.577 78.9874 16.6106 81.0736 16.8628 83.1609" stroke="#E6A691" stroke-width="2"/>
<path d="M16.8624 83.1609C16.4421 83.7024 15.9017 84.0602 15.2412 84.2344" stroke="#FBD7CC" stroke-width="2"/>
<path d="M91.8337 79.3465C91.5479 77.1017 90.9451 74.8951 90.0252 72.7267C89.492 71.4743 88.6069 70.4199 87.37 69.5635C86.294 68.8168 85.2505 67.8256 84.2393 66.5899C83.1946 65.3089 82.8223 63.7536 83.1225 61.9239C83.4948 59.6719 83.5596 58.0438 83.3171 57.0395C83.0048 55.7442 82.3371 54.7673 81.314 54.1089C80.4013 53.5221 78.8065 52.6334 76.5297 51.4431C74.3248 50.2933 72.9126 48.5316 72.293 46.158" stroke="#E3A48F" stroke-width="2"/>
<path d="M54.791 50.0154C54.0225 50.3565 53.2155 50.5223 52.37 50.5128C52.274 50.5104 52.1887 50.5163 52.1143 50.5307C51.6507 50.6189 51.6627 50.7346 52.1503 50.8778C53.3055 51.2165 54.4079 51.1938 55.4575 50.8098" stroke="#FDA895" stroke-width="2"/>
<path d="M58.2646 47.4677C58.5264 47.2053 58.7918 47.1612 59.0608 47.3353C59.1761 47.4092 59.2818 47.4581 59.3779 47.482C59.7381 47.5679 59.9795 47.7349 60.102 47.983C60.5799 48.9348 60.8802 49.5013 61.0027 49.6826C61.7424 50.7704 62.8196 51.1855 64.2342 50.9279C65.2382 50.7442 66.038 50.2695 66.6336 49.5037C67.1644 48.8191 67.6135 48.0283 67.981 47.1313C68.0746 46.9023 68.0915 46.7055 68.0314 46.5409C67.957 46.3429 67.8237 46.1747 67.6315 46.0364" stroke="#FCA08F" stroke-width="2"/>
<path d="M68.9971 45.3958C68.3967 49.5227 67.2487 53.4266 65.553 57.1075C64.5995 59.1757 63.2641 60.9708 61.5469 62.4928" stroke="#E0866C" stroke-width="2"/>
<path d="M61.5465 62.4927C57.819 65.8062 53.6447 66.7843 49.0237 65.4269C47.0135 64.8353 44.8747 63.6843 42.6074 61.9739" stroke="#F9A091" stroke-width="2"/>
<path d="M42.6077 61.974C39.3893 59.1782 37.0776 55.7728 35.6726 51.758C35.6631 51.7327 35.6489 51.7108 35.6321 51.6954C35.6153 51.68 35.5967 51.6718 35.5789 51.6721H35.5068" stroke="#E2866B" stroke-width="2"/>
<path d="M35.5066 51.672L35.3877 51.1353" stroke="#FCD9D0" stroke-width="2"/>
<path d="M35.3876 51.1352C34.9721 49.5035 34.5037 48.1247 33.9825 46.9987C33.4157 45.7702 33.2356 44.5011 33.4421 43.1914" stroke="#E7886E" stroke-width="2"/>
<path d="M33.4424 43.1914C34.0404 44.3174 34.6313 45.435 35.2149 46.5443C35.8201 47.6893 36.5058 48.7843 37.272 49.8291C38.1342 51.0028 39.2222 51.5872 40.536 51.5825C43.5694 51.5729 44.9204 50.0593 44.589 47.0416C44.5832 46.9911 44.5595 46.9441 44.522 46.9088C44.4845 46.8735 44.4355 46.8522 44.3836 46.8484C42.3061 46.6719 40.273 46.2771 38.2843 45.664" stroke="#FDA191" stroke-width="2"/>
<path d="M38.2843 45.6641C37.6815 45.5257 37.2083 45.3146 36.8649 45.0307C36.6415 44.8423 36.6643 44.6955 36.9333 44.5906" stroke="#FAA999" stroke-width="2"/>
<path d="M59.8173 46.8522C59.0127 46.7949 58.3245 46.4633 57.7529 45.8574" stroke="#FCA090" stroke-width="2"/>
<path d="M57.7532 45.8574C56.3698 44.1446 55.4643 42.3555 55.0368 40.49C54.7606 39.2925 54.5612 38.4909 54.4388 38.0854C54.427 38.0451 54.3976 38.0103 54.3556 37.9869C54.3136 37.9634 54.2616 37.9527 54.2082 37.9566L53.7002 37.9852" stroke="#FA9C8A" stroke-width="2"/>
<path d="M72.1493 42.9805C71.8443 43.2286 71.6894 43.5613 71.6846 43.9788" stroke="#E99089" stroke-width="2"/>
<path d="M71.684 43.9788C71.1316 44.1744 70.8361 44.5322 70.7977 45.0522C70.5792 48.0413 70.9442 51.0828 71.8929 54.1769" stroke="#E1A693" stroke-width="2"/>
<path d="M71.8928 54.1768C71.5926 54.3414 71.5325 54.5501 71.7127 54.803" stroke="#F8E5E3" stroke-width="2"/>
<path d="M71.7135 54.803C72.0137 56.4037 71.8228 57.9399 71.1407 59.4118C70.6795 60.4066 70.2676 61.4216 69.905 62.4569C69.6168 63.2871 69.5591 64.1339 69.732 64.9975C69.989 66.2666 70.0371 67.5333 69.8761 68.7976C69.7489 69.7948 69.6996 70.4293 69.7284 70.7013C69.7885 71.2857 69.9422 71.9131 70.1896 72.5835C70.7468 74.0863 70.7396 75.6787 70.168 77.3604" stroke="#E0A592" stroke-width="2"/>
<path d="M70.1678 77.3605L68.9141 77.2532" stroke="#9A8B95" stroke-width="2"/>
<path d="M68.9134 77.2532C69.3578 75.6668 69.4082 74.2438 69.0647 72.9843C68.6853 71.6031 68.576 70.3089 68.7369 69.1019C68.881 68.0308 68.9531 67.4391 68.9531 67.327C68.9531 66.7831 68.9074 66.1867 68.8162 65.5379C68.576 63.8132 68.8402 62.1516 69.6088 60.5533C70.0459 59.6421 70.2656 59.184 70.268 59.1793C70.979 57.3758 71.1579 55.4996 70.8048 53.5506C70.3461 51.0077 70.1599 48.442 70.2464 45.8538" stroke="#DCA391" stroke-width="2"/>
<path d="M68.9136 77.2532L65.4082 76.8989" stroke="#803B35" stroke-width="2"/>
<path d="M65.4087 76.899C63.5138 76.4219 62.4282 75.2887 62.152 73.4996C61.8109 71.2906 61.6476 67.8805 61.662 63.2693" stroke="#E0866D" stroke-width="2"/>
<path d="M61.6622 63.2692C61.7871 63.1117 61.7486 62.8529 61.5469 62.4927" stroke="#DB6D57" stroke-width="2"/>
<path d="M32.1599 41.0125C31.9774 41.0625 31.8873 41.1818 31.8897 41.3703" stroke="#D29A93" stroke-width="2"/>
<path d="M31.8889 41.3701C31.6079 41.5777 31.3077 41.6373 30.9883 41.549" stroke="#C04D33" stroke-width="2"/>
<path d="M34.0656 42.8159C34.0752 42.9543 34.0104 43.0187 33.8711 43.0091" stroke="#F6C6BE" stroke-width="2"/>
<path d="M33.8706 43.0091C33.6136 42.9494 33.3879 42.8361 33.1933 42.6691C33.1765 42.655 33.1566 42.6447 33.1353 42.6391C33.1141 42.6334 33.0924 42.6328 33.0722 42.6371C33.0519 42.6414 33.0339 42.6505 33.0198 42.6637C33.0057 42.6768 32.996 42.6935 32.9916 42.7121L32.8799 43.2488" stroke="#F9BEB7" stroke-width="2"/>
<path d="M32.8804 43.2488C32.4217 45.4053 31.9353 47.5558 31.4213 49.7004C31.2316 50.4924 31.2076 51.3882 31.3493 52.3877C31.7095 54.9474 31.9689 56.5528 32.1274 57.2041C32.3964 58.3133 32.3652 59.3749 32.0338 60.3887C31.9065 60.7776 31.5558 61.4205 30.9818 62.3174C30.4126 63.2072 30.0847 63.8633 29.9983 64.2855C29.7797 65.3614 29.7569 66.1891 29.9298 66.7688C30.4246 68.4148 30.6876 69.4955 30.7188 70.0107C30.7716 70.9148 30.5735 71.7569 30.1244 72.537C29.9562 72.8233 29.6212 73.4196 29.1192 74.3261C28.317 75.7742 28.2198 77.3426 28.8274 79.0316" stroke="#E3A593" stroke-width="2"/>
<path d="M28.8269 79.0315C28.4762 79.1484 28.116 79.1782 27.7461 79.121" stroke="#9A8B95" stroke-width="2"/>
<path d="M27.7463 79.121C27.2779 77.246 27.5109 75.4771 28.4452 73.8144C28.7863 73.2085 29.1273 72.6025 29.4684 71.9966C29.8959 71.2404 30.076 70.4568 30.0088 69.6457C30.0088 69.6409 29.8154 68.9575 29.4287 67.5953C29.0613 66.3024 29.0997 65.0261 29.544 63.7666C29.6689 63.4159 30.0112 62.8756 30.5708 62.1456C31.6372 60.7549 32.0166 59.1721 31.7092 57.3972C31.3489 55.3099 31.1184 53.652 31.0175 52.4234C31.0127 52.3805 31.0007 52.3435 30.9815 52.3125C30.9166 52.2147 30.8782 52.2708 30.8662 52.4807C30.8061 53.5733 30.5167 54.5907 29.9979 55.5329" stroke="#E3A593" stroke-width="2"/>
<path d="M29.9985 55.5331L29.8184 55.415" stroke="#F8F6F5" stroke-width="2"/>
<path d="M29.8184 55.4149C30.0297 54.871 30.1798 54.1004 30.2687 53.1033C30.4008 51.6386 30.9292 49.0873 31.8539 45.4494C31.9884 44.915 32.0844 44.3461 32.1421 43.7425C32.1973 43.1628 32.2634 42.5855 32.3402 42.0106C32.3714 41.7792 32.2213 41.5657 31.8899 41.3701" stroke="#E4A691" stroke-width="2"/>
<path d="M57.7529 45.8574C57.8034 46.4252 57.9739 46.9619 58.2645 47.4676" stroke="#F98371" stroke-width="2"/>
<path d="M58.2645 47.4675C58.5911 49.593 57.6556 50.7071 55.458 50.8097" stroke="#FB9C89" stroke-width="2"/>
<path d="M55.4575 50.8097C56.7761 50.4972 57.5831 49.7386 57.8785 48.5339C57.9065 48.4275 57.895 48.3089 57.8461 48.1975C57.3657 47.0835 56.8769 45.9731 56.3798 44.8662C56.1684 44.3962 56.0279 44.3783 55.9583 44.8125C55.9415 44.9031 55.9475 45.0009 55.9763 45.1059C56.2597 46.1126 56.3365 47.198 56.2069 48.3621C56.0988 49.3187 55.6268 49.8698 54.791 50.0153" stroke="#F98A78" stroke-width="2"/>
<path d="M54.7913 50.0154C54.957 46.8594 54.8285 43.7499 54.4058 40.6869C54.3914 40.5724 54.3469 40.4674 54.2725 40.372C54.0131 40.0309 53.8774 39.8018 53.8654 39.685C53.839 39.444 53.6888 39.3498 53.415 39.4023" stroke="#FB9C89" stroke-width="2"/>
<path d="M72.3146 43.1736L72.293 46.1579" stroke="#EB8E85" stroke-width="2"/>
<path d="M72.2934 46.1579C71.9284 45.4995 71.7254 44.7731 71.6846 43.9788" stroke="#D4422B" stroke-width="2"/>
<path d="M42.6074 61.9739C42.5137 62.513 42.5497 62.9877 42.7155 63.398" stroke="#DD6C56" stroke-width="2"/>
<path d="M42.7154 63.3982C42.7371 65.0585 42.7311 68.0977 42.6974 72.5156C42.6782 74.9035 41.5626 76.4243 39.3506 77.078" stroke="#E1866C" stroke-width="2"/>
<path d="M39.351 77.0779L35.8672 77.4357" stroke="#813B34" stroke-width="2"/>
<path d="M65.4085 76.8989L64.9365 89.9489" stroke="#9D6E70" stroke-width="2"/>
<path d="M40.0099 91.3908C40.0267 91.0592 39.8766 90.9102 39.5596 90.9435" stroke="#FCD6CC" stroke-width="2"/>
<path d="M39.5595 90.9437L39.3506 77.0779" stroke="#9D6E70" stroke-width="2"/>
<path d="M35.3876 51.1353C34.9024 51.8342 34.6671 52.5499 34.6815 53.2822C34.7079 54.5251 34.84 56.1091 35.0777 58.0342C35.0777 58.0461 35.121 58.3371 35.2075 58.9073C35.4164 60.2813 35.3107 61.6351 34.8904 62.9686C34.4749 64.295 34.4401 65.6893 34.7859 67.1516C34.9372 67.7933 34.8844 68.4172 34.6274 69.0231C34.3008 69.7912 33.9705 70.6094 33.6367 71.4778C33.226 72.5513 33.011 73.4005 32.9918 74.0255C32.9486 75.4592 33.4518 76.7402 34.5013 77.8686" stroke="#E5A897" stroke-width="2"/>
<path d="M34.5013 77.8687L28.8271 79.0316" stroke="#873D37" stroke-width="2"/>
<path d="M35.5065 51.6721C35.2039 53.8501 35.27 56.0185 35.7047 58.1774C36.0769 60.0358 36.0361 61.7438 35.5822 63.3015C35.402 63.9218 35.3024 64.4931 35.2831 65.0155C35.2735 65.2851 35.3924 65.8385 35.6398 66.6758C35.7959 67.2102 35.8656 67.7541 35.8488 68.3075C35.8344 68.725 35.6939 69.2427 35.4273 69.8605C35.0142 70.81 34.6563 71.7785 34.3537 72.7661C34.1808 73.3362 34.1171 73.8336 34.1627 74.2582C34.2276 74.8451 34.4077 75.3305 34.7031 75.7146C35.1282 76.2633 35.5161 76.837 35.8668 77.4357" stroke="#E0A695" stroke-width="2"/>
<path d="M35.8664 77.4358C35.4845 77.7507 35.0294 77.895 34.501 77.8688" stroke="#9C8E99" stroke-width="2"/>
<path d="M89.9387 83.6332C87.5825 82.023 85.1651 80.6084 82.6865 79.3894" stroke="#E4886D" stroke-width="2"/>
<path d="M82.6871 79.3893C83.1458 77.6002 83.374 75.792 83.3716 73.9646C83.3716 72.7075 83.1747 71.7139 82.7808 70.9839C82.31 70.1132 81.5955 69.3344 80.6372 68.6473C78.7734 67.309 78.0733 65.477 78.5368 63.1511C78.717 62.2541 78.8082 61.7985 78.8106 61.7842C78.9283 60.8825 78.9295 60.1656 78.8142 59.6336C78.6221 58.7486 78.0145 58.0389 76.9913 57.5046C76.0354 57.006 75.0615 56.5408 74.0696 56.109C73.1305 55.6963 72.4051 55.0522 71.8936 54.1768" stroke="#E39785" stroke-width="2"/>
<path d="M61.6612 63.2693C60.5395 65.0823 59.3747 66.5172 58.1666 67.574C55.9282 69.5277 53.5 70.1718 50.882 69.5062C49.5298 69.1603 48.0468 68.3206 46.4328 66.9871C45.1022 65.8874 43.8629 64.6911 42.7148 63.3981" stroke="#F9A092" stroke-width="2"/>
<path d="M33.8711 43.009L35.0996 44.1183C35.1337 44.1499 35.1622 44.1935 35.1832 44.2464C35.2043 44.2993 35.2175 44.3604 35.2221 44.426C35.2509 44.8125 35.4539 45.1178 35.8309 45.3421C36.6355 45.8216 37.4533 45.9289 38.2843 45.6641" stroke="#F89084" stroke-width="2"/>
<path d="M33.4419 43.1915C33.2305 43.0459 33.0432 43.065 32.8799 43.2487" stroke="#E67059" stroke-width="2"/>
<path d="M74.8369 78.1514L77.1786 95.2913" stroke="#9D6D6F" stroke-width="2"/>
<path d="M82.6865 79.3893C82.4608 79.449 82.1558 79.4132 81.7715 79.282" stroke="#FBC7BD" stroke-width="2"/>
<path d="M81.7715 79.282C82.2254 77.3545 82.5136 75.4091 82.6361 73.4458C82.689 72.5751 82.5773 71.8583 82.3011 71.2953C81.9648 70.6083 81.4857 70.0214 80.8636 69.5348C80.2344 69.0386 79.9161 68.7881 79.9089 68.7833C78.2709 67.2256 77.7245 65.2456 78.2697 62.8434C78.3874 62.3209 78.4823 61.7937 78.5543 61.2618C78.7729 59.6229 78.1472 58.4373 76.6773 57.705C75.7335 57.2326 74.7715 56.7949 73.7916 56.3917C72.9558 56.0458 72.2629 55.5162 71.7129 54.803" stroke="#E29684" stroke-width="2"/>
<path d="M81.772 79.2821C79.5912 78.6762 77.2795 78.2993 74.8369 78.1514" stroke="#E3876C" stroke-width="2"/>
<path d="M74.837 78.1514L70.168 77.3606" stroke="#843D35" stroke-width="2"/>
<path d="M85.0213 37.5344C85.456 37.6799 85.8151 37.5094 86.0985 37.0227C87.1985 35.1548 87.3666 33.2464 86.6029 31.2975C86.3122 30.558 85.916 30.4971 85.414 31.115C84.1579 32.6608 83.7736 34.5215 84.2611 36.6971C84.3572 37.1193 84.6106 37.3984 85.0213 37.5344Z" stroke="#FACCBA" stroke-width="2"/>
<path d="M90.1798 51.9332C90.6386 52.3196 91.1345 52.3745 91.6677 52.0978C92.8566 51.4823 93.7573 50.5794 94.3697 49.389C95.6883 46.8246 96.2707 44.0968 96.117 41.2055C95.9945 38.8916 95.1131 38.4968 93.4727 40.0211C90.7659 42.5331 89.3765 45.7833 89.3044 49.7719C89.2876 50.7094 89.5794 51.4299 90.1798 51.9332Z" stroke="#FCC7AB" stroke-width="2"/>
<path d="M9.50968 64.2174C10.1245 64.1983 10.6157 63.9478 10.9831 63.466C11.9054 62.2589 12.5755 60.9421 12.9934 59.5155C13.2768 58.5566 13.5074 57.563 13.6851 56.5348C13.8581 55.521 13.9085 54.4964 13.8365 53.4611C13.8028 53.015 13.6671 52.7001 13.4294 52.5164C13.0595 52.2278 12.638 52.3041 12.1648 52.7454C9.6742 55.0689 8.38445 57.9912 8.29559 61.5122C8.27637 62.2374 8.36283 62.9125 8.55497 63.5375C8.69908 64.0075 9.01732 64.2341 9.50968 64.2174Z" stroke="#FCC2A3" stroke-width="2"/>
<path d="M37.4702 15.7032C36.8338 16.6097 36.381 17.5949 36.112 18.6589C35.843 19.7133 35.7061 20.2464 35.7013 20.2584C35.1081 22.0523 34.2291 23.7031 33.0642 25.2107C32.4541 26.0027 31.6051 26.586 30.5171 26.9605C29.6717 27.2515 28.6041 27.7286 27.3144 28.3918C27.2543 28.4228 27.2003 28.4586 27.1522 28.4991C26.7415 28.845 26.7824 28.919 27.2747 28.721C28.675 28.1556 30.0884 27.6237 31.5151 27.1251C32.3725 26.8245 32.9705 26.4416 33.3092 25.9765C34.486 24.3495 35.4648 22.3684 36.2453 20.0329C36.2477 20.0258 36.3846 19.5248 36.656 18.5301C37.2733 16.271 38.6819 14.6262 40.8819 13.5956C41.283 13.4095 41.235 13.3356 40.7378 13.3738C40.6634 13.3809 40.5901 13.3964 40.5181 13.4203C39.2547 13.8473 38.2388 14.6083 37.4702 15.7032Z" stroke="#F9A268" stroke-width="2"/>
<path d="M58.812 14.1646C61.7782 15.0448 64.0287 16.7648 65.5634 19.3245C65.8204 19.7539 65.9981 20.3168 66.0966 21.0134C66.5841 24.4676 68.4215 27.0237 71.6086 28.6817C72.944 29.3735 74.1869 30.1977 75.3374 31.1543C75.7529 31.5002 75.8886 31.4071 75.7445 30.8751C75.68 30.6369 75.5233 30.4337 75.3086 30.3098C73.7018 29.3794 72.1983 28.5039 70.798 27.6833C68.7926 26.5073 67.438 24.8553 66.7342 22.7274C66.7294 22.7131 66.5901 22.0845 66.3163 20.8416C66.0329 19.5582 65.4781 18.3619 64.6519 17.2526C63.2061 15.3156 61.2882 14.2075 58.8985 13.9284C58.8408 13.9236 58.7868 13.926 58.7364 13.9356C58.4698 13.9952 58.495 14.0715 58.812 14.1646Z" stroke="#F9A268" stroke-width="2"/>
<path d="M59.2263 17.1094C60.2542 17.8513 61.0696 18.6839 61.6725 19.6071C61.7291 19.6962 61.7627 19.8099 61.7698 19.9363C61.789 20.2941 61.8935 20.6674 62.0832 21.0563C62.3858 21.6693 62.4987 22.3623 62.4218 23.1353C62.3954 23.3977 62.5719 24.1897 62.9514 25.5112C63.0619 25.8905 63.2096 25.98 63.3946 25.7796C63.4291 25.7431 63.454 25.6952 63.4671 25.6398C63.4803 25.5844 63.4813 25.5232 63.4702 25.4611C63.3189 24.6524 63.2072 23.8378 63.1352 23.0172C63.0415 21.9962 62.8734 21.2042 62.6308 20.6412C62.0952 19.3983 61.3338 18.2915 60.3467 17.3205C59.9504 16.9317 59.6334 16.7206 59.3956 16.6872C58.7832 16.6085 58.7267 16.7492 59.2263 17.1094Z" stroke="#FC9B53" stroke-width="2"/>
<path d="M37.5381 29.2004C37.1226 29.6417 36.617 29.9232 36.0214 30.0449C34.5947 30.3335 33.1525 30.6997 31.6946 31.1434C29.999 31.6611 28.983 32.7787 28.6468 34.4962C28.5531 34.9781 28.6504 35.3884 28.9386 35.7272C29.0034 35.8035 29.0791 35.8441 29.1655 35.8488C29.1881 35.8504 29.2106 35.846 29.2315 35.8357C29.2525 35.8254 29.2715 35.8096 29.2871 35.7893C29.3028 35.7689 29.3149 35.7446 29.3225 35.7178C29.3301 35.6911 29.3331 35.6626 29.3313 35.6341C29.2184 33.8951 29.9509 32.7703 31.5289 32.2598C33.1837 31.7231 34.8325 31.1708 36.4753 30.6031C36.9629 30.4337 37.3556 30.1641 37.6534 29.7944C39.2554 27.8001 40.3374 25.5625 40.8994 23.0815C41.2332 21.6025 41.513 20.6543 41.7388 20.2368C42.3296 19.1442 43.1822 18.2556 44.2967 17.571C44.5368 17.4231 44.741 17.2489 44.9091 17.0485C45.1253 16.7909 45.0796 16.7313 44.7722 16.8696C43.163 17.5948 41.979 18.716 41.22 20.2332C41.0591 20.5577 40.8898 21.0276 40.712 21.6431C40.5727 22.1297 40.4298 22.614 40.2833 23.0958C40.2761 23.1173 40.1068 23.7948 39.7753 25.1283C39.3911 26.6598 38.6453 28.0172 37.5381 29.2004Z" stroke="#FAAF7A" stroke-width="2"/>
<path d="M47.6003 20.6483C47.204 21.2232 47.2617 21.2006 47.7732 20.5803C48.023 20.2774 47.987 20.275 47.6651 20.5732C47.6411 20.597 47.6195 20.6221 47.6003 20.6483Z" stroke="#F08140" stroke-width="2"/>
<path d="M43.0003 25.0783C43.0316 25.0878 43.0616 25.0771 43.0904 25.0461C43.1144 25.0199 43.1276 24.9817 43.13 24.9316C43.1709 24.2994 43.2429 23.672 43.3462 23.0494C43.4038 22.6868 43.3366 22.5449 43.1444 22.6236C43.0966 22.6424 43.0533 22.6757 43.0181 22.7207C42.9829 22.7656 42.957 22.8207 42.9427 22.8812L42.4635 24.8386C42.4487 24.8989 42.4498 24.9602 42.4666 25.0136C42.4834 25.067 42.5152 25.1098 42.5572 25.1356C42.6677 25.2047 42.7806 25.188 42.8958 25.0855C42.9069 25.076 42.9225 25.0703 42.9409 25.069C42.9594 25.0678 42.9799 25.071 43.0003 25.0783Z" stroke="#F08140" stroke-width="2"/>
<path d="M38.9436 25.5793C39.1333 25.3741 39.2234 25.1558 39.2138 24.9245C39.2066 24.7956 39.1526 24.7765 39.0517 24.8672C36.8372 26.902 34.2469 28.2379 31.2808 28.8749C30.1495 29.1158 29.0627 29.4808 28.0204 29.9698C27.9958 29.9809 27.9734 29.9965 27.9548 30.0155C27.9363 30.0345 27.922 30.0564 27.9131 30.0796C27.9041 30.1029 27.9007 30.1269 27.9031 30.15C27.9054 30.1731 27.9135 30.1946 27.9267 30.2131C28.0108 30.3324 28.1609 30.3587 28.377 30.2919C29.5011 29.9412 30.6311 29.6132 31.7671 29.3078C31.7887 29.3007 32.2331 29.1945 33.1001 28.9894C35.3866 28.4479 37.3344 27.3112 38.9436 25.5793Z" stroke="#FAA971" stroke-width="2"/>
<path d="M68.7375 31.2187C70.4571 31.9606 72.0495 32.904 73.5146 34.0491C73.5557 34.0812 73.5883 34.1241 73.6097 34.1739C73.631 34.2238 73.6404 34.2792 73.6371 34.3353C73.6058 34.7934 73.7932 35.0689 74.1991 35.1619C74.2221 35.167 74.246 35.1671 74.2692 35.1621C74.2923 35.1571 74.3142 35.1472 74.3333 35.1329C74.3524 35.1187 74.3683 35.1005 74.3799 35.0796C74.3916 35.0587 74.3987 35.0355 74.4008 35.0116C74.4657 34.2936 74.2183 33.7413 73.6587 33.3549C72.3353 32.4412 70.7657 31.6349 68.95 30.936C68.8732 30.9073 68.7999 30.8954 68.7303 30.9002C68.2763 30.9169 68.2787 31.023 68.7375 31.2187Z" stroke="#FAA971" stroke-width="2"/>
<path d="M44.1745 30.9716C45.9374 30.64 47.6294 30.2571 49.2506 29.823C49.755 29.687 50.0132 29.4186 50.0252 29.0178C50.027 28.9691 50.0084 28.9216 49.9733 28.8855C49.9383 28.8493 49.8897 28.8275 49.8378 28.8246C48.942 28.765 48.087 28.895 47.2728 29.2146C46.3049 29.5939 45.8077 29.7884 45.7813 29.7979C45.0463 30.046 44.4591 30.3013 44.0196 30.5637C43.2942 30.9907 43.3459 31.1266 44.1745 30.9716Z" stroke="#FCA896" stroke-width="2"/>
<path d="M59.7057 34.3174C58.6225 34.3603 57.7507 34.7193 57.0902 35.3944C56.5882 35.9073 56.3108 36.6325 56.258 37.57C56.0922 40.5352 57.1562 43.0341 59.4499 45.0665" stroke="#926C69" stroke-width="2"/>
<path d="M59.4492 45.0666C60.4676 45.7202 61.6985 45.954 63.1419 45.7679C65.0249 45.527 66.6185 45.0916 67.9227 44.4618C70.1011 43.4122 71.2791 41.6791 71.4568 39.2626C71.601 37.3422 70.8252 36.0219 69.1295 35.3014C69.0887 35.2847 68.9446 35.2167 68.6972 35.0975C68.212 34.8708 68.0763 35.0581 68.2901 35.6593" stroke="#905350" stroke-width="2"/>
<path d="M68.2908 35.6592C68.3052 35.7522 68.262 35.825 68.1611 35.8774" stroke="#8E5857" stroke-width="2"/>
<path d="M68.161 35.8774C67.9616 35.3263 67.6122 34.9482 67.1126 34.7431C66.5122 34.4974 65.8721 34.3709 65.1924 34.3638" stroke="#8D706F" stroke-width="2"/>
<path d="M65.1919 34.3638C63.381 33.9821 61.552 33.9666 59.7051 34.3173" stroke="#905350" stroke-width="2"/>
<path d="M65.1924 34.3638C65.7736 34.7574 66.4125 35.0281 67.109 35.176C67.1614 35.1876 67.2088 35.2146 67.2444 35.2531C67.2799 35.2916 67.3019 35.3398 67.3071 35.3907L67.4512 36.6431" stroke="#F6AA9C" stroke-width="2"/>
<path d="M67.4511 36.6433L67.1953 36.6576" stroke="#F17F72" stroke-width="2"/>
<path d="M67.1955 36.6576C65.0484 35.4123 62.8243 35.2406 60.5234 36.1423" stroke="#E46B61" stroke-width="2"/>
<path d="M60.5231 36.1423C59.4207 36.7673 58.7386 37.6798 58.4768 38.8797C58.3255 39.5834 58.2594 40.1214 58.2786 40.4935C58.3099 41.0541 58.5464 41.5718 58.9883 42.0465C59.56 42.662 59.9335 42.5606 60.1088 41.7423C60.3922 40.3945 61.0611 39.2698 62.1155 38.368" stroke="#F17F72" stroke-width="2"/>
<path d="M62.1151 38.368C61.9302 39.1529 62.0082 39.7934 62.3493 40.2896C62.6471 40.7237 63.0794 40.9563 63.6462 40.9873C64.4484 41.0327 64.7979 40.5019 64.6946 39.395C64.6274 38.6603 64.2899 38.2154 63.6823 38.0603" stroke="#B76C62" stroke-width="2"/>
<path d="M63.6826 38.0603C63.966 37.7955 64.2494 37.7621 64.5328 37.9601C64.632 38.0288 64.7446 38.0584 64.8463 38.0424C65.4947 37.9422 66.0976 38.0674 66.6548 38.4181" stroke="#F17F72" stroke-width="2"/>
<path d="M66.655 38.4182C66.3523 38.4182 66.2887 38.5446 66.464 38.7975C66.6922 39.1219 66.685 39.4631 66.4424 39.8209C66.3849 39.9061 66.3451 39.9982 66.3258 40.0909C66.3065 40.1836 66.3082 40.2746 66.3307 40.3576L67.1557 43.5208C67.1664 43.5588 67.1959 43.5924 67.2397 43.6164C67.2834 43.6404 67.3388 43.6534 67.3971 43.6532L68.0204 43.664" stroke="#F6AA9C" stroke-width="2"/>
<path d="M68.0204 43.6639C67.8571 43.8929 67.8968 44.0026 68.1393 43.9931C68.221 43.9907 68.3051 43.9609 68.3915 43.9036C69.5011 43.188 70.2661 42.3709 70.6864 41.4525C70.8545 41.0827 70.917 40.4935 70.8738 39.6848" stroke="#DC6A58" stroke-width="2"/>
<path d="M70.8741 39.6849C71.232 38.6901 71.1359 37.7455 70.5859 36.8509C70.0551 35.9849 69.2901 35.5878 68.291 35.6593" stroke="#F79384" stroke-width="2"/>
<path d="M59.4493 45.0665C59.6846 44.9544 59.7219 44.8232 59.5609 44.6729C58.1607 43.3585 57.2661 41.7519 56.877 39.853C56.6104 38.5672 56.5239 37.6022 56.6176 36.9582C56.7977 35.7201 57.6816 35.0223 59.2691 34.8649C59.6678 34.8243 59.8131 34.6418 59.7051 34.3174" stroke="#FBA696" stroke-width="2"/>
<path d="M68.1611 35.8774L68.7412 38.8796" stroke="#F4B0A3" stroke-width="2"/>
<path d="M68.741 38.8796C68.6378 40.4946 68.3976 42.0894 68.0205 43.6638" stroke="#D98777" stroke-width="2"/>
<path d="M66.6553 38.4181L67.8117 39.556C67.9318 39.6753 68.0051 39.6598 68.0315 39.5095C68.2428 38.3263 68.0495 37.3709 67.4515 36.6433" stroke="#EE9C91" stroke-width="2"/>
<path d="M70.874 39.6849C70.5329 39.4607 70.2615 39.1685 70.0598 38.8082C69.5794 37.959 69.1399 37.9829 68.7412 38.8798" stroke="#DA6F5F" stroke-width="2"/>
<path d="M63.6824 38.0603C63.1108 37.9005 62.5884 38.0031 62.1152 38.3681" stroke="#AF5E56" stroke-width="2"/>
<path d="M67.1955 36.6576C67.1235 36.9701 66.9806 37.0774 66.7668 36.9796C64.6965 36.0182 62.6154 35.7391 60.5234 36.1423" stroke="#DC5D56" stroke-width="2"/>
<path d="M35.3877 39.0586C34.9554 39.5953 34.9758 40.113 35.449 40.6116" stroke="#884444" stroke-width="2"/>
<path d="M35.4489 40.6114C35.5042 41.172 35.7816 41.6456 36.2811 42.032C38.1954 43.523 40.2789 44.4617 42.5317 44.8481C44.1241 45.1225 45.5495 45.0819 46.8081 44.7265C48.2996 44.3018 49.5341 43.4788 50.5116 42.2575C51.7893 40.6544 52.2096 38.8438 51.7725 36.8256C51.5251 35.6877 50.8046 34.978 49.6109 34.6965C45.8642 33.8187 42.2735 34.0823 38.839 35.4873C37.1578 36.1768 36.0074 37.3671 35.3877 39.0585" stroke="#915753" stroke-width="2"/>
<path d="M35.4489 40.6116L36.699 41.8139C36.7384 41.8516 36.7901 41.8748 36.8461 41.88C36.9021 41.8851 36.9593 41.872 37.0089 41.8425C37.4556 41.5729 37.3728 41.0421 36.7603 40.2502C36.6712 40.1349 36.5508 40.0477 36.4134 39.9988C36.276 39.9499 36.1275 39.9415 35.9857 39.9746C35.5942 40.0653 35.3949 39.7599 35.3877 39.0586" stroke="#F28375" stroke-width="2"/>
<path d="M35.2943 37.2479C35.0805 37.7417 34.9736 38.2582 34.9736 38.7973C34.9734 38.8175 34.9793 38.837 34.99 38.8517C35.0008 38.8663 35.0155 38.8751 35.0313 38.876L35.0889 38.8832C35.1148 38.8865 35.1428 38.8746 35.1679 38.8496C35.1931 38.8247 35.2136 38.7883 35.2258 38.7472L35.5969 37.4161C35.6151 37.3496 35.6241 37.2855 35.6235 37.2277C35.6229 37.1698 35.6126 37.1195 35.5933 37.0797C35.514 36.9199 35.4144 36.9759 35.2943 37.2479Z" stroke="#5E5B4B" stroke-width="2"/>
<path d="M43.1943 39.5132L44.394 39.1482" stroke="#CD6B5D" stroke-width="2"/>
<path d="M44.3945 39.148C44.272 40.5364 44.7271 41.2282 45.7599 41.2234C46.4396 41.2234 46.9079 40.9431 47.1649 40.3825C47.4363 39.7933 47.3523 39.1468 46.9127 38.4431" stroke="#AB6B61" stroke-width="2"/>
<path d="M46.9125 38.4431C47.5298 38.1139 48.1674 37.9338 48.8255 37.9028C48.8769 37.8995 48.9294 37.9113 48.9775 37.9371C49.0256 37.9629 49.0676 38.0017 49.0993 38.0495L49.6181 38.8224C49.6572 38.8808 49.7036 38.9291 49.7524 38.9625C49.8012 38.9958 49.8506 39.013 49.8955 39.012C50.0492 39.0073 50.0973 38.8415 50.0396 38.5147C49.7754 37.0333 48.888 36.1792 47.3773 35.9526C46.2124 35.7785 45.116 35.9049 44.088 36.3319C43.1706 36.7112 42.4765 37.0953 42.0057 37.4841C41.3813 38.0042 40.9705 38.727 40.7736 39.6526C40.6319 40.3301 40.8649 40.5352 41.4725 40.268L43.1946 39.513" stroke="#F28272" stroke-width="2"/>
<path d="M46.9126 38.4431C46.1536 38.0829 45.379 38.0841 44.5889 38.4467" stroke="#A1574F" stroke-width="2"/>
<path d="M44.5886 38.4468C43.8872 38.504 43.4225 38.8595 43.1943 39.5131" stroke="#C4574A" stroke-width="2"/>
<path d="M44.3945 39.1481L44.5891 38.4468" stroke="#7D403A" stroke-width="2"/>
<path d="M60.1669 52.7742C57.2463 53.5065 54.2753 53.8297 51.2539 53.7439" stroke="#FEDBD2" stroke-width="2"/>
<path d="M51.2538 53.7438C50.0241 53.4003 48.6683 53.2058 47.1864 53.1605C46.9246 53.1534 46.8586 53.2631 46.9883 53.4897C48.1123 55.4387 49.5834 56.963 51.4015 58.0628C52.8474 58.9383 54.2788 59.1852 55.6959 58.8035C56.8415 58.491 57.8851 57.7765 58.8266 56.6601C59.672 55.6582 60.282 54.506 60.6567 53.2035C60.6999 53.058 60.712 52.9303 60.6928 52.8206C60.6399 52.4771 60.4646 52.4616 60.1668 52.7741" stroke="#ED8679" stroke-width="2"/>
<path d="M51.2539 53.7439C51.7823 54.7076 52.3527 55.5378 52.9652 56.2344C53.6857 57.0526 54.5227 57.4378 55.4762 57.3901C56.2352 57.352 56.9953 57.0013 57.7567 56.3381C58.8375 55.4006 59.6409 54.2126 60.1669 52.7742" stroke="#ECA8A4" stroke-width="2"/>
<path d="M51.5242 78.6069C51.5245 78.5187 51.4895 78.4339 51.4269 78.3713C51.3643 78.3087 51.2792 78.2733 51.1903 78.273L51.1687 78.273C51.1247 78.2728 51.0811 78.2812 51.0404 78.2978C50.9997 78.3144 50.9627 78.3388 50.9315 78.3696C50.9002 78.4004 50.8754 78.437 50.8585 78.4773C50.8415 78.5176 50.8326 78.5608 50.8325 78.6045L50.8096 85.1313C50.8093 85.2195 50.8443 85.3043 50.9069 85.3669C50.9695 85.4295 51.0546 85.4649 51.1434 85.4652L51.165 85.4653C51.209 85.4654 51.2526 85.457 51.2933 85.4404C51.3341 85.4238 51.3711 85.3994 51.4023 85.3686C51.4335 85.3379 51.4583 85.3013 51.4753 85.2609C51.4923 85.2206 51.5011 85.1774 51.5013 85.1337L51.5242 78.6069Z" stroke="#FBA393" stroke-width="2"/>
<path d="M94.4386 76.1153C94.3209 72.6276 92.9146 69.8246 90.2199 67.7063C89.6723 67.2745 89.1319 66.832 88.5987 66.3787C87.4002 65.3601 86.6677 64.1137 86.4011 62.6395C86.317 62.1695 86.3074 61.4157 86.3722 60.378C86.4179 59.6242 86.4503 58.8691 86.4695 58.1129C86.5536 54.5394 84.9552 52.1014 81.6744 50.7989C79.9836 50.1262 78.3828 49.2972 76.8721 48.312C76.0098 47.7514 75.4082 47.2171 75.0671 46.709C74.6036 46.0195 74.3406 45.2299 74.2782 44.3401C74.2325 43.6937 74.2133 42.7681 74.2205 41.5634C74.2253 40.7666 74.3178 40.0581 74.4979 39.4379C76.3785 37.966 77.6743 36.1733 78.3852 34.0597C78.8775 32.5974 78.9556 31.085 78.6194 29.5225C77.9205 26.271 76.0002 23.8127 72.8587 22.1476C71.617 21.4892 70.9938 20.4468 70.989 19.0202C70.9794 16.4534 69.9994 14.3518 68.0492 12.7153C65.8156 10.8379 63.3069 9.63678 60.5233 9.11196C58.5274 8.73744 56.7969 8.76606 55.3319 9.19784C53.617 9.70357 52.1219 10.7222 50.8466 12.2537C50.8249 12.2799 50.7977 12.301 50.7669 12.3155C50.736 12.33 50.7023 12.3375 50.6682 12.3375C50.6341 12.3375 50.6004 12.33 50.5696 12.3155C50.5387 12.301 50.5115 12.2799 50.4899 12.2537C49.7213 11.3377 48.8579 10.69 47.8996 10.3107C45.4762 9.34932 42.9916 9.18114 40.4457 9.80615C38.1592 10.3667 36.3339 11.4331 34.9697 13.0051C34.3788 13.6826 33.8841 14.5462 33.4854 15.5958C33.1299 16.5357 32.8453 17.4995 32.6316 18.4871C32.1104 20.9251 30.9119 22.9611 29.0361 24.5952C27.4702 25.9621 26.5371 26.8244 26.2369 27.1823C24.1521 29.6728 24.1822 32.2229 26.3269 34.8326C26.997 35.6461 28.1835 36.5097 29.8864 37.4233L31.1329 39.5703C27.804 41.4191 25.9378 44.2316 25.5344 48.0079C25.3686 49.5704 25.2053 50.6427 25.0444 51.2247C24.7562 52.2672 24.211 53.157 23.4088 53.8941C22.4721 54.7529 21.5378 55.6129 20.6059 56.4741C18.7085 58.2322 17.8751 60.4161 18.1057 63.0259C18.1874 63.9563 18.281 64.8866 18.3867 65.817C18.5813 67.5465 18.0012 68.9372 16.6466 69.9892C15.5586 70.8337 14.7793 71.9525 14.3085 73.3457C14.0035 74.2569 13.845 75.5678 13.833 77.2782C13.8186 79.8355 13.953 82.388 14.2365 84.9357L13.9519 85.6657C12.6045 84.3107 11.7158 83.3493 11.2859 82.7816C6.15812 75.9948 2.96858 68.577 1.71726 60.5283C-0.588434 45.7046 2.66477 32.4519 11.4768 20.77C12.9467 18.8187 14.5199 17.02 16.1963 15.374C22.8036 8.88295 30.5793 4.54489 39.5234 2.35975C45.0955 0.997618 50.873 0.658875 56.8558 1.34352C59.2791 1.62024 61.6353 2.0711 63.9242 2.69611C71.8932 4.87647 78.9064 8.84836 84.9636 14.6118C89.6975 19.118 93.3974 24.3471 96.0634 30.299C102.899 45.552 102.636 60.6607 95.2744 75.625C95.1879 75.8016 94.9093 75.965 94.4386 76.1153ZM85.0213 37.5342C85.456 37.6798 85.815 37.5092 86.0984 37.0225C87.1984 35.1547 87.3666 33.2463 86.6028 31.2973C86.3122 30.5578 85.9159 30.497 85.414 31.1148C84.1578 32.6606 83.7735 34.5213 84.2611 36.6969C84.3572 37.1192 84.6105 37.3983 85.0213 37.5342ZM90.1803 51.9332C90.639 52.3197 91.1349 52.3746 91.6681 52.0978C92.857 51.4824 93.7577 50.5795 94.3701 49.3891C95.6887 46.8246 96.2711 44.0968 96.1174 41.2056C95.9949 38.8916 95.1135 38.4968 93.4731 40.0211C90.7663 42.5331 89.3769 45.7834 89.3048 49.772C89.288 50.7095 89.5798 51.4299 90.1803 51.9332ZM9.50979 64.2175C10.1246 64.1984 10.6158 63.9479 10.9833 63.466C11.9055 62.259 12.5756 60.9422 12.9935 59.5156C13.2769 58.5566 13.5075 57.5631 13.6852 56.5349C13.8582 55.5211 13.9086 54.4965 13.8366 53.4612C13.8029 53.0151 13.6672 52.7002 13.4295 52.5165C13.0596 52.2278 12.6381 52.3042 12.1649 52.7455C9.6743 55.069 8.38456 57.9913 8.2957 61.5123C8.27648 62.2375 8.36293 62.9126 8.55508 63.5376C8.69918 64.0075 9.01742 64.2342 9.50979 64.2175Z" fill="#FDE8E1"/>
<path d="M74.4977 39.4379C74.8892 38.7581 74.6814 38.3633 73.8745 38.2535C74.1314 36.5312 73.5802 35.1941 72.2208 34.2423C71.277 33.5815 70.2514 33.0925 69.1442 32.7752C69.0985 32.7621 69.0566 32.7345 69.023 32.6955C68.9893 32.6564 68.9652 32.6073 68.9532 32.5533C68.9364 32.4675 68.9064 32.3911 68.8632 32.3243C68.8031 32.2289 68.6903 32.1657 68.5245 32.1347C66.9322 31.8365 65.6484 31.5204 64.6733 31.1864C63.2899 30.7117 62.0962 29.8398 61.0923 28.5707C60.5231 27.8479 59.5047 26.1995 58.0372 23.6255C57.1774 22.1179 56.2899 21.0671 55.3749 20.4731C54.5727 19.953 53.7993 19.7371 53.0548 19.8254C51.472 20.0115 50.127 20.7939 49.0198 22.1727C48.1768 23.2248 47.449 24.346 46.8366 25.5363C45.9119 27.3326 45.3451 28.3596 45.1362 28.6172C44.2259 29.7551 43.0574 30.6127 41.6308 31.19C38.8447 32.3184 35.9794 33.2082 33.0349 33.8594C31.9853 34.4296 31.0534 35.113 30.2392 35.9098C30.1911 35.9574 30.1551 36.0118 30.1359 36.066C30.1166 36.1202 30.115 36.1717 30.1311 36.2139C30.1575 36.2807 30.2032 36.3392 30.268 36.3893L29.8861 37.4234C28.1833 36.5097 26.9968 35.6462 26.3267 34.8327C24.182 32.2229 24.1519 29.6728 26.2367 27.1823C26.5369 26.8245 27.47 25.9621 29.0359 24.5952C30.9117 22.9612 32.1102 20.9251 32.6314 18.4871C32.8451 17.4995 33.1297 16.5358 33.4852 15.5959C33.8839 14.5462 34.3786 13.6827 34.9695 13.0052C36.3337 11.4331 38.159 10.3668 40.4455 9.80621C42.9914 9.18121 45.476 9.34939 47.8994 10.3108C48.8577 10.69 49.7211 11.3377 50.4897 12.2538C50.5113 12.28 50.5385 12.3011 50.5694 12.3156C50.6002 12.3301 50.6339 12.3376 50.668 12.3376C50.7021 12.3376 50.7358 12.3301 50.7667 12.3156C50.7975 12.3011 50.8247 12.28 50.8463 12.2538C52.1217 10.7223 53.6168 9.70363 55.3316 9.1979C56.7967 8.76612 58.5272 8.7375 60.523 9.11203C63.3067 9.63684 65.8153 10.838 68.049 12.7154C69.9992 14.3518 70.9791 16.4535 70.9888 19.0203C70.9936 20.4468 71.6168 21.4893 72.8585 22.1477C76 23.8128 77.9202 26.2711 78.6192 29.5225C78.9554 31.0851 78.8773 32.5975 78.385 34.0598C77.674 36.1734 76.3783 37.9661 74.4977 39.4379ZM37.4697 15.7032C36.8332 16.6097 36.3805 17.5949 36.1115 18.6589C35.8425 19.7133 35.7056 20.2464 35.7008 20.2584C35.1076 22.0523 34.2285 23.7031 33.0637 25.2107C32.4536 26.0027 31.6046 26.586 30.5166 26.9605C29.6712 27.2515 28.6036 27.7286 27.3139 28.3918C27.2538 28.4228 27.1998 28.4586 27.1517 28.4991C26.741 28.845 26.7819 28.919 27.2742 28.721C28.6745 28.1556 30.0879 27.6237 31.5146 27.1251C32.372 26.8245 32.97 26.4416 33.3087 25.9765C34.4855 24.3495 35.4643 22.3684 36.2448 20.0329C36.2472 20.0258 36.3841 19.5248 36.6555 18.5301C37.2728 16.271 38.6814 14.6262 40.8814 13.5956C41.2825 13.4095 41.2345 13.3356 40.7373 13.3738C40.6629 13.3809 40.5896 13.3964 40.5176 13.4203C39.2542 13.8473 38.2383 14.6083 37.4697 15.7032ZM58.8118 14.1646C61.778 15.0448 64.0284 16.7648 65.5631 19.3244C65.8201 19.7538 65.9979 20.3168 66.0964 21.0134C66.5839 24.4676 68.4213 27.0237 71.6084 28.6816C72.9438 29.3734 74.1867 30.1976 75.3371 31.1542C75.7526 31.5001 75.8883 31.4071 75.7442 30.8751C75.6798 30.6369 75.5231 30.4336 75.3083 30.3098C73.7015 29.3794 72.198 28.5039 70.7978 27.6833C68.7923 26.5072 67.4377 24.8553 66.734 22.7274C66.7292 22.7131 66.5899 22.0845 66.3161 20.8416C66.0327 19.5582 65.4779 18.3619 64.6517 17.2526C63.2058 15.3156 61.288 14.2075 58.8983 13.9284C58.8406 13.9236 58.7866 13.926 58.7361 13.9356C58.4696 13.9952 58.4948 14.0715 58.8118 14.1646ZM59.2261 17.1095C60.2541 17.8514 61.0695 18.6839 61.6723 19.6071C61.7289 19.6962 61.7625 19.81 61.7696 19.9363C61.7888 20.2942 61.8933 20.6675 62.083 21.0563C62.3856 21.6694 62.4985 22.3624 62.4216 23.1353C62.3952 23.3977 62.5717 24.1897 62.9512 25.5113C63.0617 25.8906 63.2094 25.98 63.3944 25.7797C63.4289 25.7432 63.4538 25.6952 63.467 25.6399C63.4801 25.5845 63.4811 25.5232 63.47 25.4612C63.3187 24.6525 63.207 23.8378 63.135 23.0172C63.0413 21.9962 62.8732 21.2042 62.6306 20.6412C62.095 19.3984 61.3336 18.2915 60.3465 17.3206C59.9502 16.9318 59.6332 16.7206 59.3954 16.6872C58.783 16.6085 58.7265 16.7493 59.2261 17.1095ZM37.5382 29.2005C37.1227 29.6418 36.6171 29.9233 36.0214 30.045C34.5948 30.3336 33.1526 30.6998 31.6947 31.1435C29.999 31.6612 28.9831 32.7788 28.6468 34.4963C28.5532 34.9782 28.6504 35.3885 28.9386 35.7273C29.0035 35.8036 29.0792 35.8442 29.1656 35.8489C29.1881 35.8505 29.2106 35.8461 29.2316 35.8358C29.2526 35.8255 29.2715 35.8097 29.2872 35.7894C29.3029 35.769 29.3149 35.7447 29.3226 35.7179C29.3302 35.6912 29.3332 35.6627 29.3313 35.6342C29.2185 33.8952 29.951 32.7704 31.529 32.2599C33.1838 31.7232 34.8326 31.1709 36.4754 30.6032C36.9629 30.4338 37.3556 30.1642 37.6535 29.7945C39.2554 27.8002 40.3374 25.5626 40.8994 23.0816C41.2333 21.6026 41.5131 20.6544 41.7389 20.2369C42.3297 19.1443 43.1823 18.2557 44.2967 17.5711C44.5369 17.4232 44.7411 17.249 44.9092 17.0486C45.1253 16.791 45.0797 16.7314 44.7723 16.8697C43.1631 17.5949 41.979 18.7161 41.2201 20.2333C41.0592 20.5578 40.8898 21.0277 40.7121 21.6432C40.5728 22.1298 40.4299 22.6141 40.2834 23.0959C40.2762 23.1174 40.1069 23.7949 39.7754 25.1284C39.3911 26.6599 38.6454 28.0173 37.5382 29.2005ZM47.6004 20.6484C47.2041 21.2233 47.2617 21.2006 47.7733 20.5804C48.0231 20.2774 47.987 20.2751 47.6652 20.5733C47.6412 20.5971 47.6196 20.6222 47.6004 20.6484ZM42.9998 25.0783C43.031 25.0879 43.061 25.0771 43.0899 25.0461C43.1139 25.0199 43.1271 24.9817 43.1295 24.9316C43.1703 24.2994 43.2424 23.6721 43.3456 23.0494C43.4033 22.6868 43.336 22.5449 43.1439 22.6236C43.0961 22.6424 43.0527 22.6758 43.0176 22.7207C42.9824 22.7656 42.9565 22.8207 42.9421 22.8813L42.463 24.8386C42.4481 24.8989 42.4492 24.9602 42.4661 25.0137C42.4829 25.0671 42.5146 25.1098 42.5567 25.1356C42.6671 25.2047 42.78 25.188 42.8953 25.0855C42.9063 25.076 42.9219 25.0703 42.9404 25.069C42.9588 25.0678 42.9794 25.071 42.9998 25.0783ZM38.9432 25.5793C39.1329 25.3741 39.223 25.1558 39.2134 24.9244C39.2062 24.7956 39.1522 24.7765 39.0513 24.8672C36.8369 26.902 34.2465 28.2379 31.2804 28.8749C30.1491 29.1158 29.0623 29.4808 28.02 29.9698C27.9954 29.9809 27.973 29.9965 27.9545 30.0155C27.9359 30.0345 27.9216 30.0564 27.9127 30.0796C27.9037 30.1028 27.9003 30.1269 27.9027 30.15C27.905 30.173 27.9131 30.1946 27.9263 30.2131C28.0104 30.3324 28.1605 30.3587 28.3766 30.2919C29.5007 29.9412 30.6307 29.6132 31.7667 29.3078C31.7883 29.3007 32.2327 29.1945 33.0997 28.9894C35.3862 28.4479 37.334 27.3112 38.9432 25.5793ZM68.7371 31.2186C70.4568 31.9605 72.0491 32.904 73.5142 34.0491C73.5553 34.0812 73.588 34.1241 73.6093 34.1739C73.6306 34.2238 73.64 34.2791 73.6367 34.3353C73.6055 34.7933 73.7928 35.0689 74.1987 35.1619C74.2217 35.167 74.2457 35.1671 74.2688 35.1621C74.2919 35.1571 74.3138 35.1472 74.3329 35.1329C74.352 35.1187 74.3679 35.1005 74.3796 35.0796C74.3912 35.0587 74.3983 35.0355 74.4004 35.0116C74.4653 34.2936 74.2179 33.7413 73.6583 33.3549C72.3349 32.4412 70.7654 31.6349 68.9496 30.936C68.8728 30.9073 68.7995 30.8954 68.7299 30.9002C68.276 30.9169 68.2784 31.023 68.7371 31.2186Z" fill="#FD904A"/>
<path d="M37.4702 15.7032C38.2388 14.6083 39.2547 13.8473 40.5181 13.4203C40.5901 13.3964 40.6634 13.3809 40.7378 13.3738C41.235 13.3356 41.283 13.4095 40.8819 13.5956C38.6819 14.6262 37.2733 16.271 36.656 18.5301C36.3846 19.5248 36.2477 20.0258 36.2453 20.0329C35.4648 22.3684 34.486 24.3495 33.3092 25.9765C32.9705 26.4416 32.3725 26.8245 31.5151 27.1251C30.0884 27.6237 28.675 28.1556 27.2747 28.721C26.7824 28.919 26.7415 28.845 27.1522 28.4991C27.2003 28.4586 27.2543 28.4228 27.3144 28.3918C28.6041 27.7286 29.6717 27.2515 30.5171 26.9605C31.6051 26.586 32.4541 26.0027 33.0642 25.2107C34.2291 23.7031 35.1081 22.0523 35.7013 20.2584C35.7061 20.2464 35.843 19.7133 36.112 18.6589C36.381 17.5949 36.8338 16.6097 37.4702 15.7032Z" fill="#F5B486"/>
<path d="M58.812 14.1646C58.495 14.0715 58.4698 13.9952 58.7364 13.9356C58.7868 13.926 58.8408 13.9236 58.8985 13.9284C61.2882 14.2075 63.2061 15.3156 64.6519 17.2526C65.4781 18.3619 66.0329 19.5582 66.3163 20.8416C66.5901 22.0845 66.7294 22.7131 66.7342 22.7274C67.438 24.8553 68.7926 26.5073 70.798 27.6833C72.1983 28.5039 73.7018 29.3794 75.3086 30.3098C75.5233 30.4337 75.68 30.6369 75.7445 30.8751C75.8886 31.4071 75.7529 31.5002 75.3374 31.1543C74.1869 30.1977 72.944 29.3735 71.6086 28.6817C68.4215 27.0237 66.5841 24.4676 66.0966 21.0134C65.9981 20.3168 65.8204 19.7539 65.5634 19.3245C64.0287 16.7648 61.7782 15.0448 58.812 14.1646Z" fill="#F5B486"/>
<path d="M59.2263 17.1094C58.7267 16.7492 58.7832 16.6085 59.3956 16.6872C59.6334 16.7206 59.9504 16.9317 60.3467 17.3205C61.3338 18.2915 62.0952 19.3983 62.6308 20.6412C62.8734 21.2042 63.0415 21.9962 63.1352 23.0172C63.2072 23.8378 63.3189 24.6524 63.4702 25.4611C63.4813 25.5232 63.4803 25.5844 63.4671 25.6398C63.454 25.6952 63.4291 25.7431 63.3946 25.7796C63.2096 25.98 63.0619 25.8905 62.9514 25.5112C62.5719 24.1897 62.3954 23.3977 62.4218 23.1353C62.4987 22.3623 62.3858 21.6693 62.0832 21.0563C61.8935 20.6674 61.789 20.2941 61.7698 19.9363C61.7627 19.8099 61.7291 19.6962 61.6725 19.6071C61.0696 18.6839 60.2542 17.8513 59.2263 17.1094Z" fill="#FAA65C"/>
<path d="M37.5381 29.2004C38.6453 28.0172 39.3911 26.6598 39.7753 25.1283C40.1068 23.7948 40.2761 23.1173 40.2833 23.0958C40.4298 22.614 40.5727 22.1297 40.712 21.6431C40.8898 21.0276 41.0591 20.5577 41.22 20.2332C41.979 18.716 43.163 17.5948 44.7722 16.8696C45.0796 16.7313 45.1253 16.7909 44.9091 17.0485C44.741 17.2489 44.5368 17.4231 44.2967 17.571C43.1822 18.2556 42.3296 19.1442 41.7388 20.2368C41.513 20.6543 41.2332 21.6025 40.8994 23.0815C40.3374 25.5625 39.2554 27.8001 37.6534 29.7944C37.3556 30.1641 36.9629 30.4337 36.4753 30.6031C34.8325 31.1708 33.1837 31.7231 31.5289 32.2598C29.9509 32.7703 29.2184 33.8951 29.3313 35.6341C29.3331 35.6626 29.3301 35.6911 29.3225 35.7178C29.3149 35.7446 29.3028 35.7689 29.2871 35.7893C29.2715 35.8096 29.2525 35.8254 29.2315 35.8357C29.2106 35.846 29.1881 35.8504 29.1655 35.8488C29.0791 35.8441 29.0034 35.8035 28.9386 35.7272C28.6504 35.3884 28.5531 34.9781 28.6468 34.4962C28.983 32.7787 29.999 31.6611 31.6946 31.1434C33.1525 30.6997 34.5947 30.3335 36.0214 30.0449C36.617 29.9232 37.1226 29.6417 37.5381 29.2004Z" fill="#F6CDAA"/>
<path d="M73.8748 38.2535C73.7859 39.4487 73.5709 40.4327 73.2299 41.2056C72.9369 41.8688 72.8192 42.458 72.8768 42.9733C72.4829 42.9303 72.2956 42.9971 72.3148 43.1736L72.1491 42.9804V42.8301C73.093 41.1674 73.5758 39.3735 73.5974 37.4484C73.6094 36.3129 73.1939 35.4112 72.3508 34.7432C71.6567 34.1922 70.8786 33.795 70.0163 33.5516C69.6369 33.4443 68.789 33.2976 67.4729 33.1115C64.9342 32.7513 62.3799 32.6046 59.81 32.6714C57.6605 32.7286 55.8807 33.5397 54.4709 35.1046C54.0026 35.6247 53.5378 35.6211 53.0767 35.0939C51.8374 33.6697 50.239 32.8742 48.2816 32.7072C45.1449 32.4376 41.7235 32.9576 38.0176 34.2673C36.9368 34.3102 35.9701 34.6848 35.1175 35.3909L34.7248 34.8363C34.4462 34.2041 33.883 33.8785 33.0352 33.8594C35.9797 33.2081 38.845 32.3183 41.6311 31.19C43.0577 30.6127 44.2262 29.7551 45.1365 28.6172C45.3454 28.3596 45.9122 27.3326 46.8369 25.5363C47.4493 24.3459 48.1771 23.2247 49.0201 22.1727C50.1273 20.7939 51.4723 20.0114 53.0551 19.8254C53.7996 19.7371 54.573 19.953 55.3752 20.473C56.2902 21.067 57.1777 22.1178 58.0375 23.6255C59.505 26.1995 60.5234 27.8479 61.0926 28.5707C62.0965 29.8398 63.2902 30.7117 64.6736 31.1864C65.6487 31.5204 66.9325 31.8365 68.5248 32.1346C68.6906 32.1657 68.8034 32.2289 68.8635 32.3243C68.9067 32.3911 68.9367 32.4674 68.9535 32.5533C68.9655 32.6072 68.9896 32.6564 69.0233 32.6954C69.0569 32.7345 69.0988 32.7621 69.1445 32.7752C70.2517 33.0924 71.2773 33.5815 72.2212 34.2423C73.5806 35.1941 74.1317 36.5312 73.8748 38.2535ZM44.1745 30.9717C45.9374 30.6401 47.6295 30.2572 49.2507 29.8231C49.755 29.6871 50.0132 29.4187 50.0253 29.018C50.0271 28.9693 50.0084 28.9217 49.9734 28.8856C49.9384 28.8495 49.8897 28.8276 49.8379 28.8247C48.942 28.7651 48.087 28.8951 47.2728 29.2148C46.3049 29.5941 45.8077 29.7885 45.7813 29.798C45.0464 30.0461 44.4591 30.3014 44.0196 30.5638C43.2943 30.9908 43.3459 31.1268 44.1745 30.9717Z" fill="#FDB9A8"/>
<path d="M47.6651 20.5732C47.987 20.275 48.023 20.2774 47.7732 20.5803C47.2617 21.2006 47.204 21.2232 47.6003 20.6483C47.6195 20.6221 47.6411 20.597 47.6651 20.5732Z" fill="#E27136"/>
<path d="M42.8958 25.0855C42.7806 25.188 42.6677 25.2047 42.5572 25.1356C42.5152 25.1098 42.4834 25.067 42.4666 25.0136C42.4498 24.9602 42.4487 24.8989 42.4635 24.8386L42.9427 22.8812C42.957 22.8207 42.9829 22.7656 43.0181 22.7207C43.0533 22.6757 43.0966 22.6424 43.1444 22.6236C43.3366 22.5449 43.4038 22.6868 43.3462 23.0494C43.2429 23.672 43.1709 24.2994 43.13 24.9316C43.1276 24.9817 43.1144 25.0199 43.0904 25.0461C43.0616 25.0771 43.0316 25.0878 43.0003 25.0783C42.9799 25.071 42.9594 25.0678 42.9409 25.069C42.9225 25.0703 42.9069 25.076 42.8958 25.0855Z" fill="#E27136"/>
<path d="M38.9436 25.5793C37.3344 27.3112 35.3866 28.4479 33.1001 28.9894C32.2331 29.1945 31.7887 29.3007 31.7671 29.3078C30.6311 29.6132 29.5011 29.9412 28.377 30.2919C28.1609 30.3587 28.0108 30.3324 27.9267 30.2131C27.9135 30.1946 27.9054 30.1731 27.9031 30.15C27.9007 30.1269 27.9041 30.1029 27.9131 30.0796C27.922 30.0564 27.9363 30.0345 27.9548 30.0155C27.9734 29.9965 27.9958 29.9809 28.0204 29.9698C29.0627 29.4808 30.1495 29.1158 31.2808 28.8749C34.2469 28.2379 36.8372 26.902 39.0517 24.8672C39.1526 24.7765 39.2066 24.7956 39.2138 24.9245C39.2234 25.1558 39.1333 25.3741 38.9436 25.5793Z" fill="#F6C197"/>
<path d="M44.1745 30.9716C43.3459 31.1266 43.2942 30.9907 44.0196 30.5637C44.4591 30.3013 45.0463 30.046 45.7813 29.7979C45.8077 29.7884 46.3049 29.5939 47.2728 29.2146C48.087 28.895 48.942 28.765 49.8378 28.8246C49.8897 28.8275 49.9383 28.8493 49.9733 28.8855C50.0084 28.9216 50.027 28.9691 50.0252 29.0178C50.0132 29.4186 49.755 29.687 49.2506 29.823C47.6294 30.2571 45.9374 30.64 44.1745 30.9716Z" fill="#FB9684"/>
<path d="M68.7375 31.2187C68.2787 31.023 68.2763 30.9169 68.7303 30.9002C68.7999 30.8954 68.8732 30.9073 68.95 30.936C70.7657 31.6349 72.3353 32.4412 73.6587 33.3549C74.2183 33.7413 74.4657 34.2936 74.4008 35.0116C74.3987 35.0355 74.3916 35.0587 74.3799 35.0796C74.3683 35.1005 74.3524 35.1187 74.3333 35.1329C74.3142 35.1472 74.2923 35.1571 74.2692 35.1621C74.246 35.1671 74.2221 35.167 74.1991 35.1619C73.7932 35.0689 73.6058 34.7934 73.6371 34.3353C73.6404 34.2792 73.631 34.2238 73.6097 34.1739C73.5883 34.1241 73.5557 34.0812 73.5146 34.0491C72.0495 32.904 70.4571 31.9606 68.7375 31.2187Z" fill="#F6C197"/>
<path d="M85.0213 37.5344C84.6106 37.3984 84.3572 37.1193 84.2611 36.6971C83.7736 34.5215 84.1579 32.6608 85.414 31.115C85.916 30.4971 86.3122 30.558 86.6029 31.2975C87.3666 33.2464 87.1985 35.1548 86.0985 37.0227C85.8151 37.5094 85.456 37.6799 85.0213 37.5344Z" fill="#F7B093"/>
<path d="M72.1494 42.8302C71.8708 42.9447 71.6558 43.1188 71.5045 43.3526C71.2811 43.7009 71.1298 43.9132 71.0506 43.9895C70.7768 44.2519 70.503 44.5131 70.2292 44.7732C70.1848 44.815 70.1511 44.8647 70.131 44.9178C70.1109 44.9709 70.105 45.0257 70.1139 45.0773L70.2472 45.8538C69.9758 45.9015 69.8064 45.8061 69.7392 45.5675C69.6071 45.0857 69.3597 45.0284 68.9971 45.3958L67.6317 46.0363C65.0978 47.0621 62.4931 47.334 59.8175 46.8521C58.5902 46.1317 57.6379 45.1942 56.9606 44.0396C55.9519 42.3149 55.2926 40.4673 54.9827 38.4969C54.9299 38.1629 54.8567 37.9052 54.763 37.7239C54.4219 37.0727 54.0677 37.1598 53.7002 37.9852L53.4156 39.4022C52.7887 41.7686 51.5638 43.541 49.7409 44.7195C48.1774 45.731 46.2187 46.2355 43.865 46.2331C41.4728 46.2307 39.1623 45.6832 36.9335 44.5907L34.0658 42.8158L32.16 41.0124C32.0663 40.8907 31.9462 40.8013 31.7997 40.744C31.8694 40.4578 31.7793 40.2788 31.5295 40.2073L31.1332 39.5703L29.8867 37.4234L30.2686 36.3893C30.9123 35.5185 31.7157 34.9102 32.6788 34.5643C33.3176 34.3329 33.9997 34.4236 34.7251 34.8363L35.1178 35.3909C35.2859 35.7201 35.3627 36.0708 35.3483 36.4429C35.3459 36.5455 35.3651 36.5515 35.406 36.4608C35.9176 35.3849 36.7882 34.6538 38.0179 34.2673C41.7238 32.9577 45.1451 32.4376 48.2818 32.7072C50.2393 32.8742 51.8376 33.6698 53.077 35.0939C53.5381 35.6211 54.0028 35.6247 54.4712 35.1047C55.881 33.5398 57.6607 32.7287 59.8103 32.6714C62.3802 32.6046 64.9345 32.7513 67.4731 33.1116C68.7893 33.2976 69.6371 33.4443 70.0166 33.5517C70.8788 33.795 71.657 34.1922 72.3511 34.7432C73.1941 35.4112 73.6096 36.3129 73.5976 37.4484C73.576 39.3735 73.0933 41.1675 72.1494 42.8302ZM59.7058 34.3174C58.6226 34.3604 57.7508 34.7194 57.0903 35.3945C56.5883 35.9074 56.3109 36.6326 56.2581 37.5701C56.0924 40.5353 57.1564 43.0341 59.45 45.0666C60.4684 45.7202 61.6993 45.954 63.1427 45.7679C65.0257 45.527 66.6193 45.0916 67.9235 44.4619C70.1019 43.4122 71.2799 41.6791 71.4577 39.2626C71.6018 37.3423 70.826 36.0219 69.1303 35.3015C69.0895 35.2848 68.9454 35.2168 68.698 35.0975C68.2129 34.8709 68.0772 35.0581 68.2909 35.6593C68.3053 35.7523 68.2621 35.8251 68.1612 35.8776C67.9619 35.3265 67.6124 34.9484 67.1129 34.7432C66.5124 34.4975 65.8724 34.3711 65.1927 34.3639C63.3817 33.9823 61.5528 33.9668 59.7058 34.3174ZM35.388 39.0587C34.9556 39.5954 34.9761 40.113 35.4492 40.6116C35.5044 41.1722 35.7818 41.6457 36.2814 42.0322C38.1956 43.5232 40.2791 44.4619 42.532 44.8483C44.1244 45.1226 45.5498 45.0821 46.8083 44.7266C48.2998 44.302 49.5344 43.479 50.5119 42.2576C51.7896 40.6546 52.2099 38.844 51.7728 36.8258C51.5254 35.6879 50.8049 34.9782 49.6112 34.6967C45.8645 33.8189 42.2738 34.0825 38.8393 35.4875C37.1581 36.1769 36.0076 37.3673 35.388 39.0587ZM35.2943 37.248C35.0805 37.7418 34.9737 38.2583 34.9737 38.7974C34.9734 38.8177 34.9793 38.8372 34.9901 38.8518C35.0008 38.8665 35.0156 38.8752 35.0313 38.8762L35.0889 38.8833C35.1148 38.8866 35.1428 38.8747 35.1679 38.8498C35.1931 38.8248 35.2136 38.7885 35.2258 38.7473L35.5969 37.4162C35.6151 37.3498 35.6241 37.2857 35.6235 37.2278C35.6229 37.17 35.6126 37.1196 35.5933 37.0799C35.5141 36.92 35.4144 36.9761 35.2943 37.248Z" fill="#271822"/>
<path d="M33.0349 33.8594C33.8827 33.8785 34.4459 34.2041 34.7245 34.8362C33.9992 34.4236 33.3171 34.3329 32.6782 34.5643C31.7151 34.9102 30.9117 35.5185 30.268 36.3892C30.2032 36.3391 30.1576 36.2807 30.1311 36.2139C30.115 36.1716 30.1166 36.1201 30.1359 36.066C30.1551 36.0118 30.1911 35.9574 30.2392 35.9097C31.0534 35.113 31.9853 34.4295 33.0349 33.8594Z" fill="#F2C7BB"/>
<path d="M38.0173 34.2673C36.7876 34.6538 35.917 35.385 35.4054 36.4608C35.3646 36.5515 35.3453 36.5455 35.3477 36.4429C35.3622 36.0708 35.2853 35.7201 35.1172 35.3909C35.9698 34.6848 36.9365 34.3103 38.0173 34.2673Z" fill="#F9D6D5"/>
<path d="M65.1919 34.3638C65.7731 34.7574 66.412 35.0282 67.1085 35.1761C67.1609 35.1876 67.2083 35.2146 67.2439 35.2531C67.2794 35.2917 67.3014 35.3398 67.3066 35.3908L67.4507 36.6432L67.195 36.6575C65.0478 35.4123 62.8237 35.2405 60.5228 36.1422C59.4204 36.7672 58.7383 37.6797 58.4765 38.8796C58.3252 39.5833 58.2592 40.1213 58.2784 40.4934C58.3096 41.054 58.5462 41.5717 58.9881 42.0464C59.5597 42.6618 59.9332 42.5605 60.1086 41.7422C60.392 40.3944 61.0609 39.2696 62.1152 38.3679C61.9303 39.1527 62.0083 39.7933 62.3494 40.2894C62.6472 40.7236 63.0795 40.9562 63.6464 40.9872C64.4485 41.0325 64.798 40.5018 64.6947 39.3949C64.6275 38.6601 64.29 38.2152 63.6824 38.0602C63.9658 37.7954 64.2492 37.762 64.5326 37.96C64.6317 38.0287 64.7444 38.0583 64.846 38.0423C65.4945 37.9421 66.0973 38.0673 66.6546 38.418C66.3519 38.418 66.2883 38.5444 66.4636 38.7973C66.6918 39.1217 66.6846 39.4629 66.442 39.8207C66.3845 39.9059 66.3447 39.998 66.3254 40.0907C66.3061 40.1834 66.3078 40.2744 66.3303 40.3574L67.1553 43.5206C67.166 43.5586 67.1955 43.5922 67.2393 43.6162C67.283 43.6402 67.3384 43.6531 67.3967 43.653L68.02 43.6638C67.8566 43.8928 67.8963 44.0025 68.1388 43.993C68.2205 43.9906 68.3046 43.9608 68.391 43.9035C69.5007 43.1879 70.2656 42.3708 70.6859 41.4524C70.854 41.0826 70.9165 40.4934 70.8733 39.6847C71.2311 38.69 71.135 37.7453 70.585 36.8507C70.0542 35.9848 69.2893 35.5876 68.2902 35.6592C68.0764 35.058 68.2121 34.8707 68.6973 35.0974C68.9446 35.2166 69.0887 35.2846 69.1296 35.3013C70.8252 36.0217 71.601 37.3421 71.4569 39.2625C71.2792 41.679 70.1011 43.4121 67.9227 44.4617C66.6185 45.0915 65.025 45.5269 63.142 45.7678C61.6985 45.9539 60.4676 45.7201 59.4493 45.0665C59.6846 44.9543 59.7219 44.8231 59.5609 44.6728C58.1607 43.3584 57.2661 41.7518 56.877 39.8529C56.6104 38.5671 56.5239 37.6022 56.6176 36.9581C56.7977 35.72 57.6816 35.0222 59.2691 34.8648C59.6678 34.8242 59.8131 34.6417 59.7051 34.3173C61.552 33.9666 63.381 33.9821 65.1919 34.3638Z" fill="#F98D7D"/>
<path d="M35.4489 40.6114L36.699 41.8137C36.7384 41.8514 36.7901 41.8747 36.8461 41.8798C36.9021 41.885 36.9593 41.8718 37.0089 41.8424C37.4556 41.5728 37.3728 41.042 36.7603 40.25C36.6712 40.1348 36.5508 40.0476 36.4134 39.9987C36.276 39.9498 36.1275 39.9414 35.9857 39.9745C35.5942 40.0652 35.3949 39.7598 35.3877 39.0585C36.0074 37.3671 37.1578 36.1768 38.839 35.4873C42.2735 34.0823 45.8642 33.8187 49.6109 34.6965C50.8046 34.978 51.5251 35.6877 51.7725 36.8256C52.2096 38.8438 51.7893 40.6544 50.5116 42.2575C49.5341 43.4788 48.2996 44.3018 46.8081 44.7265C45.5495 45.0819 44.1241 45.1225 42.5317 44.8481C40.2789 44.4617 38.1954 43.523 36.2811 42.032C35.7816 41.6456 35.5042 41.172 35.4489 40.6114ZM43.1946 39.5129L44.3943 39.1479C44.2718 40.5363 44.7269 41.2281 45.7597 41.2233C46.4394 41.2233 46.9078 40.943 47.1647 40.3824C47.4361 39.7932 47.3521 39.1467 46.9126 38.443C47.5298 38.1138 48.1675 37.9337 48.8256 37.9027C48.877 37.8994 48.9294 37.9112 48.9775 37.937C49.0256 37.9628 49.0677 38.0016 49.0994 38.0494L49.6182 38.8223C49.6573 38.8807 49.7036 38.929 49.7524 38.9624C49.8012 38.9957 49.8506 39.0129 49.8955 39.0119C50.0493 39.0072 50.0973 38.8414 50.0397 38.5146C49.7755 37.0332 48.888 36.1791 47.3773 35.9525C46.2124 35.7784 45.116 35.9048 44.0881 36.3318C43.1706 36.7111 42.4765 37.0952 42.0058 37.484C41.3813 38.0041 40.9706 38.7269 40.7736 39.6525C40.6319 40.33 40.8649 40.5351 41.4725 40.2679L43.1946 39.5129Z" fill="#FB9684"/>
<path d="M59.7057 34.3174C59.8138 34.6418 59.6685 34.8243 59.2698 34.8649C57.6822 35.0223 56.7984 35.7201 56.6182 36.9582C56.5246 37.6022 56.611 38.5672 56.8776 39.853C57.2667 41.7519 58.1614 43.3585 59.5616 44.6729C59.7225 44.8232 59.6853 44.9544 59.4499 45.0665C57.1562 43.0341 56.0922 40.5352 56.258 37.57C56.3108 36.6325 56.5882 35.9073 57.0902 35.3944C57.7507 34.7193 58.6225 34.3603 59.7057 34.3174Z" fill="#FCBFAF"/>
<path d="M65.1924 34.3638C65.8721 34.3709 66.5122 34.4974 67.1126 34.7431C67.6122 34.9482 67.9616 35.3263 68.161 35.8774L68.741 38.8796C68.6377 40.4946 68.3975 42.0893 68.0205 43.6637L67.3972 43.653C67.3389 43.6531 67.2835 43.6402 67.2398 43.6162C67.196 43.5922 67.1665 43.5585 67.1558 43.5206L66.3308 40.3574C66.3083 40.2744 66.3066 40.1833 66.3259 40.0907C66.3452 39.998 66.385 39.9058 66.4425 39.8206C66.6851 39.4628 66.6923 39.1217 66.4641 38.7973C66.2888 38.5444 66.3524 38.418 66.6551 38.418L67.8115 39.5559C67.9316 39.6751 68.0049 39.6596 68.0313 39.5093C68.2426 38.3261 68.0493 37.3707 67.4512 36.6431L67.3071 35.3907C67.3019 35.3398 67.2799 35.2916 67.2444 35.2531C67.2088 35.2146 67.1614 35.1876 67.109 35.176C66.4125 35.0281 65.7736 34.7574 65.1924 34.3638Z" fill="#F2C7BB"/>
<path d="M67.1955 36.6576C67.1235 36.9701 66.9806 37.0774 66.7668 36.9796C64.6965 36.0183 62.6154 35.7392 60.5234 36.1423C62.8243 35.2406 65.0484 35.4123 67.1955 36.6576Z" fill="#CF4945"/>
<path d="M70.8739 39.6849C70.5329 39.4606 70.2615 39.1684 70.0597 38.8082C69.5794 37.959 69.1398 37.9828 68.7412 38.8798L68.1611 35.8776C68.262 35.8251 68.3052 35.7524 68.2908 35.6593C69.29 35.5878 70.0549 35.9849 70.5857 36.8509C71.1357 37.7455 71.2318 38.6901 70.8739 39.6849Z" fill="#F5988B"/>
<path d="M46.9125 38.4431C46.1536 38.0829 45.379 38.0841 44.5888 38.4467C43.8875 38.5039 43.4228 38.8594 43.1946 39.513L41.4725 40.268C40.8649 40.5352 40.6319 40.3301 40.7736 39.6526C40.9705 38.727 41.3813 38.0042 42.0057 37.4841C42.4765 37.0953 43.1706 36.7112 44.088 36.3319C45.116 35.9049 46.2124 35.7785 47.3773 35.9526C48.888 36.1792 49.7754 37.0333 50.0396 38.5147C50.0973 38.8415 50.0492 39.0073 49.8955 39.012C49.8506 39.013 49.8012 38.9958 49.7524 38.9625C49.7036 38.9291 49.6572 38.8808 49.6181 38.8224L49.0993 38.0495C49.0676 38.0017 49.0256 37.9629 48.9775 37.9371C48.9294 37.9113 48.8769 37.8995 48.8255 37.9028C48.1674 37.9338 47.5298 38.1139 46.9125 38.4431Z" fill="#E86E5F"/>
<path d="M67.1952 36.6576L67.451 36.6433C68.049 37.3708 68.2424 38.3262 68.031 39.5095C68.0046 39.6597 67.9313 39.6753 67.8112 39.556L66.6548 38.4181C66.0976 38.0674 65.4947 37.9422 64.8463 38.0424C64.7446 38.0584 64.632 38.0288 64.5328 37.9601C64.2494 37.7621 63.966 37.7955 63.6826 38.0602C63.111 37.9004 62.5886 38.003 62.1155 38.368C61.0611 39.2697 60.3922 40.3945 60.1088 41.7423C59.9335 42.5605 59.56 42.6619 58.9883 42.0465C58.5464 41.5717 58.3099 41.0541 58.2786 40.4935C58.2594 40.1213 58.3255 39.5834 58.4768 38.8797C58.7386 37.6798 59.4207 36.7673 60.5231 36.1423C62.615 35.7391 64.6962 36.0182 66.7665 36.9796C66.9802 37.0774 67.1231 36.9701 67.1952 36.6576Z" fill="#E97066"/>
<path d="M35.2943 37.2479C35.4144 36.9759 35.514 36.9199 35.5933 37.0797C35.6126 37.1195 35.6229 37.1698 35.6235 37.2277C35.6241 37.2855 35.6151 37.3496 35.5969 37.4161L35.2258 38.7472C35.2136 38.7883 35.1931 38.8247 35.1679 38.8496C35.1428 38.8746 35.1148 38.8865 35.0889 38.8832L35.0313 38.876C35.0155 38.8751 35.0008 38.8663 34.99 38.8517C34.9793 38.837 34.9734 38.8175 34.9736 38.7973C34.9736 38.2582 35.0805 37.7417 35.2943 37.2479Z" fill="#959E74"/>
<path d="M59.8175 46.852C59.0129 46.7947 58.3248 46.4632 57.7532 45.8572C56.3698 44.1444 55.4643 42.3553 55.0368 40.4898C54.7606 39.2923 54.5612 38.4907 54.4388 38.0852C54.427 38.0449 54.3976 38.0101 54.3556 37.9867C54.3136 37.9632 54.2616 37.9525 54.2082 37.9564L53.7002 37.985C54.0677 37.1596 54.4219 37.0726 54.763 37.7238C54.8566 37.9051 54.9299 38.1627 54.9827 38.4967C55.2926 40.4671 55.9519 42.3147 56.9606 44.0395C57.6379 45.1941 58.5902 46.1316 59.8175 46.852Z" fill="#FDB9A8"/>
<path d="M57.7526 45.8574C57.8031 46.4252 57.9736 46.9619 58.2642 47.4676C58.5908 49.5931 57.6553 50.7072 55.4577 50.8098C56.7763 50.4973 57.5833 49.7387 57.8787 48.534C57.9067 48.4276 57.8953 48.309 57.8463 48.1976C57.3659 47.0836 56.8772 45.9731 56.38 44.8662C56.1687 44.3963 56.0282 44.3784 55.9585 44.8126C55.9417 44.9032 55.9477 45.001 55.9765 45.106C56.2599 46.1127 56.3368 47.1981 56.2071 48.3622C56.099 49.3188 55.6271 49.8699 54.7913 50.0154C54.957 46.8593 54.8285 43.7498 54.4058 40.6868C54.3914 40.5723 54.3469 40.4673 54.2725 40.3719C54.0131 40.0308 53.8774 39.8018 53.8654 39.6849C53.839 39.4439 53.6888 39.3497 53.415 39.4022L53.6996 37.9852L54.2076 37.9566C54.261 37.9527 54.3131 37.9634 54.3551 37.9869C54.397 38.0103 54.4264 38.0451 54.4382 38.0854C54.5607 38.4909 54.76 39.2925 55.0362 40.49C55.4637 42.3555 56.3692 44.1446 57.7526 45.8574Z" fill="#F77E6B"/>
<path d="M63.6823 38.0603C64.2899 38.2154 64.6274 38.6603 64.6946 39.395C64.7979 40.5019 64.4484 41.0327 63.6462 40.9874C63.0794 40.9563 62.6471 40.7238 62.3493 40.2896C62.0082 39.7934 61.9302 39.1529 62.1151 38.3681C62.5883 38.0031 63.1106 37.9005 63.6823 38.0603Z" fill="#744B46"/>
<path d="M46.9127 38.4431C47.3523 39.1468 47.4363 39.7933 47.1649 40.3825C46.9079 40.9431 46.4396 41.2234 45.7599 41.2234C44.7271 41.2282 44.272 40.5364 44.3945 39.148L44.589 38.4467C45.3792 38.0841 46.1538 38.0829 46.9127 38.4431Z" fill="#5A403E"/>
<path d="M70.8738 39.6849C70.917 40.4936 70.8545 41.0828 70.6864 41.4526C70.2661 42.371 69.5011 43.1881 68.3915 43.9037C68.3051 43.961 68.221 43.9908 68.1393 43.9932C67.8968 44.0027 67.8571 43.893 68.0204 43.664C68.3975 42.0895 68.6377 40.4948 68.741 38.8798C69.1397 37.9829 69.5792 37.959 70.0596 38.8082C70.2613 39.1685 70.5327 39.4607 70.8738 39.6849Z" fill="#BF4633"/>
<path d="M73.8744 38.2534C74.6814 38.3632 74.8892 38.758 74.4977 39.4378C74.3176 40.0581 74.2251 40.7666 74.2203 41.5633C74.2131 42.768 74.2323 43.6936 74.2779 44.3401C74.3404 45.2299 74.6034 46.0195 75.0669 46.7089C75.408 47.217 76.0096 47.7514 76.8718 48.312C78.3826 49.2972 79.9833 50.1262 81.6742 50.7989C84.955 52.1014 86.5534 54.5394 86.4693 58.1129C86.4501 58.8691 86.4177 59.6241 86.372 60.3779C86.3072 61.4156 86.3168 62.1695 86.4008 62.6394C86.6674 64.1137 87.4 65.3601 88.5985 66.3787C89.1316 66.8319 89.672 67.2745 90.2196 67.7062C92.9144 69.8246 94.3207 72.6276 94.4383 76.1152C94.5152 77.0479 94.1177 77.9103 93.2459 78.7023C93.402 75.6703 92.6634 72.9615 91.0302 70.576C90.6436 70.0083 89.9639 69.3117 88.9911 68.4863C88.1649 67.785 87.3856 67.0359 86.653 66.2392C85.9901 65.5187 85.5422 64.8639 85.3093 64.2747C85.009 63.5185 84.8769 62.7169 84.913 61.8701C84.9778 60.3791 85.009 58.8882 85.0066 57.3972C85.0042 55.7798 84.5683 54.5203 83.6989 53.6186C82.9087 52.7979 81.6826 52.0417 80.0206 51.3499C78.5939 50.7559 77.3438 50.125 76.2702 49.457C73.9213 47.9995 72.7901 45.8382 72.8765 42.9732C72.8189 42.4579 72.9366 41.8687 73.2296 41.2055C73.5706 40.4326 73.7856 39.4486 73.8744 38.2534Z" fill="#F07239"/>
<path d="M44.5886 38.4468L44.394 39.1481L43.1943 39.5131C43.4225 38.8595 43.8872 38.504 44.5886 38.4468Z" fill="#9F4035"/>
<path d="M35.3877 39.0586C35.395 39.7599 35.5943 40.0653 35.9858 39.9746C36.1275 39.9415 36.276 39.9499 36.4134 39.9988C36.5508 40.0477 36.6713 40.1349 36.7604 40.2502C37.3728 41.0421 37.4557 41.5729 37.0089 41.8425C36.9594 41.872 36.9022 41.8851 36.8462 41.88C36.7902 41.8748 36.7385 41.8516 36.6991 41.8139L35.449 40.6116C34.9758 40.113 34.9554 39.5953 35.3877 39.0586Z" fill="#E97066"/>
<path d="M90.1798 51.9332C89.5794 51.4299 89.2876 50.7094 89.3044 49.7719C89.3765 45.7833 90.7659 42.5331 93.4727 40.0211C95.1131 38.4968 95.9945 38.8916 96.117 41.2055C96.2707 44.0968 95.6883 46.8246 94.3697 49.389C93.7573 50.5794 92.8566 51.4823 91.6677 52.0978C91.1345 52.3745 90.6386 52.3196 90.1798 51.9332Z" fill="#FAA575"/>
<path d="M31.133 39.5703L31.5293 40.2072C30.0498 41.3714 29.1719 42.1145 28.8957 42.4365C27.4499 44.1088 26.6285 46.053 26.4315 48.2691C26.2538 50.3016 26.0845 51.5182 25.9236 51.919C25.424 53.1666 24.671 54.2389 23.6647 55.1358C23.1123 55.6296 22.5575 56.1175 22.0003 56.5994C19.4616 58.7916 18.6354 61.535 19.5216 64.8294C20.1125 67.0241 19.5445 68.8931 17.8176 70.4366C16.1988 71.8798 15.2753 73.7357 15.0472 76.0044C14.8646 77.815 14.9295 80.5583 15.2417 84.2344C15.04 84.6519 14.7049 84.8857 14.2366 84.9358C13.9532 82.388 13.8187 79.8355 13.8331 77.2782C13.8451 75.5678 14.0036 74.257 14.3086 73.3457C14.7794 71.9526 15.5587 70.8337 16.6467 69.9893C18.0013 68.9373 18.5814 67.5465 18.3868 65.817C18.2811 64.8867 18.1875 63.9563 18.1058 63.0259C17.8752 60.4162 18.7087 58.2322 20.606 56.4741C21.5379 55.6129 22.4722 54.753 23.4089 53.8942C24.2111 53.1571 24.7563 52.2672 25.0445 51.2248C25.2054 50.6427 25.3687 49.5704 25.5345 48.0079C25.938 44.2316 27.8041 41.4191 31.133 39.5703Z" fill="#F07239"/>
<path d="M53.4152 39.4023C53.689 39.3498 53.8391 39.444 53.8655 39.685C53.8775 39.8018 54.0132 40.0309 54.2726 40.372C54.3471 40.4674 54.3915 40.5724 54.4059 40.6869C54.8286 43.7499 54.9571 46.8594 54.7914 50.0154C54.0228 50.3566 53.2158 50.5224 52.3704 50.5128C52.2744 50.5104 52.1891 50.5164 52.1146 50.5307C51.6511 50.619 51.6631 50.7347 52.1507 50.8778C53.3059 51.2166 54.4083 51.1939 55.4579 50.8098C57.6555 50.7073 58.591 49.5932 58.2644 47.4677C58.5262 47.2053 58.7915 47.1612 59.0605 47.3353C59.1758 47.4093 59.2815 47.4582 59.3776 47.482C59.7378 47.5679 59.9792 47.7349 60.1017 47.983C60.5797 48.9348 60.8799 49.5014 61.0024 49.6827C61.7421 50.7705 62.8193 51.1855 64.234 50.9279C65.2379 50.7442 66.0377 50.2695 66.6333 49.5038C67.1641 48.8191 67.6132 48.0283 67.9807 47.1314C68.0744 46.9023 68.0912 46.7055 68.0311 46.5409C67.9567 46.3429 67.8234 46.1748 67.6313 46.0364L68.9966 45.3959C68.3962 49.5228 67.2482 53.4267 65.5525 57.1076C64.599 59.1758 63.2636 60.9709 61.5464 62.4929C57.8188 65.8064 53.6446 66.7845 49.0236 65.4271C47.0133 64.8355 44.8745 63.6845 42.6073 61.9741C39.3889 59.1782 37.0772 55.7729 35.6722 51.7581C35.6627 51.7328 35.6485 51.7109 35.6317 51.6955C35.6149 51.68 35.5963 51.6719 35.5785 51.6722H35.5064L35.3876 51.1354C34.9721 49.5038 34.5037 48.1249 33.9825 46.999C33.4157 45.7704 33.2356 44.5013 33.4421 43.1917C34.0402 44.3176 34.631 45.4353 35.2146 46.5445C35.8199 47.6896 36.5056 48.7845 37.2717 49.8294C38.134 51.0031 39.222 51.5875 40.5357 51.5827C43.5692 51.5732 44.9202 50.0596 44.5887 47.0419C44.5829 46.9913 44.5592 46.9444 44.5217 46.9091C44.4842 46.8738 44.4353 46.8524 44.3834 46.8487C42.3058 46.6721 40.2727 46.2773 38.2841 45.6643C37.6812 45.5259 37.2081 45.3148 36.8646 45.0309C36.6413 44.8424 36.6641 44.6957 36.9331 44.5908C39.1619 45.6833 41.4724 46.2308 43.8646 46.2332C46.2183 46.2356 48.1769 45.7311 49.7405 44.7196C51.5634 43.5411 52.7883 41.7687 53.4152 39.4023ZM60.1666 52.7743C57.246 53.5067 54.275 53.8299 51.2536 53.744C50.0239 53.4005 48.6681 53.2061 47.1862 53.1607C46.9244 53.1536 46.8584 53.2633 46.9881 53.49C48.1121 55.4389 49.5832 56.9633 51.4013 58.063C52.8472 58.9385 54.2786 59.1854 55.6957 58.8037C56.8413 58.4912 57.8849 57.7767 58.8264 56.6603C59.6718 55.6584 60.2818 54.5062 60.6565 53.2037C60.6997 53.0582 60.7118 52.9306 60.6926 52.8208C60.6397 52.4773 60.4644 52.4618 60.1666 52.7743Z" fill="#FEB9A6"/>
<path d="M31.5294 40.2073C31.7792 40.2788 31.8693 40.4578 31.7996 40.744L30.989 41.5491C29.8674 42.3053 29.0352 43.3025 28.4924 44.5406C27.7815 46.1532 27.4572 47.8445 27.5197 49.6146C27.6085 52.1074 26.7499 54.1912 24.9438 55.8658C24.0287 56.7175 23.1533 57.6073 22.3174 58.5352C21.412 59.5443 20.9088 60.6929 20.8079 61.9811C20.7719 62.4272 20.862 63.1178 21.0781 64.0529C21.2391 64.7376 21.3567 65.4294 21.4312 66.1283C21.5513 67.2257 21.4456 68.1847 21.1142 69.0053C20.7251 69.9571 20.1511 70.7765 19.3921 71.4636C18.5707 72.2078 17.9342 73.0332 17.4827 73.9397C17.1128 74.6816 16.8727 75.6692 16.7622 76.9025C16.5772 78.9875 16.6108 81.0736 16.863 83.1609C16.4427 83.7025 15.9023 84.0603 15.2418 84.2344C14.9296 80.5583 14.8648 77.815 15.0473 76.0044C15.2755 73.7358 16.199 71.8798 17.8177 70.4366C19.5446 68.8932 20.1126 67.0241 19.5218 64.8294C18.6355 61.535 19.4617 58.7917 22.0004 56.5994C22.5576 56.1175 23.1124 55.6297 23.6648 55.1359C24.6712 54.2389 25.4241 53.1666 25.9237 51.919C26.0846 51.5182 26.2539 50.3016 26.4317 48.2691C26.6286 46.053 27.45 44.1088 28.8959 42.4365C29.1721 42.1145 30.0499 41.3714 31.5294 40.2073Z" fill="#FAF3F0"/>
<path d="M31.7989 40.7439C31.9454 40.8011 32.0655 40.8906 32.1591 41.0123C31.9766 41.0624 31.8865 41.1816 31.8889 41.3701C31.6079 41.5776 31.3077 41.6373 30.9883 41.549L31.7989 40.7439Z" fill="#AE4035"/>
<path d="M32.1595 41.0125L34.0653 42.8159C34.0749 42.9543 34.0101 43.0187 33.8708 43.0091C33.6138 42.9495 33.388 42.8362 33.1935 42.6692C33.1767 42.6551 33.1567 42.6447 33.1355 42.6391C33.1143 42.6335 33.0926 42.6328 33.0723 42.6371C33.0521 42.6414 33.0341 42.6506 33.02 42.6637C33.0058 42.6768 32.9961 42.6935 32.9917 42.7121L32.8801 43.2489C32.4213 45.4054 31.935 47.5559 31.421 49.7005C31.2313 50.4925 31.2072 51.3883 31.3489 52.3878C31.7092 54.9475 31.9686 56.5529 32.1271 57.2042C32.3961 58.3134 32.3649 59.375 32.0334 60.3888C31.9062 60.7777 31.5555 61.4206 30.9815 62.3175C30.4122 63.2073 30.0844 63.8634 29.9979 64.2856C29.7794 65.3615 29.7566 66.1892 29.9295 66.7689C30.4243 68.4149 30.6873 69.4956 30.7185 70.0108C30.7713 70.9149 30.5732 71.757 30.124 72.5371C29.9559 72.8234 29.6209 73.4197 29.1189 74.3262C28.3167 75.7743 28.2194 77.3427 28.8271 79.0317C28.4764 79.1486 28.1162 79.1784 27.7463 79.1211C27.2779 77.2461 27.5109 75.4773 28.4452 73.8146C28.7863 73.2086 29.1273 72.6027 29.4684 71.9968C29.8959 71.2406 30.076 70.4569 30.0088 69.6458C30.0088 69.6411 29.8154 68.9576 29.4287 67.5955C29.0613 66.3025 29.0997 65.0263 29.544 63.7667C29.6689 63.4161 30.0112 62.8758 30.5708 62.1458C31.6372 60.755 32.0166 59.1722 31.7092 57.3974C31.3489 55.3101 31.1184 53.6521 31.0175 52.4236C31.0127 52.3806 31.0007 52.3437 30.9815 52.3127C30.9166 52.2148 30.8782 52.2709 30.8662 52.4808C30.8061 53.5734 30.5167 54.5908 29.9979 55.5331L29.8178 55.415C30.0292 54.8711 30.1793 54.1006 30.2681 53.1035C30.4002 51.6388 30.9286 49.0874 31.8533 45.4495C31.9878 44.9152 32.0839 44.3462 32.1415 43.7427C32.1968 43.163 32.2628 42.5857 32.3397 42.0108C32.3709 41.7794 32.2208 41.5659 31.8893 41.3703C31.8869 41.1818 31.977 41.0625 32.1595 41.0125Z" fill="#F6F3F1"/>
<path d="M31.8894 41.3701C32.2209 41.5657 32.371 41.7792 32.3397 42.0106C32.2629 42.5855 32.1968 43.1628 32.1416 43.7425C32.084 44.3461 31.9879 44.915 31.8534 45.4494C30.9287 49.0873 30.4003 51.6386 30.2682 53.1033C30.1794 54.1004 30.0292 54.871 29.8179 55.4149C29.0757 56.4025 28.288 57.235 27.4546 57.9125C25.622 59.3987 24.8523 61.251 25.1453 63.4696C25.1477 63.4767 25.3122 64.1149 25.6388 65.384C26.0735 67.0705 25.9258 68.7058 25.1957 70.2898C25.1933 70.2946 24.9339 70.7347 24.4175 71.6102C23.6249 72.9508 23.3884 74.4143 23.7078 76.0007C23.9792 77.3485 23.8867 78.75 23.4304 80.2052L16.8628 83.1609C16.6106 81.0735 16.577 78.9874 16.7619 76.9024C16.8724 75.6691 17.1126 74.6815 17.4824 73.9396C17.934 73.0331 18.5704 72.2077 19.3918 71.4635C20.1508 70.7764 20.7248 69.957 21.1139 69.0052C21.4453 68.1846 21.551 67.2256 21.4309 66.1283C21.3565 65.4293 21.2388 64.7375 21.0779 64.0528C20.8617 63.1177 20.7716 62.4271 20.8077 61.981C20.9085 60.6928 21.4117 59.5442 22.3172 58.5351C23.153 57.6072 24.0284 56.7174 24.9435 55.8657C26.7496 54.1911 27.6083 52.1073 27.5194 49.6145C27.457 47.8444 27.7812 46.1531 28.4921 44.5405C29.0349 43.3024 29.8671 42.3052 30.9887 41.549C31.3082 41.6373 31.6084 41.5777 31.8894 41.3701Z" fill="#D15931"/>
<path d="M33.8706 43.0091L35.0991 44.1184C35.1332 44.15 35.1617 44.1936 35.1827 44.2465C35.2038 44.2994 35.217 44.3605 35.2216 44.4261C35.2504 44.8125 35.4534 45.1179 35.8305 45.3421C36.635 45.8216 37.4528 45.929 38.2839 45.6642C40.2725 46.2772 42.3056 46.672 44.3831 46.8486C44.4351 46.8523 44.484 46.8737 44.5215 46.909C44.559 46.9443 44.5827 46.9912 44.5885 47.0418C44.9199 50.0595 43.5689 51.5731 40.5355 51.5826C39.2217 51.5874 38.1337 51.003 37.2715 49.8293C36.5053 48.7844 35.8196 47.6895 35.2144 46.5444C34.6308 45.4352 34.0399 44.3175 33.4419 43.1916C33.2305 43.0461 33.0432 43.0651 32.8799 43.2488L32.9916 42.7121C32.996 42.6935 33.0057 42.6768 33.0198 42.6637C33.0339 42.6505 33.0519 42.6414 33.0722 42.6371C33.0924 42.6328 33.1141 42.6334 33.1353 42.6391C33.1566 42.6447 33.1765 42.655 33.1933 42.6691C33.3879 42.8361 33.6136 42.9494 33.8706 43.0091Z" fill="#FB887C"/>
<path d="M34.0656 42.8159L36.9333 44.5907C36.6643 44.6957 36.6415 44.8424 36.8649 45.0309C37.2083 45.3148 37.6815 45.5259 38.2843 45.6642C37.4533 45.929 36.6355 45.8217 35.8309 45.3422C35.4539 45.1179 35.2509 44.8126 35.2221 44.4261C35.2175 44.3605 35.2043 44.2994 35.1832 44.2465C35.1622 44.1936 35.1337 44.15 35.0996 44.1184L33.8711 43.0091C34.0104 43.0187 34.0752 42.9543 34.0656 42.8159Z" fill="#F5988B"/>
<path d="M72.1486 42.8301V42.9804C71.8436 43.2285 71.6887 43.5612 71.6839 43.9787C71.1315 44.1743 70.836 44.5321 70.7976 45.0522C70.5791 48.0412 70.9441 51.0828 71.8928 54.1768C71.5926 54.3414 71.5326 54.5501 71.7127 54.803C72.0129 56.4037 71.822 57.94 71.1399 59.4118C70.6787 60.4066 70.2668 61.4216 69.9042 62.4569C69.616 63.2871 69.5583 64.134 69.7312 64.9975C69.9882 66.2666 70.0363 67.5333 69.8753 68.7976C69.7481 69.7948 69.6988 70.4293 69.7276 70.7013C69.7877 71.2857 69.9414 71.9131 70.1888 72.5835C70.746 74.0864 70.7388 75.6787 70.1672 77.3605L68.9134 77.2531C69.3578 75.6668 69.4082 74.2438 69.0647 72.9842C68.6853 71.603 68.576 70.3089 68.7369 69.1018C68.881 68.0307 68.9531 67.4391 68.9531 67.327C68.9531 66.7831 68.9074 66.1867 68.8162 65.5378C68.576 63.8131 68.8402 62.1516 69.6088 60.5533C70.0459 59.642 70.2656 59.184 70.268 59.1792C70.979 57.3758 71.1579 55.4996 70.8048 53.5506C70.3461 51.0076 70.1599 48.442 70.2464 45.8537L70.1131 45.0772C70.1042 45.0256 70.1101 44.9708 70.1302 44.9177C70.1503 44.8646 70.1841 44.8149 70.2284 44.7731C70.5022 44.5131 70.776 44.2518 71.0498 43.9894C71.1291 43.9131 71.2804 43.7008 71.5037 43.3525C71.6551 43.1187 71.87 42.9446 72.1486 42.8301Z" fill="#F6F3F1"/>
<path d="M72.1493 42.9805L72.315 43.1737L72.2934 46.158C71.9284 45.4996 71.7254 44.7732 71.6846 43.9788C71.6894 43.5613 71.8443 43.2286 72.1493 42.9805Z" fill="#DC2C21"/>
<path d="M72.8766 42.9733C72.7901 45.8383 73.9214 47.9996 76.2703 49.4571C77.3439 50.1251 78.594 50.756 80.0206 51.35C81.6826 52.0418 82.9088 52.7981 83.6989 53.6187C84.5684 54.5204 85.0043 55.78 85.0067 57.3973C85.0091 58.8883 84.9779 60.3792 84.913 61.8702C84.877 62.7171 85.0091 63.5186 85.3093 64.2748C85.5423 64.864 85.9902 65.5189 86.6531 66.2393C87.3857 67.036 88.165 67.7851 88.9912 68.4864C89.9639 69.3118 90.6436 70.0084 91.0303 70.5762C92.6635 72.9617 93.4021 75.6704 93.246 78.7024C93.0202 79.3227 92.5494 79.5374 91.8337 79.3465C91.5479 77.1017 90.9451 74.8951 90.0252 72.7267C89.492 71.4743 88.6069 70.4199 87.37 69.5635C86.294 68.8168 85.2505 67.8256 84.2393 66.5899C83.1946 65.3089 82.8223 63.7536 83.1225 61.9239C83.4948 59.6719 83.5596 58.0438 83.3171 57.0395C83.0048 55.7442 82.3371 54.7673 81.314 54.1089C80.4013 53.5221 78.8065 52.6335 76.5297 51.4431C74.3248 50.2933 72.9126 48.5316 72.293 46.158L72.3146 43.1737C72.2954 42.9971 72.4827 42.9304 72.8766 42.9733Z" fill="#FAEFE9"/>
<path d="M33.4424 43.1915C33.2359 44.5011 33.416 45.7702 33.9828 46.9987C34.504 48.1247 34.9723 49.5035 35.3878 51.1352C34.9027 51.8342 34.6673 52.5499 34.6817 53.2822C34.7081 54.5251 34.8402 56.1091 35.078 58.0342C35.078 58.0461 35.1213 58.3371 35.2077 58.9073C35.4167 60.2813 35.311 61.6351 34.8907 62.9686C34.4752 64.295 34.4403 65.6893 34.7862 67.1516C34.9375 67.7933 34.8847 68.4171 34.6277 69.0231C34.301 69.7912 33.9708 70.6094 33.6369 71.4778C33.2262 72.5512 33.0113 73.4005 32.9921 74.0255C32.9488 75.4592 33.452 76.7402 34.5016 77.8686L28.8274 79.0315C28.2198 77.3426 28.317 75.7741 29.1192 74.3261C29.6212 73.4196 29.9562 72.8232 30.1244 72.5369C30.5735 71.7569 30.7716 70.9148 30.7188 70.0107C30.6876 69.4954 30.4246 68.4148 29.9298 66.7687C29.7569 66.1891 29.7797 65.3613 29.9983 64.2854C30.0847 63.8632 30.4126 63.2072 30.9818 62.3174C31.5558 61.4204 31.9065 60.7775 32.0338 60.3887C32.3652 59.3748 32.3964 58.3133 32.1274 57.204C31.9689 56.5528 31.7095 54.9473 31.3493 52.3876C31.2076 51.3881 31.2316 50.4923 31.4213 49.7003C31.9353 47.5558 32.4217 45.4052 32.8804 43.2487C33.0437 43.065 33.2311 43.0459 33.4424 43.1915Z" fill="#D05735"/>
<path d="M71.684 43.9788C71.7248 44.7731 71.9278 45.4995 72.2928 46.1579C72.9125 48.5315 74.3247 50.2932 76.5295 51.443C78.8064 52.6334 80.4012 53.522 81.3138 54.1089C82.337 54.7673 83.0047 55.7441 83.3169 57.0395C83.5595 58.0438 83.4947 59.6719 83.1224 61.9238C82.8222 63.7535 83.1944 65.3089 84.2392 66.5899C85.2503 67.8256 86.2939 68.8168 87.3699 69.5635C88.6068 70.4199 89.4918 71.4743 90.025 72.7267C90.9449 74.8951 91.5478 77.1017 91.8336 79.3465C92.0738 80.1504 91.9861 80.8458 91.5706 81.4326C90.9797 82.2652 90.4357 82.9987 89.9386 83.6333C87.5824 82.023 85.1651 80.6084 82.6864 79.3894C83.1452 77.6003 83.3734 75.7921 83.371 73.9647C83.371 72.7076 83.174 71.714 82.7801 70.984C82.3094 70.1133 81.5948 69.3345 80.6365 68.6474C78.7728 67.3091 78.0727 65.4771 78.5362 63.1512C78.7163 62.2542 78.8076 61.7986 78.81 61.7843C78.9277 60.8826 78.9289 60.1657 78.8136 59.6337C78.6215 58.7487 78.0138 58.039 76.9907 57.5047C76.0348 57.0061 75.0609 56.5409 74.0689 56.1091C73.1298 55.6964 72.4045 55.0523 71.8929 54.1769C70.9442 51.0828 70.5792 48.0413 70.7977 45.0522C70.8361 44.5322 71.1316 44.1744 71.684 43.9788Z" fill="#CC5834"/>
<path d="M55.4575 50.8097C54.4079 51.1938 53.3055 51.2164 52.1503 50.8777C51.6627 50.7346 51.6507 50.6188 52.1143 50.5306C52.1887 50.5163 52.274 50.5103 52.37 50.5127C53.2155 50.5222 54.0225 50.3564 54.791 50.0153C55.6268 49.8698 56.0988 49.3187 56.2069 48.3621C56.3366 47.198 56.2597 46.1126 55.9763 45.1059C55.9475 45.0009 55.9415 44.9031 55.9583 44.8125C56.0279 44.3783 56.1684 44.3962 56.3798 44.8662C56.877 45.9731 57.3657 47.0835 57.8461 48.1975C57.8951 48.3089 57.9065 48.4275 57.8785 48.5339C57.5831 49.7386 56.7761 50.4972 55.4575 50.8097Z" fill="#FB9684"/>
<path d="M70.2473 45.8536C70.1608 48.4419 70.3469 51.0075 70.8057 53.5505C71.1587 55.4995 70.9798 57.3757 70.2689 59.1791C70.2665 59.1839 70.0467 59.6419 69.6096 60.5532C68.841 62.1515 68.5768 63.813 68.817 65.5377C68.9083 66.1866 68.9539 66.783 68.9539 67.3269C68.9539 67.439 68.8819 68.0306 68.7378 69.1017C68.5768 70.3088 68.6861 71.6029 69.0656 72.9841C69.409 74.2437 69.3586 75.6667 68.9143 77.253L65.4089 76.8988C63.5139 76.4217 62.4283 75.2886 62.1521 73.4994C61.8111 71.2904 61.6478 67.8803 61.6622 63.2691C61.7871 63.1117 61.7486 62.8528 61.5469 62.4926C63.2641 60.9707 64.5995 59.1756 65.553 57.1073C67.2487 53.4265 68.3967 49.5226 68.9971 45.3956C69.3598 45.0282 69.6072 45.0855 69.7393 45.5674C69.8065 45.8059 69.9759 45.9013 70.2473 45.8536Z" fill="#C25331"/>
<path d="M57.7529 45.8574C58.3245 46.4633 59.0127 46.7949 59.8173 46.8522C62.4928 47.3341 65.0975 47.0621 67.6314 46.0363C67.8235 46.1747 67.9568 46.3429 68.0313 46.5409C68.0913 46.7055 68.0745 46.9023 67.9808 47.1313C67.6134 48.0282 67.1643 48.819 66.6335 49.5037C66.0378 50.2694 65.238 50.7442 64.2341 50.9278C62.8195 51.1855 61.7423 50.7704 61.0025 49.6826C60.88 49.5013 60.5798 48.9347 60.1019 47.9829C59.9794 47.7348 59.738 47.5678 59.3777 47.482C59.2817 47.4581 59.176 47.4092 59.0607 47.3353C58.7917 47.1611 58.5263 47.2052 58.2645 47.4676C57.9739 46.9619 57.8034 46.4252 57.7529 45.8574Z" fill="#FA8777"/>
<path d="M35.3876 51.1353L35.5065 51.672C35.2038 53.85 35.2699 56.0184 35.7046 58.1773C36.0769 60.0356 36.0361 61.7437 35.5821 63.3014C35.402 63.9216 35.3023 64.493 35.2831 65.0154C35.2735 65.285 35.3924 65.8384 35.6398 66.6757C35.7959 67.2101 35.8655 67.754 35.8487 68.3074C35.8343 68.7249 35.6938 69.2425 35.4272 69.8604C35.0141 70.8098 34.6563 71.7784 34.3536 72.766C34.1807 73.3361 34.117 73.8335 34.1627 74.2581C34.2275 74.8449 34.4077 75.3304 34.7031 75.7145C35.1282 76.2631 35.5161 76.8368 35.8667 77.4356C35.4848 77.7505 35.0297 77.8948 34.5013 77.8686C33.4518 76.7402 32.9486 75.4592 32.9918 74.0255C33.011 73.4005 33.226 72.5513 33.6367 71.4778C33.9705 70.6094 34.3008 69.7912 34.6274 69.0231C34.8844 68.4172 34.9372 67.7933 34.7859 67.1516C34.4401 65.6893 34.4749 64.295 34.8904 62.9686C35.3107 61.6351 35.4164 60.2813 35.2075 58.9073C35.121 58.3371 35.0777 58.0461 35.0777 58.0342C34.84 56.1091 34.7079 54.5251 34.6815 53.2822C34.6671 52.5499 34.9024 51.8342 35.3876 51.1353Z" fill="#FAF9F9"/>
<path d="M35.5065 51.6721H35.5786C35.5963 51.6718 35.615 51.68 35.6318 51.6954C35.6486 51.7108 35.6628 51.7327 35.6722 51.758C37.0773 55.7728 39.389 59.1782 42.6073 61.974C42.5137 62.5131 42.5497 62.9878 42.7154 63.3982C42.737 65.0585 42.731 68.0976 42.6974 72.5156C42.6782 74.9035 41.5626 76.4243 39.3505 77.0779L35.8668 77.4357C35.5161 76.837 35.1282 76.2633 34.7031 75.7146C34.4077 75.3305 34.2276 74.8451 34.1627 74.2582C34.1171 73.8336 34.1808 73.3362 34.3537 72.7661C34.6563 71.7785 35.0142 70.81 35.4273 69.8605C35.6939 69.2427 35.8344 68.725 35.8488 68.3075C35.8656 67.7541 35.7959 67.2102 35.6398 66.6759C35.3924 65.8385 35.2735 65.2851 35.2831 65.0155C35.3024 64.4931 35.402 63.9218 35.5822 63.3015C36.0361 61.7438 36.0769 60.0358 35.7047 58.1774C35.27 56.0185 35.2039 53.8501 35.5065 51.6721Z" fill="#C55230"/>
<path d="M27.7468 79.121L25.1349 79.8653L24.7746 79.6577C25.0604 78.1644 25.0208 76.6353 24.6557 75.0704C24.5452 74.6004 24.5873 74.146 24.7818 73.707C25.3078 72.5214 25.8458 71.2726 26.3958 69.9606C26.7321 69.1519 26.8521 68.3933 26.7561 67.6848C26.6576 66.9668 26.3646 65.6177 25.877 63.6378C25.3799 61.6196 25.9431 59.8376 27.5667 58.2918C28.6018 57.3066 29.4124 56.387 29.9985 55.5329C30.5172 54.5907 30.8066 53.5733 30.8667 52.4807C30.8787 52.2708 30.9171 52.2147 30.982 52.3125C31.0012 52.3435 31.0132 52.3805 31.018 52.4234C31.1189 53.652 31.3494 55.3099 31.7097 57.3972C32.0171 59.1721 31.6377 60.7549 30.5713 62.1456C30.0117 62.8756 29.6694 63.4159 29.5445 63.7666C29.1002 65.0261 29.0618 66.3024 29.4292 67.5953C29.8159 68.9575 30.0093 69.6409 30.0093 69.6457C30.0765 70.4568 29.8964 71.2404 29.4689 71.9966C29.1278 72.6025 28.7868 73.2085 28.4457 73.8144C27.5114 75.4771 27.2785 77.246 27.7468 79.121Z" fill="#D05735"/>
<path d="M9.50968 64.2174C9.01732 64.2341 8.69908 64.0075 8.55497 63.5375C8.36283 62.9125 8.27637 62.2374 8.29559 61.5122C8.38445 57.9912 9.6742 55.0689 12.1648 52.7454C12.638 52.3041 13.0595 52.2278 13.4294 52.5164C13.6671 52.7001 13.8028 53.015 13.8365 53.4611C13.9085 54.4964 13.8581 55.521 13.6851 56.5348C13.5074 57.563 13.2768 58.5566 12.9934 59.5155C12.5755 60.9421 11.9054 62.2589 10.9831 63.466C10.6157 63.9478 10.1245 64.1983 9.50968 64.2174Z" fill="#FB9C65"/>
<path d="M51.2538 53.7438C51.7822 54.7075 52.3526 55.5377 52.9651 56.2343C53.6856 57.0525 54.5226 57.4378 55.4761 57.39C56.2351 57.3519 56.9952 57.0012 57.7566 56.338C58.8374 55.4005 59.6408 54.2125 60.1668 52.7741C60.4646 52.4616 60.6399 52.4771 60.6928 52.8206C60.712 52.9303 60.6999 53.058 60.6567 53.2035C60.282 54.506 59.672 55.6582 58.8266 56.6601C57.8851 57.7765 56.8415 58.491 55.6959 58.8035C54.2788 59.1852 52.8474 58.9383 51.4015 58.0628C49.5834 56.963 48.1123 55.4387 46.9883 53.4897C46.8586 53.2631 46.9246 53.1534 47.1864 53.1605C48.6683 53.2058 50.0241 53.4003 51.2538 53.7438Z" fill="#DB534B"/>
<path d="M60.1669 52.7742C59.6409 54.2126 58.8375 55.4006 57.7567 56.3381C56.9953 57.0013 56.2352 57.352 55.4762 57.3901C54.5227 57.4378 53.6857 57.0526 52.9652 56.2344C52.3527 55.5378 51.7823 54.7076 51.2539 53.7439C54.2753 53.8297 57.2463 53.5065 60.1669 52.7742Z" fill="#FDFDFD"/>
<path d="M71.8928 54.1768C72.4044 55.0522 73.1297 55.6963 74.0688 56.109C75.0607 56.5408 76.0346 57.006 76.9905 57.5046C78.0137 58.0389 78.6213 58.7486 78.8135 59.6336C78.9288 60.1656 78.9276 60.8825 78.8099 61.7842C78.8075 61.7985 78.7162 62.2541 78.5361 63.1511C78.0725 65.477 78.7726 67.309 80.6364 68.6473C81.5947 69.3344 82.3092 70.1132 82.78 70.9839C83.1739 71.7139 83.3708 72.7075 83.3708 73.9646C83.3732 75.792 83.1451 77.6002 82.6863 79.3893C82.4606 79.449 82.1555 79.4132 81.7713 79.282C82.2252 77.3545 82.5134 75.4091 82.6359 73.4458C82.6887 72.5751 82.577 71.8582 82.3008 71.2953C81.9646 70.6082 81.4854 70.0214 80.8634 69.5347C80.2341 69.0385 79.9159 68.7881 79.9087 68.7833C78.2707 67.2256 77.7243 65.2456 78.2695 62.8433C78.3872 62.3209 78.482 61.7937 78.5541 61.2617C78.7727 59.6229 78.147 58.4373 76.6771 57.7049C75.7332 57.2326 74.7713 56.7949 73.7914 56.3917C72.9556 56.0458 72.2627 55.5162 71.7127 54.803C71.5325 54.5501 71.5926 54.3414 71.8928 54.1768Z" fill="#F9D6D5"/>
<path d="M71.7135 54.803C72.2635 55.5162 72.9564 56.0458 73.7922 56.3917C74.7721 56.7949 75.7341 57.2326 76.6779 57.705C78.1478 58.4373 78.7735 59.6229 78.5549 61.2618C78.4829 61.7937 78.388 62.3209 78.2703 62.8434C77.7251 65.2456 78.2715 67.2256 79.9095 68.7833C79.9167 68.7881 80.235 69.0386 80.8642 69.5348C81.4863 70.0214 81.9654 70.6083 82.3017 71.2953C82.5779 71.8583 82.6896 72.5751 82.6367 73.4458C82.5142 75.4091 82.226 77.3545 81.7721 79.282C79.5913 78.6761 77.2796 78.2992 74.837 78.1513L70.168 77.3604C70.7396 75.6787 70.7468 74.0863 70.1896 72.5835C69.9422 71.9131 69.7885 71.2857 69.7284 70.7013C69.6996 70.4293 69.7489 69.7948 69.8761 68.7976C70.0371 67.5333 69.989 66.2666 69.732 64.9975C69.5591 64.1339 69.6168 63.2871 69.905 62.4569C70.2676 61.4216 70.6795 60.4066 71.1407 59.4118C71.8228 57.9399 72.0137 56.4037 71.7135 54.803Z" fill="#CA5632"/>
<path d="M29.8181 55.415L29.9983 55.5331C29.4123 56.3871 28.6017 57.3067 27.5665 58.292C25.9429 59.8378 25.3797 61.6198 25.8769 63.6379C26.3644 65.6179 26.6574 66.9669 26.7559 67.685C26.852 68.3935 26.7319 69.152 26.3956 69.9607C25.8456 71.2728 25.3076 72.5216 24.7817 73.7072C24.5871 74.1461 24.5451 74.6006 24.6556 75.0705C25.0206 76.6354 25.0603 78.1646 24.7744 79.6579C24.3709 79.9799 23.923 80.1624 23.4307 80.2054C23.887 78.7502 23.9795 77.3487 23.7081 76.0009C23.3886 74.4145 23.6252 72.951 24.4178 71.6103C24.9342 70.7348 25.1935 70.2947 25.1959 70.29C25.9261 68.706 26.0738 67.0707 25.6391 65.3841C25.3124 64.115 25.1479 63.4769 25.1455 63.4697C24.8525 61.2512 25.6223 59.3989 27.4548 57.9127C28.2882 57.2352 29.076 56.4026 29.8181 55.415Z" fill="#FAF9F9"/>
<path d="M42.6074 61.9739C44.8746 63.6843 47.0134 64.8353 49.0237 65.4269C53.6447 66.7843 57.819 65.8062 61.5465 62.4927C61.7482 62.8529 61.7867 63.1118 61.6618 63.2692C60.5402 65.0822 59.3753 66.5171 58.1672 67.5739C55.9288 69.5276 53.5006 70.1717 50.8826 69.5062C49.5305 69.1603 48.0474 68.3206 46.4334 66.9871C45.1028 65.8873 43.8635 64.691 42.7155 63.398C42.5497 62.9877 42.5137 62.513 42.6074 61.9739Z" fill="#F4867C"/>
<path d="M61.6618 63.2693C61.6474 67.8805 61.8107 71.2906 62.1517 73.4996C62.4279 75.2887 63.5135 76.4219 65.4085 76.899L64.9366 89.9489C64.5139 90.791 63.893 91.5473 63.074 92.2176C60.091 94.6627 56.7802 96.1072 53.1415 96.5509C50.55 96.8658 48.1867 96.6236 46.0515 95.8245C43.6954 94.9395 41.6815 93.4616 40.0099 91.391C40.0267 91.0594 39.8766 90.9103 39.5595 90.9437L39.3506 77.0779C41.5626 76.4242 42.6782 74.9035 42.6974 72.5156C42.7311 68.0976 42.7371 65.0584 42.7154 63.3981C43.8635 64.6911 45.1028 65.8874 46.4334 66.9871C48.0474 68.3206 49.5304 69.1603 50.8826 69.5062C53.5006 70.1718 55.9288 69.5277 58.1672 67.574C59.3753 66.5172 60.5402 65.0823 61.6618 63.2693ZM51.5246 78.607C51.5249 78.5188 51.4899 78.434 51.4273 78.3714C51.3646 78.3088 51.2796 78.2734 51.1907 78.2731L51.1691 78.273C51.1251 78.2729 51.0815 78.2813 51.0408 78.2979C51.0001 78.3145 50.9631 78.3389 50.9318 78.3697C50.9006 78.4004 50.8758 78.4371 50.8588 78.4774C50.8418 78.5177 50.833 78.5609 50.8329 78.6046L50.8099 85.1314C50.8096 85.2196 50.8446 85.3044 50.9072 85.367C50.9699 85.4296 51.0549 85.465 51.1438 85.4653L51.1654 85.4654C51.2094 85.4655 51.253 85.4571 51.2937 85.4405C51.3344 85.4239 51.3715 85.3995 51.4027 85.3687C51.4339 85.3379 51.4587 85.3013 51.4757 85.261C51.4927 85.2207 51.5015 85.1775 51.5016 85.1338L51.5246 78.607Z" fill="#FDB9A8"/>
<path d="M65.4083 76.8989L68.9137 77.2532L70.1674 77.3605L74.8365 78.1513L77.1782 95.2913C73.5179 97.5933 69.5141 99.3562 65.1669 100.58C65.1306 100.59 65.0923 100.592 65.0551 100.585C65.0178 100.579 64.9827 100.563 64.9523 100.54C64.9219 100.517 64.8972 100.488 64.8801 100.454C64.8629 100.419 64.8538 100.382 64.8535 100.344L64.9364 89.9489L65.4083 76.8989Z" fill="#3D2338"/>
<path d="M39.3504 77.0779L39.5593 90.9437V94.2536L39.5449 100.666C39.5446 100.716 39.5328 100.766 39.5106 100.811C39.4883 100.856 39.4562 100.896 39.4164 100.927C39.3766 100.959 39.3303 100.981 39.2808 100.992C39.2314 101.003 39.18 101.003 39.1306 100.992C33.472 99.67 28.3142 97.387 23.6572 94.1427C24.4354 89.355 24.9278 84.5958 25.1343 79.8654L27.7462 79.1211C28.1161 79.1783 28.4764 79.1485 28.827 79.0316L34.5012 77.8687C35.0296 77.8949 35.4847 77.7506 35.8666 77.4357L39.3504 77.0779Z" fill="#3D2338"/>
<path d="M81.772 79.2821C82.1563 79.4133 82.4613 79.4491 82.6871 79.3895C85.1657 80.6085 87.5831 82.0231 89.9392 83.6333C86.4326 88.3519 82.1791 92.2379 77.1786 95.2913L74.8369 78.1514C77.2795 78.2993 79.5912 78.6762 81.772 79.2821Z" fill="#FCB7A5"/>
<path d="M51.1906 78.273L51.169 78.2729C50.984 78.2722 50.8335 78.4207 50.8328 78.6045L50.8099 85.1313C50.8092 85.315 50.9587 85.4645 51.1438 85.4652L51.1654 85.4653C51.3504 85.4659 51.5009 85.3174 51.5016 85.1336L51.5245 78.6069C51.5252 78.4231 51.3757 78.2736 51.1906 78.273Z" fill="#F98D7D"/>
<path d="M24.7745 79.6577L25.1348 79.8652C24.9282 84.5957 24.4359 89.3548 23.6577 94.1426C19.9974 91.769 16.7622 88.9433 13.9521 85.6656L14.2367 84.9357C14.7051 84.8856 15.0401 84.6518 15.2419 84.2343C15.9024 84.0602 16.4428 83.7024 16.8631 83.1608L23.4307 80.2052C23.9231 80.1622 24.371 79.9798 24.7745 79.6577Z" fill="#FBBBA8"/>
<path d="M39.5596 90.9435C39.8766 90.9102 40.0267 91.0592 40.0099 91.3908L39.7577 91.5268C39.7257 91.5434 39.6976 91.5819 39.6771 91.6373C39.6565 91.6927 39.6445 91.7626 39.6424 91.8381L39.5596 94.2535V90.9435Z" fill="#FAF3F0"/>
</svg>
