<svg width="25" height="25" viewBox="0 0 25 25" fill="none" xmlns="http://www.w3.org/2000/svg">
<g clip-path="url(#clip0_103_43108)">
<path d="M24.1494 11.9844H23.3994V8.98438C23.3994 8.58655 23.2414 8.20502 22.9601 7.92372C22.6788 7.64241 22.2972 7.48438 21.8994 7.48438H20.3994V6.73438C20.3994 6.33655 20.2414 5.95502 19.9601 5.67371C19.6788 5.39241 19.2972 5.23438 18.8994 5.23438H16.6494C16.2516 5.23438 15.8701 5.39241 15.5888 5.67371C15.3074 5.95502 15.1494 6.33655 15.1494 6.73438V11.9844H10.6494V6.73438C10.6494 6.33655 10.4914 5.95502 10.2101 5.67371C9.92877 5.39241 9.54724 5.23438 9.14941 5.23438H6.89941C6.50159 5.23438 6.12006 5.39241 5.83875 5.67371C5.55745 5.95502 5.39941 6.33655 5.39941 6.73438V7.48438H3.89941C3.50159 7.48438 3.12006 7.64241 2.83875 7.92372C2.55745 8.20502 2.39941 8.58655 2.39941 8.98438V11.9844H1.64941C1.4505 11.9844 1.25974 12.0634 1.11908 12.204C0.978432 12.3447 0.899414 12.5355 0.899414 12.7344C0.899414 12.9333 0.978432 13.1241 1.11908 13.2647C1.25974 13.4054 1.4505 13.4844 1.64941 13.4844H2.39941V16.4844C2.39941 16.8822 2.55745 17.2637 2.83875 17.545C3.12006 17.8263 3.50159 17.9844 3.89941 17.9844H5.39941V18.7344C5.39941 19.1322 5.55745 19.5137 5.83875 19.795C6.12006 20.0763 6.50159 20.2344 6.89941 20.2344H9.14941C9.54724 20.2344 9.92877 20.0763 10.2101 19.795C10.4914 19.5137 10.6494 19.1322 10.6494 18.7344V13.4844H15.1494V18.7344C15.1494 19.1322 15.3074 19.5137 15.5888 19.795C15.8701 20.0763 16.2516 20.2344 16.6494 20.2344H18.8994C19.2972 20.2344 19.6788 20.0763 19.9601 19.795C20.2414 19.5137 20.3994 19.1322 20.3994 18.7344V17.9844H21.8994C22.2972 17.9844 22.6788 17.8263 22.9601 17.545C23.2414 17.2637 23.3994 16.8822 23.3994 16.4844V13.4844H24.1494C24.3483 13.4844 24.5391 13.4054 24.6797 13.2647C24.8204 13.1241 24.8994 12.9333 24.8994 12.7344C24.8994 12.5355 24.8204 12.3447 24.6797 12.204C24.5391 12.0634 24.3483 11.9844 24.1494 11.9844ZM3.89941 16.4844V8.98438H5.39941V16.4844H3.89941ZM9.14941 18.7344H6.89941V6.73438H9.14941V18.7344ZM18.8994 18.7344H16.6494V6.73438H18.8994V17.2175C18.8994 17.2231 18.8994 17.2288 18.8994 17.2344C18.8994 17.24 18.8994 17.2456 18.8994 17.2512V18.7344ZM21.8994 16.4844H20.3994V8.98438H21.8994V16.4844Z" fill="black"/>
</g>
<defs>
<clipPath id="clip0_103_43108">
<rect width="24" height="24" fill="white" transform="translate(0.899414 0.734375)"/>
</clipPath>
</defs>
</svg>
