<svg width="102" height="102" viewBox="0 0 102 102" fill="none" xmlns="http://www.w3.org/2000/svg">
<path d="M14.708 85.2084C18.6043 89.4502 23.2647 92.923 28.6892 95.6269C35.5553 99.0511 42.7222 100.839 50.19 100.991C52.5364 101.038 54.9358 100.9 57.3882 100.575C69.1204 99.0227 79.138 93.9823 87.4408 85.4537C87.5707 85.3234 87.608 85.1871 87.5527 85.0449" stroke="#ACCDCB" stroke-width="2"/>
<path d="M87.5524 85.0451C87.7257 85.0332 87.899 84.9325 88.0722 84.7429C94.7434 77.3684 98.831 68.8362 100.335 59.1464C101.105 54.1984 101.206 49.5265 100.638 45.1307C99.18 33.8248 94.5063 24.077 86.6174 15.8872C84.94 14.1455 83.1627 12.5518 81.2856 11.1063C71.688 3.72226 60.7162 0.384509 48.3703 1.09306C45.9372 1.23287 43.5522 1.53027 41.2154 1.98525C31.3001 3.92131 22.8228 8.40245 15.7835 15.4287C9.57441 21.6207 5.26536 28.9775 2.85634 37.499C2.19933 39.8214 1.72162 42.1437 1.4232 44.466C0.814328 49.1723 0.862458 53.8951 1.5676 58.6346C3.09339 68.8931 7.47343 77.7511 14.7077 85.2086" stroke="#FEF3F0" stroke-width="2"/>
<path d="M87.5529 85.0451C83.4833 82.9668 80.9864 81.6291 80.0623 81.0319C79.1285 80.4277 78.2513 80.0284 77.4307 79.834C77.1948 79.7772 76.9939 79.6942 76.8278 79.5852C76.6449 79.462 76.4644 79.3376 76.2863 79.212C76.0072 79.0129 75.7196 78.8565 75.4235 78.7428C73.852 78.1338 72.2805 77.4975 70.709 76.834" stroke="#ABC2BC" stroke-width="2"/>
<path d="M70.7086 76.8339C68.3309 76.8055 66.4128 76.0175 64.9544 74.4701C64.4201 73.9014 64.0615 73.213 63.8786 72.4049C63.7029 71.6253 63.6151 70.8338 63.6151 70.0304C63.6127 69.0825 63.6115 68.5956 63.6115 68.5695C63.5634 67.214 63.5164 65.8574 63.4707 64.4995" stroke="#FABD9E" stroke-width="2"/>
<path d="M63.4707 64.4998C68.3393 58.9546 70.2249 52.4687 69.1275 45.042" stroke="#A7847D" stroke-width="2"/>
<path d="M69.127 45.0416C69.1655 44.7857 69.2701 44.6945 69.441 44.7679C69.4829 44.7863 69.5208 44.8212 69.5512 44.8692C69.5815 44.9171 69.6033 44.9765 69.6143 45.0416C69.6817 45.4161 69.867 45.659 70.1702 45.7703C70.3868 45.8485 70.6576 45.826 70.9825 45.7028C73.3241 44.8189 74.4889 43.0582 74.4769 40.4207C74.4624 36.968 72.7405 35.2334 69.3111 35.2168" stroke="#FACEC3" stroke-width="2"/>
<path d="M69.311 35.2169C69.4843 31.9656 69.4783 28.8056 69.293 25.7368" stroke="#F4BAA1" stroke-width="2"/>
<path d="M69.2935 25.737L68.8242 23.064" stroke="#E7A494" stroke-width="2"/>
<path d="M68.8238 23.0639C71.5241 21.3529 73.0703 18.9915 73.4626 15.9796C73.6263 14.7284 73.6575 13.6644 73.5565 12.7876C73.4313 11.6975 73.0523 10.675 72.4193 9.71997C71.9909 9.08014 71.4627 8.62753 70.8346 8.36212C69.1379 7.6512 67.3402 7.49599 65.4413 7.89647C64.5052 8.09316 63.847 7.84315 63.4667 7.14645C63.4059 7.0336 63.3232 6.94843 63.2321 6.90474C62.5799 6.60379 61.9686 6.67962 61.3982 7.13224C60.888 7.53746 60.4693 7.46044 60.142 6.90119C59.935 6.55047 59.6847 6.24122 59.3911 5.97344C59.1432 5.74832 58.8039 5.54689 58.3731 5.36917C56.9195 4.772 55.4852 4.42957 54.0701 4.34189C49.9909 4.09307 46.0837 4.92247 42.3487 6.8301C41.1213 7.4557 40.3199 8.42373 39.9444 9.73419C39.7712 10.3432 39.5088 10.9108 39.1575 11.4368C38.551 12.3397 37.7123 12.5779 36.6414 12.1513C35.2503 11.5992 33.9111 11.675 32.6235 12.3788C30.7776 13.3883 29.5322 14.886 28.8872 16.8718C28.3819 18.4334 28.4962 19.9809 29.2302 21.5141C29.9425 23.0022 31.123 23.6515 32.7715 23.462" stroke="#FDBD95" stroke-width="2"/>
<path d="M32.7713 23.4619L32.6738 24.7487" stroke="#E7A494" stroke-width="2"/>
<path d="M32.6746 24.7485L32.624 35.3163" stroke="#F4BAA1" stroke-width="2"/>
<path d="M32.6232 35.3166C32.3055 35.2526 31.9975 35.1851 31.699 35.114C31.3404 35.0287 31.0276 34.9955 30.7605 35.0144C29.2298 35.1211 28.1324 35.8047 27.4682 37.0654C26.6548 38.6129 26.5477 40.3558 27.1469 42.2942C27.5849 43.7137 28.4645 44.7753 29.7858 45.4791C30.385 45.799 30.9891 45.9199 31.598 45.8417C32.0263 45.7872 32.498 45.6284 33.013 45.3654" stroke="#FABFAB" stroke-width="2"/>
<path d="M33.014 45.3652C32.8359 47.8582 32.9899 50.3049 33.4761 52.7054C34.3425 56.9875 36.3027 60.6973 39.3566 63.8348" stroke="#A7847D" stroke-width="2"/>
<path d="M39.3562 63.835C39.1517 66.207 39.0951 68.5329 39.1866 70.8126C39.2491 72.3126 38.9688 73.4904 38.3454 74.3459C37.8112 75.0757 37.1566 75.5568 36.3816 75.789C34.6152 76.3175 33.3216 76.7369 32.501 77.0473" stroke="#FABD9E" stroke-width="2"/>
<path d="M32.5013 77.0474C30.6458 77.8436 28.7735 78.6019 26.8843 79.3223C26.5209 79.4621 26.3404 79.7038 26.3428 80.0474C26.3428 80.0605 26.3402 80.0734 26.3351 80.0855C26.33 80.0976 26.3226 80.1086 26.3132 80.1178C26.2942 80.1365 26.2685 80.147 26.2417 80.147C25.32 80.1422 24.6088 80.2951 24.1083 80.6055C23.574 80.9396 23.2936 81.1126 23.2671 81.1245C20.3792 82.4136 17.5262 83.775 14.708 85.2087" stroke="#ABC2BC" stroke-width="2"/>
<path d="M41.2549 50.0931C41.794 50.041 42.1778 50.2246 42.4064 50.6441C42.4137 50.6583 42.4498 50.8419 42.5147 51.195C42.5605 51.4367 42.7422 51.5825 43.0598 51.6322" stroke="#3D1B1A" stroke-width="2"/>
<path d="M43.0605 51.6319C43.2025 53.9234 43.9546 55.9945 45.3168 57.8453C46.2818 59.1581 47.4249 60.0148 48.7462 60.4152C51.4488 61.2352 53.7471 60.7719 55.6411 59.0254C56.3102 58.4069 56.8974 57.5905 57.4028 56.5763C57.8769 55.626 58.2331 54.677 58.4713 53.7291C58.7336 52.6817 58.9863 51.8594 59.2294 51.2622" stroke="#A36252" stroke-width="2"/>
<path d="M59.2285 51.2622C59.6882 51.2077 60.0817 50.9778 60.409 50.5726C60.5341 50.4162 60.6809 50.357 60.8494 50.3949C60.8992 50.4064 60.944 50.4367 60.9766 50.4811C61.0093 50.5255 61.028 50.5814 61.0299 50.6402L61.1057 52.684C61.1076 52.7486 61.1237 52.8093 61.1517 52.8573C61.1797 52.9054 61.218 52.9381 61.2609 52.9506C61.3644 52.9814 61.4643 52.9471 61.5605 52.8475" stroke="#391B1A" stroke-width="2"/>
<path d="M61.5605 52.8478C61.7531 52.8502 61.9288 52.791 62.0876 52.6701C63.7385 51.4023 65.0429 49.8501 66.0008 48.0136C66.612 46.8406 67.2329 45.6723 67.8635 44.5088" stroke="#A36A4F" stroke-width="2"/>
<path d="M63.471 64.4995C62.9102 64.8242 62.4831 65.2329 62.1895 65.7258" stroke="#A3593A" stroke-width="2"/>
<path d="M62.1894 65.7261C59.0295 67.9607 55.6313 69.0934 51.9949 69.1242C48.5198 69.1527 45.2275 68.1906 42.1182 66.2379" stroke="#984638" stroke-width="2"/>
<path d="M42.118 66.2379L39.3564 63.835" stroke="#A3593A" stroke-width="2"/>
<path d="M42.1182 66.2379C42.6356 67.0958 43.2866 67.8304 44.0711 68.4418C44.6247 68.8707 45.4309 69.4134 46.4898 70.0698C49.2405 71.7712 52.1887 72.1373 55.3341 71.1681C58.21 70.2795 60.4951 68.4655 62.1894 65.7261" stroke="#EB7E59" stroke-width="2"/>
<path d="M70.7092 76.834C71.3565 78.6421 71.436 80.545 70.9474 82.5426C70.2904 85.2323 69.2062 87.5901 67.6949 89.6162C66.3183 91.4623 64.5975 93.1045 62.5327 94.5429C59.5894 96.5903 56.2935 97.6934 52.6451 97.8522C50.1855 97.9612 47.8222 97.6081 45.5552 96.7929C42.1859 95.5796 39.3305 93.5334 36.9888 90.6542C33.7664 86.6896 32.2707 82.154 32.5017 77.0473" stroke="#A89679" stroke-width="2"/>
<path d="M69.127 45.0419L68.6758 43.3535" stroke="#A46A5E" stroke-width="2"/>
<path d="M68.7415 41.722C69.307 42.7078 70.035 42.9187 70.9255 42.3547C71.9507 41.7007 72.4236 40.8025 72.3442 39.6603C72.284 38.7859 71.9808 38.1188 71.4345 37.6591C70.7053 37.0453 69.7968 37.1745 68.709 38.0466" stroke="#F19A8D" stroke-width="2"/>
<path d="M69.2929 25.7372C67.05 26.3107 64.5928 26.3178 61.9214 25.7585C60.2561 25.4102 57.7038 25.0476 54.2648 24.6708C52.4911 24.4765 50.9124 24.3604 49.5286 24.3225C47.5961 24.2656 46.0113 24.3 44.7743 24.4256C42.4327 24.6649 40.0874 24.8498 37.7386 24.9801C36.9323 25.0275 36.0888 25.0156 35.208 24.9445C34.3729 24.8758 33.5282 24.8107 32.6738 24.749" stroke="#DE7654" stroke-width="2"/>
<path d="M69.3118 35.2168L68.709 38.0462" stroke="#F19F82" stroke-width="2"/>
<path d="M68.709 38.0464C68.916 39.1791 68.9268 40.4043 68.7415 41.7218" stroke="#EB866B" stroke-width="2"/>
<path d="M68.7405 41.7217C68.3386 42.1885 68.3169 42.7324 68.6755 43.3532" stroke="#F19F82" stroke-width="2"/>
<path d="M68.6755 43.3535C68.3217 43.6782 68.051 44.0632 67.8633 44.5088" stroke="#9E563C" stroke-width="2"/>
<path d="M67.8643 44.5086C67.6188 44.4399 67.4503 44.5063 67.3589 44.7077C66.6754 46.267 65.886 47.7706 64.9908 49.2185C64.418 50.145 63.5624 51.0834 62.4241 52.0337C62.3877 52.0649 62.3407 52.082 62.2912 52.082C62.2418 52.082 62.193 52.0649 62.1534 52.0337C62.0066 51.9152 61.8441 51.8358 61.666 51.7955" stroke="#F0A073" stroke-width="2"/>
<path d="M61.6659 51.7953C61.6803 51.4754 61.6695 51.1579 61.6334 50.8427C61.5973 50.5323 61.4661 50.2562 61.2399 50.0145C59.8345 48.5358 58.0764 47.7028 55.9658 47.5156" stroke="#87503E" stroke-width="2"/>
<path d="M55.9656 47.5159C55.9584 47.305 56.0029 47.1249 56.0992 46.9756" stroke="#CA6D4D" stroke-width="2"/>
<path d="M56.0991 46.9755C57.2326 46.5371 57.8174 45.8392 57.8535 44.8819C57.8679 44.4648 57.667 43.921 57.2506 43.2503C56.5503 42.1247 56.1219 41.0631 55.9655 40.0654C55.8307 39.2123 56.087 38.3272 56.7344 37.4102" stroke="#DA7651" stroke-width="2"/>
<path d="M56.7344 37.4103C57.466 36.3677 58.4419 35.697 59.662 35.3984" stroke="#CA6D4D" stroke-width="2"/>
<path d="M59.6617 35.3984C59.1828 36.6212 59.3573 37.3546 60.1851 37.5987C61.9468 38.1177 62.6748 37.4779 62.3692 35.6793C62.3306 35.4541 62.4089 35.4044 62.6038 35.53C63.4557 36.0726 64.2872 36.6615 65.0983 37.2966C65.2282 37.3961 65.3365 37.4174 65.4231 37.3606C65.4574 37.3379 65.4784 37.2956 65.4824 37.2413C65.4864 37.1871 65.473 37.1246 65.4448 37.0655L65.0658 36.2444" stroke="#8F5641" stroke-width="2"/>
<path d="M65.0661 36.2444C65.3958 35.2302 65.1672 34.4233 64.3802 33.8238C63.5259 33.1721 62.8809 32.5619 62.4453 31.9932" stroke="#DA7651" stroke-width="2"/>
<path d="M62.4448 31.9929C63.5519 32.3839 64.5903 32.8768 65.5602 33.4716C65.7407 33.583 65.8177 33.5344 65.7912 33.3259C65.7046 32.6078 65.4495 31.9668 65.0259 31.4028C64.6866 30.9455 64.1716 30.5189 63.4809 30.1232C61.7746 29.1421 59.901 28.6836 57.8602 28.7476C56.9553 28.776 56.4138 29.1718 56.2358 29.9348C56.1443 30.3258 56.3272 30.7121 56.7845 31.0936" stroke="#824E3D" stroke-width="2"/>
<path d="M56.7856 31.0938C56.4318 31.2288 56.0576 31.172 55.6629 30.9231C55.6168 30.8946 55.5639 30.8794 55.5107 30.8794C55.4575 30.8794 55.4063 30.8946 55.3633 30.9231C54.2009 31.7194 53.3838 32.7822 52.9121 34.1116" stroke="#DA7651" stroke-width="2"/>
<path d="M52.911 34.1113C52.4393 35.372 52.1661 36.6754 52.0915 38.0214C51.9519 40.6281 51.9904 43.3757 52.207 46.2644C52.2193 46.433 52.1738 46.6008 52.0776 46.7412C51.9815 46.8817 51.8402 46.9866 51.6764 47.0393C51.041 47.2455 50.4803 47.6637 49.9941 48.2941" stroke="#CA6D4D" stroke-width="2"/>
<path d="M49.9945 48.2943C46.5482 46.7634 43.635 47.363 41.2549 50.0929" stroke="#8B503E" stroke-width="2"/>
<path d="M41.2552 50.0928C40.7162 50.6805 40.4984 51.3749 40.6018 52.1758C40.6572 52.6142 40.4984 52.7126 40.1253 52.4708C38.3468 51.3215 36.9462 49.8002 35.9234 47.9068C35.6587 47.4162 35.27 46.6532 34.7574 45.6176C34.3819 44.8617 34.051 44.0702 33.7646 43.2432" stroke="#9E563C" stroke-width="2"/>
<path d="M33.7648 43.2433C34.133 42.7077 33.9272 42.3594 33.1475 42.1982" stroke="#F1916A" stroke-width="2"/>
<path d="M33.1475 42.198C33.4844 40.5132 33.3894 38.8591 32.8623 37.2358" stroke="#EA7D60" stroke-width="2"/>
<path d="M32.8623 37.2359C32.9585 36.5392 32.8791 35.8994 32.624 35.3164" stroke="#F1916A" stroke-width="2"/>
<path d="M68.8238 23.0639C67.2739 23.4501 65.7253 23.661 64.1778 23.6966C61.8891 23.7535 59.6041 23.6871 57.3226 23.4975C51.4071 23.0046 45.4808 22.7771 39.5437 22.8151C38.7158 22.8198 37.9313 22.7949 37.19 22.7404C36.4103 22.6812 35.6293 22.6207 34.8472 22.5591C34.065 22.4975 33.3731 22.7985 32.7715 23.462" stroke="#E77948" stroke-width="2"/>
<path d="M32.8621 37.236C31.6419 36.4374 30.6564 36.5583 29.9055 37.5986C28.9333 38.9493 28.9718 40.351 30.021 41.8037C30.5337 42.5122 31.1798 42.8807 31.9596 42.9091C32.4529 42.9257 32.8488 42.6888 33.1472 42.1982" stroke="#EF826A" stroke-width="2"/>
<path d="M33.7645 43.2432C33.2664 43.8285 33.0161 44.5358 33.0137 45.3652" stroke="#A35B46" stroke-width="2"/>
<path d="M56.7236 50.7646C56.7429 51.2575 57.0545 51.4566 57.6586 51.3618C57.7267 51.3514 57.7889 51.3275 57.8363 51.2937C57.8836 51.2598 57.9137 51.2177 57.9221 51.1734C57.939 51.0929 57.9185 51.0087 57.8608 50.921" stroke="#F4B6A4" stroke-width="2"/>
<path d="M43.692 51.2764C43.6751 51.5228 43.7955 51.6081 44.053 51.5323C45.7328 51.0252 47.4439 50.6757 49.1863 50.4837C49.3548 50.4648 49.4667 50.4162 49.522 50.338C49.5942 50.2313 49.6014 50.0951 49.5437 49.9292" stroke="#F8B0A0" stroke-width="2"/>
<path d="M50.2794 49.1152C50.1518 49.4944 49.9064 49.7657 49.543 49.9292" stroke="#905D54" stroke-width="2"/>
<path d="M49.5431 49.9292C47.5625 50.261 45.6119 50.71 43.6914 51.2764" stroke="#926868" stroke-width="2"/>
<path d="M43.6923 51.2769C43.4396 51.3171 43.229 51.4356 43.0605 51.6323" stroke="#905D54" stroke-width="2"/>
<path d="M61.5615 52.8476C61.5206 52.485 61.5555 52.1343 61.6662 51.7954" stroke="#8C6551" stroke-width="2"/>
<path d="M59.2295 51.2626L57.8613 50.9214" stroke="#8C5D54" stroke-width="2"/>
<path d="M57.8608 50.921L56.7236 50.7646" stroke="#8A6E6C" stroke-width="2"/>
<path d="M56.724 50.7646C54.9287 50.613 53.2212 50.1177 51.6016 49.2788" stroke="#8C5D54" stroke-width="2"/>
<path d="M62.4455 31.9931C61.3072 31.4622 60.0798 31.2193 58.7634 31.2644C58.0703 31.2857 57.4109 31.2288 56.7852 31.0938" stroke="#71392E" stroke-width="2"/>
<path d="M65.066 36.2441L64.0732 35.4443" stroke="#7E4032" stroke-width="2"/>
<path d="M64.0733 35.4446C63.8616 34.7337 63.3863 34.3119 62.6474 34.1792C62.1276 34.0868 61.6054 34.0192 61.0807 33.9766C60.2264 33.9079 59.7029 33.8794 59.5104 33.8913C58.5814 33.9434 57.8426 34.3937 57.2939 35.242C56.8679 35.9055 56.6814 36.6283 56.7344 37.4103" stroke="#B9573E" stroke-width="2"/>
<path d="M56.0993 46.9758C56.198 46.4189 55.9693 46.2388 55.4134 46.4355C54.831 46.6393 54.3352 46.7945 53.9261 46.9011C53.4352 47.0291 53.1825 46.8431 53.168 46.3431C53.1416 45.3075 53.0669 44.285 52.9442 43.2755C52.7589 41.7802 52.659 40.7624 52.6446 40.2221C52.6037 38.7055 52.6542 37.2114 52.7962 35.7398C52.8203 35.4909 52.872 35.2492 52.9514 35.0146C53.1728 34.3653 53.1596 34.0644 52.9117 34.1118" stroke="#B9573E" stroke-width="2"/>
<path d="M55.966 47.5159C54.1995 47.3832 52.7447 47.9709 51.6016 49.279" stroke="#66322B" stroke-width="2"/>
<path d="M51.6005 49.2787C51.343 49.4968 50.9026 49.4423 50.2793 49.1152" stroke="#CF7963" stroke-width="2"/>
<path d="M50.2793 49.1155C50.3852 48.6961 50.2902 48.4224 49.9941 48.2944" stroke="#6A322B" stroke-width="2"/>
<path d="M64.0734 35.4444C62.5789 34.615 61.1085 34.5996 59.6621 35.3982" stroke="#6E372E" stroke-width="2"/>
<path d="M20.2133 24.4642C19.8499 24.4144 19.4937 24.5803 19.1448 24.9618C16.7406 27.5661 15.5565 30.6065 15.5926 34.0829C15.5998 34.7488 15.6985 35.2843 15.8886 35.6895C16.2592 36.4834 16.82 36.7488 17.5708 36.4858C18.1099 36.2962 18.6201 35.8815 19.1014 35.2417C19.744 34.3909 20.2097 33.3921 20.4985 32.2452C21.0737 29.9631 21.2193 27.61 20.9353 25.1858C20.8847 24.7616 20.6441 24.5211 20.2133 24.4642Z" stroke="#F8D5CC" stroke-width="2"/>
<path d="M83.1197 75.2487C84.104 75.9312 85.193 76.4371 86.3867 76.7665C87.1207 76.9703 87.6152 76.7179 87.8704 76.0094C88.1206 75.3174 88.0147 74.6219 87.5527 73.9228C86.9871 73.065 86.5732 72.4951 86.3109 72.2131C84.2291 69.9713 82.7852 67.6609 81.979 65.2817C80.1018 59.727 80.914 54.4982 84.4156 49.5953C84.8296 49.0171 86.1484 47.4543 88.3721 44.9068C88.8944 44.312 89.2554 43.8262 89.4551 43.4494C89.7463 42.8997 89.9509 42.325 90.0688 41.7255C90.2204 40.9506 89.8955 40.5453 89.0941 40.5098C88.2301 40.4719 87.4203 40.6532 86.6646 41.0537C84.9632 41.9589 83.4674 43.1212 82.1775 44.5407C77.0827 50.1546 75.1249 56.7483 76.3041 64.3219C76.824 67.6656 78.2126 70.5258 80.47 72.9027C81.411 73.8932 82.2942 74.6752 83.1197 75.2487Z" stroke="#FCBF99" stroke-width="2"/>
<path d="M21.4652 41.2138C21.0898 40.8891 20.7059 40.882 20.3136 41.1925C19.1488 42.119 18.1633 43.1712 17.3571 44.3489C14.3729 48.7187 12.4344 53.5043 11.5415 58.7059C11.1853 60.7723 11.1095 62.6586 11.3141 64.3647C11.3646 64.7771 11.4946 65.0709 11.704 65.2463C12.0674 65.552 12.4645 65.4453 12.8952 64.9264C13.1407 64.6278 13.3766 64.0496 13.6028 63.1917C13.699 62.8292 13.8194 62.2202 13.9638 61.3647C14.6617 57.2295 15.8542 53.6027 17.5412 50.4841C18.8913 47.9888 20.2294 45.4852 21.5554 42.9733C21.9622 42.2031 21.9321 41.6166 21.4652 41.2138Z" stroke="#FCBF9A" stroke-width="2"/>
<path d="M25.3927 54.3514C24.7502 54.3728 24.1942 54.6393 23.725 55.1512C22.3604 56.6394 21.2245 58.2401 20.3172 59.9534C19.5278 61.4416 18.7842 63.2367 18.0863 65.3386C16.8902 68.9335 16.3342 72.6492 16.4185 76.4858C16.4281 77 16.4774 77.4195 16.5665 77.7441C16.6772 78.1541 16.8372 78.5486 17.0466 78.9278C17.3835 79.5321 17.8709 79.6932 18.5086 79.4112C19.6903 78.8899 20.6698 78.0261 21.4471 76.8199C25.5552 70.4477 27.2543 63.4689 26.5443 55.8834C26.4938 55.3526 26.217 54.8787 25.714 54.4616C25.6235 54.3862 25.5088 54.3469 25.3927 54.3514Z" stroke="#FCBF99" stroke-width="2"/>
<path d="M50.9069 9.63624C50.9358 9.59516 50.9469 9.54447 50.9378 9.49532C50.9288 9.44616 50.9002 9.40257 50.8585 9.37412L50.8466 9.36602C50.8049 9.33758 50.7534 9.32662 50.7035 9.33556C50.6536 9.34449 50.6093 9.37258 50.5804 9.41365L46.6717 14.972C46.6428 15.0131 46.6317 15.0638 46.6408 15.1129C46.6499 15.1621 46.6784 15.2057 46.7201 15.2341L46.732 15.2422C46.7737 15.2707 46.8252 15.2816 46.8751 15.2727C46.925 15.2638 46.9693 15.2357 46.9982 15.1946L50.9069 9.63624Z" stroke="#EF8140" stroke-width="2"/>
<path d="M49.0097 16.2691C49.046 16.2929 49.1351 16.238 49.272 16.1074C49.4089 15.9768 49.5908 15.7731 49.8075 15.5079C50.0242 15.2427 50.2713 14.9213 50.5348 14.5619C50.7982 14.2025 51.0729 13.8123 51.343 13.4134C51.6132 13.0146 51.8735 12.615 52.1092 12.2374C52.3449 11.8598 52.5513 11.5116 52.7167 11.2127C52.882 10.9139 53.0031 10.6701 53.0729 10.4955C53.1428 10.3209 53.1601 10.2187 53.1238 10.1949C53.0875 10.171 52.9984 10.226 52.8615 10.3566C52.7246 10.4872 52.5426 10.6909 52.3259 10.9561C52.1093 11.2212 51.8621 11.5427 51.5987 11.9021C51.3352 12.2614 51.0606 12.6517 50.7904 13.0505C50.5203 13.4494 50.2599 13.849 50.0243 14.2266C49.7886 14.6042 49.5822 14.9524 49.4168 15.2512C49.2514 15.5501 49.1304 15.7938 49.0605 15.9685C48.9907 16.1431 48.9734 16.2453 49.0097 16.2691Z" stroke="#EF8140" stroke-width="2"/>
<path d="M68.4967 11.5947C68.5055 11.5837 68.512 11.571 68.5158 11.5576C68.5196 11.5441 68.5207 11.53 68.519 11.5161C68.5173 11.5022 68.5128 11.4887 68.5058 11.4765C68.4988 11.4643 68.4895 11.4536 68.4783 11.445L68.3988 11.3836C68.3876 11.3749 68.3748 11.3685 68.3611 11.3648C68.3474 11.361 68.333 11.3599 68.3189 11.3616C68.3048 11.3633 68.2912 11.3677 68.2788 11.3746C68.2664 11.3814 68.2555 11.3906 68.2467 11.4017L63.9967 16.7388C63.9879 16.7498 63.9814 16.7624 63.9776 16.7759C63.9738 16.7894 63.9727 16.8035 63.9744 16.8174C63.9761 16.8313 63.9806 16.8447 63.9876 16.8569C63.9946 16.8691 64.0039 16.8799 64.0151 16.8885L64.0946 16.9499C64.1058 16.9585 64.1186 16.9649 64.1323 16.9687C64.146 16.9725 64.1604 16.9735 64.1745 16.9719C64.1886 16.9702 64.2022 16.9658 64.2146 16.9589C64.227 16.952 64.2379 16.9428 64.2467 16.9318L68.4967 11.5947Z" stroke="#EF8140" stroke-width="2"/>
<path d="M69.3356 13.4763C69.3497 13.4561 69.355 13.4312 69.3505 13.4071C69.3459 13.383 69.3318 13.3617 69.3112 13.3478L69.2517 13.3077C69.2311 13.2938 69.2058 13.2886 69.1814 13.2931C69.1569 13.2976 69.1353 13.3115 69.1212 13.3317L67.2 16.0945C67.1859 16.1148 67.1806 16.1396 67.1852 16.1637C67.1898 16.1878 67.2039 16.2091 67.2244 16.223L67.284 16.2632C67.3045 16.277 67.3298 16.2823 67.3543 16.2777C67.3787 16.2732 67.4004 16.2594 67.4144 16.2391L69.3356 13.4763Z" stroke="#EF8140" stroke-width="2"/>
<path d="M38.6098 16.3786C38.6578 16.4176 38.825 16.3108 39.0747 16.0816C39.3244 15.8524 39.636 15.5196 39.9411 15.1564C40.2463 14.7932 40.5199 14.4294 40.7017 14.145C40.8836 13.8605 40.9588 13.6788 40.9109 13.6397C40.8629 13.6007 40.6957 13.7075 40.446 13.9367C40.1963 14.1659 39.8847 14.4987 39.5796 14.8619C39.2744 15.2251 39.0008 15.5889 38.819 15.8734C38.6371 16.1578 38.5619 16.3395 38.6098 16.3786Z" stroke="#EF8140" stroke-width="2"/>
<path d="M46.3346 28.7229C43.8582 28.2585 41.602 28.6601 39.566 29.9279C38.9211 30.3284 38.4301 30.7597 38.0932 31.2218C37.7009 31.7621 37.4314 32.3723 37.2845 33.0524C37.1811 33.5311 37.3483 33.6543 37.7863 33.4221C38.2773 33.159 38.7839 32.838 39.3061 32.4588C39.9751 31.9706 40.4793 31.6555 40.8187 31.5133C41.7211 31.1341 42.679 30.9635 43.6922 31.0014C43.9136 31.0085 44.4105 30.9884 45.1831 30.941C45.8377 30.8983 46.2997 30.7609 46.5693 30.5287C47.0289 30.1329 47.0434 29.5926 46.6126 28.9078C46.583 28.8607 46.543 28.82 46.4952 28.7882C46.4473 28.7564 46.3927 28.7342 46.3346 28.7229Z" stroke="#854E3F" stroke-width="2"/>
<path d="M38.652 36.4219C38.3031 36.8603 38.3115 37.1743 38.6773 37.3638" stroke="#875242" stroke-width="2"/>
<path d="M38.6777 37.3638C39.5369 37.897 40.4081 37.9349 41.2913 37.4775" stroke="#E6A88D" stroke-width="2"/>
<path d="M41.291 37.4775C41.7723 37.705 42.2621 37.7619 42.7603 37.6482C43.2344 37.5392 43.5701 37.2536 43.7674 36.7915C43.9936 36.2678 44.0538 35.7003 43.9479 35.0889" stroke="#875242" stroke-width="2"/>
<path d="M43.9481 35.0889C44.9565 35.0155 45.9107 35.3982 46.8108 36.237C47.0538 36.4622 47.1284 36.4171 47.0346 36.102C46.6953 34.9621 46.0322 34.2394 45.0455 33.9337C44.2489 33.6872 43.2538 33.6422 42.0601 33.7986C40.3755 34.0214 39.2396 34.8958 38.6523 36.4219" stroke="#B86146" stroke-width="2"/>
<path d="M43.9481 35.0892C42.8194 34.402 41.8134 34.4778 40.9302 35.3167C40.8436 35.3996 40.7425 35.4577 40.627 35.4909C40.1938 35.6188 39.8545 35.8037 39.609 36.0454C39.313 36.3345 38.9941 36.4601 38.6523 36.4222" stroke="#532728" stroke-width="2"/>
<path d="M41.2913 37.4779C41.0771 37.0348 40.9676 36.6296 40.9628 36.2622C40.9532 35.8381 40.7727 35.761 40.4213 36.0312L38.6777 37.3642" stroke="#816E6F" stroke-width="2"/>
<path d="M66.3655 39.6C65.2657 38.6048 64.0696 38.0846 62.7773 38.0396C61.7954 38.0088 60.8544 38.1391 59.9543 38.4306C59.0133 38.7339 58.2179 39.305 57.5681 40.1439C56.9617 40.9306 56.999 41.734 57.6801 42.5539C59.3358 44.5516 61.3477 45.0267 63.7158 43.9793C64.7796 43.5101 65.7049 42.8714 66.4919 42.0634C66.889 41.6581 67.0779 41.2648 67.0586 40.8832C67.037 40.4235 66.8059 39.9958 66.3655 39.6Z" stroke="#E57B5C" stroke-width="2"/>
<path d="M44.1941 39.294C43.3108 38.6566 42.211 38.3805 40.8946 38.4658C39.1354 38.5795 37.683 39.1044 36.5374 40.0405C35.6951 40.7253 35.5302 41.5263 36.0429 42.4434C36.6926 43.6022 37.6481 44.5216 38.9091 45.2017C39.5517 45.5501 40.2424 45.6662 40.9812 45.5501C42.3963 45.3297 43.5563 44.7361 44.4612 43.7692C45.1014 43.0844 45.4311 42.3652 45.4503 41.6116C45.4768 40.6874 45.058 39.9149 44.1941 39.294Z" stroke="#EA7D60" stroke-width="2"/>
<path d="M47.1747 53.0435C47.0496 54.752 47.0989 55.8693 47.3227 56.3954C48.3528 58.8149 49.9544 59.7509 52.1276 59.2035C53.4512 58.8718 54.4319 58.2391 55.0697 57.3054C55.7796 56.2651 55.93 54.9961 55.5209 53.4984" stroke="#8D5B58" stroke-width="2"/>
<path d="M55.5215 53.4981C56.0317 53.0716 56.4179 52.5953 56.6802 52.0692C56.6894 52.05 56.6941 52.0291 56.6937 52.0079C56.6934 51.9867 56.6882 51.9659 56.6784 51.947C56.6687 51.9281 56.6547 51.9117 56.6374 51.899C56.6202 51.8863 56.6003 51.8776 56.5792 51.8737C53.2195 51.2575 49.8515 51.1971 46.475 51.6924C46.4581 51.6948 46.3041 51.7137 46.0129 51.7493C45.4473 51.818 45.3595 51.9744 45.7494 52.2185C45.8288 52.2659 45.966 52.3239 46.1609 52.3926C46.5508 52.5277 46.8889 52.7445 47.1753 53.0431" stroke="#F8CFC3" stroke-width="2"/>
<path d="M55.5219 53.4982C52.8482 52.7991 50.0661 52.6474 47.1758 53.0432" stroke="#90858F" stroke-width="2"/>
<path d="M87.5524 85.0451C83.4828 82.9668 80.986 81.6291 80.0618 81.032C79.128 80.4277 78.2508 80.0284 77.4302 79.8341C77.1943 79.7772 76.9934 79.6943 76.8273 79.5852C76.6444 79.462 76.4639 79.3376 76.2858 79.212C76.0067 79.013 75.7191 78.8566 75.4231 78.7428C73.8515 78.1338 72.28 77.4975 70.7085 76.834C68.3308 76.8056 66.4127 76.0176 64.9543 74.4702C64.42 73.9015 64.0614 73.2131 63.8785 72.405C63.7028 71.6254 63.615 70.8339 63.615 70.0305C63.6126 69.0826 63.6114 68.5957 63.6114 68.5696C63.5632 67.2141 63.5163 65.8575 63.4706 64.4996C68.3392 58.9545 70.2248 52.4686 69.1273 45.0419C69.1659 44.7859 69.2705 44.6947 69.4414 44.7682C69.4832 44.7865 69.5212 44.8214 69.5516 44.8694C69.5819 44.9173 69.6037 44.9767 69.6147 45.0419C69.6821 45.4163 69.8674 45.6592 70.1706 45.7705C70.3872 45.8487 70.658 45.8262 70.9829 45.703C73.3245 44.8191 74.4893 43.0584 74.4773 40.4209C74.4628 36.9682 72.7409 35.2336 69.3115 35.217C69.4847 31.9657 69.4787 28.8057 69.2934 25.7369L68.8241 23.0639C71.5243 21.353 73.0706 18.9915 73.4629 15.9796C73.6265 14.7284 73.6578 13.6644 73.5567 12.7876C73.4316 11.6975 73.0525 10.675 72.4196 9.72001C71.9912 9.08019 71.463 8.62757 70.8348 8.36217C69.1382 7.65125 67.3404 7.49603 65.4416 7.89652C64.5054 8.0932 63.8472 7.8432 63.467 7.1465C63.4062 7.03364 63.3235 6.94848 63.2323 6.90479C62.5802 6.60384 61.9689 6.67967 61.3985 7.13228C60.8883 7.5375 60.4695 7.46049 60.1423 6.90123C59.9353 6.55052 59.685 6.24127 59.3914 5.97349C59.1435 5.74837 58.8042 5.54694 58.3734 5.36921C56.9198 4.77204 55.4854 4.42962 54.0704 4.34194C49.9911 4.09312 46.084 4.92252 42.3489 6.83014C41.1215 7.45575 40.3201 8.42378 39.9447 9.73423C39.7714 10.3433 39.5091 10.9108 39.1577 11.4369C38.5513 12.3397 37.7126 12.5779 36.6416 12.1513C35.2506 11.5992 33.9113 11.675 32.6238 12.3788C30.7779 13.3883 29.5325 14.886 28.8875 16.8718C28.3821 18.4335 28.4964 19.9809 29.2305 21.5141C29.9428 23.0023 31.1233 23.6516 32.7718 23.462L32.6743 24.7488L32.6238 35.3165C32.3061 35.2525 31.9981 35.185 31.6996 35.1139C31.3411 35.0286 31.0282 34.9954 30.7611 35.0144C29.2304 35.121 28.133 35.8047 27.4688 37.0654C26.6554 38.6128 26.5483 40.3557 27.1475 42.2942C27.5855 43.7136 28.4651 44.7753 29.7864 45.4791C30.3856 45.799 30.9897 45.9198 31.5986 45.8416C32.0269 45.7871 32.4986 45.6284 33.0137 45.3653C32.8356 47.8583 32.9896 50.305 33.4757 52.7055C34.3421 56.9876 36.3023 60.6974 39.3563 63.8349C39.1517 66.207 39.0952 68.5329 39.1866 70.8125C39.2492 72.3126 38.9688 73.4903 38.3455 74.3458C37.8112 75.0757 37.1566 75.5567 36.3817 75.789C34.6153 76.3174 33.3217 76.7368 32.501 77.0473C30.6455 77.8435 28.7732 78.6018 26.884 79.3222C26.5206 79.462 26.3401 79.7037 26.3425 80.0473C26.3425 80.0604 26.3399 80.0734 26.3348 80.0854C26.3297 80.0975 26.3223 80.1085 26.3129 80.1177C26.294 80.1364 26.2682 80.1469 26.2414 80.1469C25.3197 80.1421 24.6085 80.295 24.108 80.6054C23.5737 80.9395 23.2933 81.1125 23.2669 81.1244C20.3789 82.4135 17.5259 83.7749 14.7077 85.2086C7.47343 77.7511 3.09339 68.8931 1.5676 58.6346C0.862458 53.8951 0.814328 49.1723 1.4232 44.466C1.72162 42.1437 2.19933 39.8214 2.85634 37.499C5.26536 28.9775 9.57441 21.6207 15.7835 15.4287C22.8228 8.40245 31.3001 3.92131 41.2154 1.98525C43.5522 1.53027 45.9372 1.23287 48.3703 1.09306C60.7162 0.384509 71.688 3.72226 81.2856 11.1063C83.1627 12.5518 84.94 14.1455 86.6174 15.8872C94.5063 24.077 99.18 33.8248 100.638 45.1307C101.206 49.5265 101.105 54.1984 100.335 59.1464C98.831 68.8362 94.7434 77.3684 88.0722 84.7429C87.899 84.9325 87.7257 85.0332 87.5524 85.0451ZM20.2129 24.4644C19.8495 24.4146 19.4933 24.5805 19.1443 24.962C16.7401 27.5664 15.5561 30.6067 15.5922 34.0831C15.5994 34.749 15.698 35.2845 15.8882 35.6898C16.2588 36.4836 16.8195 36.749 17.5704 36.486C18.1095 36.2964 18.6197 35.8817 19.101 35.2419C19.7436 34.3912 20.2093 33.3923 20.498 32.2454C21.0732 29.9633 21.2188 27.6102 20.9348 25.186C20.8843 24.7618 20.6436 24.5213 20.2129 24.4644ZM83.1194 75.2487C84.1037 75.9311 85.1927 76.4371 86.3864 76.7665C87.1204 76.9703 87.615 76.7179 87.8701 76.0093C88.1204 75.3174 88.0145 74.6219 87.5524 73.9228C86.9869 73.065 86.5729 72.495 86.3106 72.2131C84.2289 69.9713 82.7849 67.6608 81.9787 65.2816C80.1015 59.727 80.9138 54.4982 84.4154 49.5953C84.8293 49.0171 86.1481 47.4542 88.3719 44.9068C88.8941 44.312 89.2551 43.8262 89.4548 43.4494C89.746 42.8996 89.9506 42.325 90.0685 41.7254C90.2201 40.9505 89.8952 40.5453 89.0938 40.5098C88.2299 40.4719 87.42 40.6531 86.6644 41.0536C84.9629 41.9589 83.4672 43.1212 82.1772 44.5407C77.0824 50.1545 75.1246 56.7483 76.3039 64.3219C76.8237 67.6656 78.2123 70.5258 80.4697 72.9026C81.4107 73.8932 82.294 74.6752 83.1194 75.2487ZM21.4655 41.2136C21.0901 40.8889 20.7062 40.8818 20.3139 41.1922C19.1491 42.1188 18.1636 43.171 17.3574 44.3487C14.3732 48.7185 12.4347 53.5041 11.5418 58.7057C11.1856 60.772 11.1098 62.6583 11.3144 64.3645C11.3649 64.7769 11.4949 65.0707 11.7043 65.2461C12.0677 65.5518 12.4648 65.4451 12.8955 64.9262C13.141 64.6276 13.3769 64.0494 13.6031 63.1915C13.6994 62.829 13.8197 62.2199 13.9641 61.3645C14.662 57.2293 15.8545 53.6025 17.5415 50.4839C18.8916 47.9886 20.2297 45.485 21.5558 42.9731C21.9625 42.2029 21.9324 41.6164 21.4655 41.2136ZM25.3931 54.3513C24.7505 54.3726 24.1946 54.6392 23.7253 55.1511C22.3608 56.6393 21.2248 58.24 20.3175 59.9533C19.5282 61.4415 18.7845 63.2366 18.0866 65.3385C16.8905 68.9334 16.3346 72.6491 16.4188 76.4856C16.4285 76.9999 16.4778 77.4193 16.5668 77.744C16.6775 78.1539 16.8376 78.5485 17.047 78.9276C17.3839 79.5319 17.8712 79.6931 18.509 79.4111C19.6906 78.8897 20.6701 78.026 21.4475 76.8198C25.5555 70.4476 27.2546 63.4688 26.5447 55.8833C26.4941 55.3525 26.2174 54.8786 25.7144 54.4615C25.6238 54.3861 25.5092 54.3468 25.3931 54.3513Z" fill="#FDE8E1"/>
<path d="M68.8238 23.0639C67.274 23.4501 65.7253 23.661 64.1779 23.6966C61.8892 23.7534 59.6041 23.6871 57.3226 23.4975C51.4072 23.0046 45.4809 22.7771 39.5437 22.815C38.7159 22.8198 37.9313 22.7949 37.1901 22.7404C36.4103 22.6811 35.6294 22.6207 34.8472 22.5591C34.0651 22.4975 33.3732 22.7984 32.7715 23.462C31.123 23.6515 29.9425 23.0022 29.2302 21.5141C28.4962 19.9809 28.3819 18.4334 28.8872 16.8718C29.5322 14.886 30.7776 13.3883 32.6235 12.3788C33.9111 11.675 35.2503 11.5992 36.6414 12.1513C37.7123 12.5779 38.551 12.3397 39.1575 11.4368C39.5088 10.9108 39.7712 10.3432 39.9444 9.73419C40.3199 8.42373 41.1213 7.4557 42.3487 6.8301C46.0837 4.92247 49.9909 4.09307 54.0701 4.34189C55.4852 4.42957 56.9195 4.772 58.3731 5.36917C58.8039 5.54689 59.1432 5.74832 59.3911 5.97344C59.6847 6.24122 59.935 6.55047 60.142 6.90119C60.4693 7.46044 60.888 7.53746 61.3982 7.13224C61.9686 6.67962 62.5799 6.60379 63.2321 6.90474C63.3232 6.94843 63.4059 7.0336 63.4667 7.14645C63.847 7.84315 64.5052 8.09316 65.4413 7.89647C67.3402 7.49599 69.1379 7.6512 70.8346 8.36212C71.4627 8.62753 71.9909 9.08014 72.4193 9.71997C73.0523 10.675 73.4313 11.6975 73.5565 12.7876C73.6575 13.6644 73.6263 14.7284 73.4626 15.9796C73.0703 18.9915 71.5241 21.3529 68.8238 23.0639ZM50.9063 9.63626C50.9352 9.59518 50.9464 9.54449 50.9373 9.49534C50.9282 9.44618 50.8997 9.40259 50.858 9.37414L50.8461 9.36604C50.8044 9.3376 50.7529 9.32664 50.703 9.33558C50.6531 9.34451 50.6088 9.3726 50.5799 9.41367L46.6712 14.972C46.6423 15.0131 46.6312 15.0638 46.6402 15.113C46.6493 15.1621 46.6778 15.2057 46.7196 15.2341L46.7314 15.2423C46.7731 15.2707 46.8246 15.2817 46.8745 15.2727C46.9245 15.2638 46.9687 15.2357 46.9976 15.1946L50.9063 9.63626ZM49.0096 16.269C49.0459 16.2928 49.135 16.2379 49.2719 16.1073C49.4088 15.9767 49.5907 15.773 49.8074 15.5078C50.0241 15.2426 50.2712 14.9212 50.5347 14.5618C50.7981 14.2025 51.0728 13.8122 51.3429 13.4134C51.6131 13.0145 51.8734 12.6149 52.1091 12.2373C52.3448 11.8597 52.5512 11.5115 52.7166 11.2126C52.8819 10.9138 53.003 10.6701 53.0728 10.4954C53.1427 10.3208 53.16 10.2186 53.1237 10.1948C53.0874 10.1709 52.9983 10.2259 52.8614 10.3565C52.7245 10.4871 52.5425 10.6908 52.3258 10.956C52.1092 11.2211 51.862 11.5426 51.5986 11.902C51.3351 12.2613 51.0605 12.6516 50.7903 13.0504C50.5202 13.4493 50.2598 13.8489 50.0242 14.2265C49.7885 14.6041 49.5821 14.9523 49.4167 15.2511C49.2513 15.55 49.1303 15.7937 49.0604 15.9684C48.9906 16.143 48.9733 16.2452 49.0096 16.269ZM68.4964 11.5947C68.5051 11.5837 68.5116 11.5711 68.5154 11.5576C68.5193 11.5441 68.5204 11.53 68.5186 11.5161C68.5169 11.5022 68.5125 11.4887 68.5055 11.4765C68.4985 11.4643 68.4891 11.4536 68.4779 11.445L68.3984 11.3836C68.3872 11.3749 68.3744 11.3686 68.3607 11.3648C68.347 11.361 68.3327 11.3599 68.3186 11.3616C68.3045 11.3633 68.2908 11.3677 68.2784 11.3746C68.266 11.3814 68.2551 11.3907 68.2464 11.4017L63.9964 16.7388C63.9876 16.7498 63.9811 16.7624 63.9773 16.7759C63.9735 16.7894 63.9724 16.8035 63.9741 16.8174C63.9758 16.8313 63.9803 16.8448 63.9872 16.857C63.9942 16.8692 64.0036 16.8799 64.0148 16.8885L64.0943 16.9499C64.1055 16.9586 64.1183 16.9649 64.132 16.9687C64.1457 16.9725 64.16 16.9736 64.1741 16.9719C64.1883 16.9702 64.2019 16.9658 64.2143 16.9589C64.2267 16.952 64.2376 16.9428 64.2464 16.9318L68.4964 11.5947ZM69.3357 13.4761C69.3498 13.4559 69.3551 13.431 69.3505 13.4069C69.346 13.3828 69.3319 13.3615 69.3113 13.3477L69.2518 13.3075C69.2312 13.2937 69.2059 13.2884 69.1815 13.2929C69.157 13.2974 69.1354 13.3113 69.1213 13.3315L67.2001 16.0944C67.186 16.1146 67.1807 16.1395 67.1853 16.1636C67.1899 16.1877 67.204 16.209 67.2245 16.2228L67.2841 16.263C67.3046 16.2768 67.3299 16.2821 67.3544 16.2776C67.3788 16.2731 67.4005 16.2592 67.4145 16.239L69.3357 13.4761ZM38.6098 16.3786C38.6578 16.4176 38.825 16.3108 39.0747 16.0816C39.3243 15.8524 39.636 15.5196 39.9411 15.1564C40.2463 14.7933 40.5199 14.4294 40.7017 14.145C40.8836 13.8605 40.9588 13.6788 40.9109 13.6397C40.8629 13.6007 40.6957 13.7076 40.446 13.9368C40.1963 14.166 39.8847 14.4988 39.5796 14.8619C39.2744 15.2251 39.0008 15.5889 38.819 15.8734C38.6371 16.1578 38.5619 16.3396 38.6098 16.3786Z" fill="#FC9149"/>
<path d="M50.8586 9.37413L50.8468 9.36604C50.7599 9.30681 50.6407 9.32813 50.5805 9.41367L46.6718 14.972C46.6117 15.0576 46.6333 15.1749 46.7202 15.2342L46.7321 15.2423C46.8189 15.3015 46.9381 15.2802 46.9983 15.1946L50.907 9.63627C50.9672 9.55072 50.9455 9.43336 50.8586 9.37413Z" fill="#E27136"/>
<path d="M50.7908 13.0507C49.6547 14.728 48.8574 16.169 49.01 16.2692C49.1626 16.3694 50.2073 15.0909 51.3434 13.4136C52.4794 11.7362 53.2767 10.2952 53.1241 10.195C52.9715 10.0948 51.9268 11.3733 50.7908 13.0507Z" fill="#E27136"/>
<path d="M68.4782 11.4451L68.3987 11.3837C68.3516 11.3473 68.2836 11.3554 68.2467 11.4018L63.9967 16.7389C63.9598 16.7852 63.968 16.8523 64.0151 16.8886L64.0946 16.95C64.1417 16.9864 64.2098 16.9782 64.2467 16.9319L68.4966 11.5948C68.5335 11.5485 68.5253 11.4814 68.4782 11.4451Z" fill="#E27136"/>
<path d="M69.3118 13.3477L69.2522 13.3076C69.2095 13.2787 69.1511 13.2895 69.1218 13.3316L67.2006 16.0944C67.1713 16.1366 67.1822 16.1941 67.225 16.2229L67.2846 16.2631C67.3273 16.2919 67.3858 16.2812 67.415 16.239L69.3362 13.4762C69.3655 13.4341 69.3546 13.3766 69.3118 13.3477Z" fill="#E27136"/>
<path d="M39.5797 14.862C38.9443 15.6183 38.5101 16.2973 38.6099 16.3787C38.7098 16.46 39.3059 15.9128 39.9413 15.1565C40.5767 14.4002 41.0109 13.7212 40.911 13.6398C40.8111 13.5585 40.2151 14.1057 39.5797 14.862Z" fill="#E27136"/>
<path d="M68.8236 23.0639L69.2929 25.7369C67.05 26.3104 64.5928 26.3175 61.9214 25.7582C60.2561 25.4099 57.7038 25.0473 54.2648 24.6705C52.4911 24.4762 50.9124 24.3601 49.5286 24.3222C47.5961 24.2653 46.0113 24.2997 44.7743 24.4253C42.4327 24.6646 40.0874 24.8495 37.7386 24.9798C36.9323 25.0272 36.0888 25.0153 35.208 24.9442C34.3729 24.8755 33.5282 24.8104 32.6738 24.7487L32.7713 23.462C33.373 22.7985 34.0649 22.4975 34.847 22.5591C35.6292 22.6207 36.4101 22.6812 37.1898 22.7404C37.9311 22.7949 38.7156 22.8198 39.5435 22.8151C45.4806 22.7771 51.4069 23.0046 57.3224 23.4975C59.6039 23.6871 61.889 23.7535 64.1777 23.6966C65.7251 23.661 67.2738 23.4501 68.8236 23.0639Z" fill="#D16047"/>
<path d="M69.2937 25.7372C69.479 28.806 69.485 31.966 69.3117 35.2173L68.7088 38.0467C68.9158 39.1794 68.9266 40.4046 68.7413 41.7221C68.3394 42.189 68.3178 42.7328 68.6763 43.3537C68.3226 43.6784 68.0518 44.0634 67.8641 44.5089C67.6186 44.4402 67.4502 44.5066 67.3587 44.708C66.6752 46.2673 65.8859 47.7709 64.9906 49.2188C64.4178 50.1453 63.5623 51.0837 62.424 52.034C62.3876 52.0652 62.3406 52.0822 62.2911 52.0822C62.2416 52.0822 62.1928 52.0652 62.1532 52.034C62.0064 51.9155 61.844 51.8361 61.6659 51.7958C61.6803 51.4759 61.6695 51.1584 61.6334 50.8432C61.5973 50.5328 61.4661 50.2567 61.2399 50.015C59.8344 48.5363 58.0764 47.7033 55.9658 47.5161C55.9586 47.3052 56.0031 47.1251 56.0994 46.9758C57.2329 46.5374 57.8177 45.8395 57.8538 44.8822C57.8682 44.4651 57.6673 43.9212 57.2509 43.2506C56.5506 42.125 56.1222 41.0634 55.9658 40.0657C55.831 39.2126 56.0873 38.3275 56.7347 37.4104C57.4663 36.3678 58.4422 35.6971 59.6624 35.3986C59.1835 36.6213 59.3579 37.3548 60.1858 37.5988C61.9474 38.1178 62.6755 37.478 62.3698 35.6794C62.3313 35.4542 62.4095 35.4045 62.6045 35.5301C63.4564 36.0727 64.2879 36.6616 65.0989 37.2967C65.2289 37.3962 65.3372 37.4176 65.4238 37.3607C65.458 37.338 65.4791 37.2957 65.483 37.2414C65.487 37.1872 65.4737 37.1247 65.4455 37.0656L65.0664 36.2445C65.3961 35.2303 65.1675 34.4234 64.3805 33.8239C63.5262 33.1722 62.8812 32.562 62.4456 31.9933C63.5527 32.3843 64.5911 32.8772 65.561 33.472C65.7415 33.5833 65.8185 33.5348 65.792 33.3262C65.7054 32.6082 65.4503 31.9672 65.0267 31.4032C64.6874 30.9459 64.1724 30.5193 63.4817 30.1236C61.7754 29.1425 59.9018 28.684 57.861 28.7479C56.9561 28.7764 56.4146 29.1721 56.2365 29.9352C56.1451 30.3262 56.328 30.7124 56.7853 31.094C56.4315 31.229 56.0573 31.1722 55.6626 30.9233C55.6165 30.8948 55.5636 30.8796 55.5104 30.8796C55.4572 30.8796 55.406 30.8948 55.3629 30.9233C54.2005 31.7196 53.3835 32.7824 52.9118 34.1118C52.4401 35.3725 52.167 36.6758 52.0924 38.0218C51.9528 40.6285 51.9913 43.3762 52.2079 46.2649C52.2202 46.4334 52.1746 46.6013 52.0785 46.7417C51.9823 46.8821 51.8411 46.9871 51.6772 47.0398C51.0419 47.246 50.4811 47.6642 49.995 48.2946C46.5487 46.7637 43.6355 47.3633 41.2554 50.0932C40.7163 50.6809 40.4985 51.3752 40.602 52.1762C40.6573 52.6146 40.4985 52.7129 40.1254 52.4712C38.347 51.3219 36.9463 49.8005 35.9235 47.9071C35.6588 47.4166 35.2701 46.6535 34.7575 45.618C34.3821 44.862 34.0511 44.0705 33.7648 43.2435C34.133 42.708 33.9272 42.3596 33.1475 42.1985C33.4844 40.5136 33.3893 38.8595 32.8623 37.2363C32.9585 36.5396 32.8791 35.8997 32.624 35.3168L32.6746 24.749C33.5289 24.8107 34.3736 24.8758 35.2087 24.9445C36.0896 25.0156 36.9331 25.0275 37.7393 24.9801C40.0881 24.8498 42.4334 24.6649 44.775 24.4256C46.012 24.3 47.5968 24.2656 49.5293 24.3225C50.9131 24.3604 52.4918 24.4765 54.2655 24.6708C57.7046 25.0476 60.2568 25.4102 61.9222 25.7585C64.5935 26.3178 67.0507 26.3107 69.2937 25.7372ZM46.3345 28.7231C43.8581 28.2586 41.6019 28.6603 39.5659 29.9281C38.9209 30.3285 38.43 30.7598 38.0931 31.2219C37.7008 31.7622 37.4312 32.3724 37.2844 33.0525C37.181 33.5312 37.3482 33.6544 37.7862 33.4222C38.2772 33.1592 38.7838 32.8381 39.306 32.4589C39.975 31.9708 40.4792 31.6556 40.8186 31.5134C41.721 31.1342 42.6789 30.9636 43.6921 31.0015C43.9135 31.0086 44.4104 30.9885 45.183 30.9411C45.8376 30.8985 46.2996 30.761 46.5692 30.5288C47.0288 30.133 47.0433 29.5927 46.6125 28.9079C46.5829 28.8608 46.5429 28.8201 46.4951 28.7883C46.4472 28.7565 46.3926 28.7343 46.3345 28.7231ZM38.6526 36.4223C38.3036 36.8607 38.3121 37.1747 38.6779 37.3642C39.537 37.8974 40.4082 37.9353 41.2915 37.478C41.7728 37.7055 42.2625 37.7623 42.7607 37.6486C43.2348 37.5396 43.5705 37.254 43.7679 36.7919C43.9941 36.2682 44.0543 35.7007 43.9484 35.0893C44.9567 35.0158 45.911 35.3986 46.811 36.2374C47.0541 36.4626 47.1287 36.4175 47.0348 36.1024C46.6955 34.9625 46.0325 34.2398 45.0458 33.9341C44.2492 33.6876 43.254 33.6426 42.0604 33.799C40.3757 34.0217 39.2398 34.8962 38.6526 36.4223ZM66.366 39.6001C65.2662 38.6048 64.0701 38.0846 62.7777 38.0396C61.7958 38.0088 60.8548 38.1391 59.9548 38.4306C59.0138 38.7339 58.2184 39.305 57.5686 40.1439C56.9621 40.9307 56.9994 41.734 57.6805 42.5539C59.3363 44.5516 61.3482 45.0267 63.7163 43.9793C64.78 43.5101 65.7054 42.8715 66.4923 42.0634C66.8894 41.6582 67.0784 41.2648 67.0591 40.8833C67.0374 40.4235 66.8064 39.9958 66.366 39.6001ZM44.1938 39.2944C43.3106 38.6569 42.2108 38.3808 40.8944 38.4662C39.1351 38.5799 37.6827 39.1048 36.5372 40.0408C35.6949 40.7257 35.53 41.5266 36.0426 42.4437C36.6924 43.6025 37.6478 44.522 38.9089 45.2021C39.5515 45.5504 40.2422 45.6665 40.981 45.5504C42.3961 45.33 43.5561 44.7364 44.461 43.7696C45.1011 43.0847 45.4308 42.3655 45.4501 41.612C45.4766 40.6878 45.0578 39.9152 44.1938 39.2944Z" fill="#EB8B60"/>
<path d="M20.2133 24.4642C20.6441 24.5211 20.8847 24.7616 20.9353 25.1858C21.2193 27.61 21.0737 29.9631 20.4985 32.2452C20.2097 33.3921 19.744 34.3909 19.1014 35.2417C18.6201 35.8815 18.1099 36.2962 17.5708 36.4858C16.82 36.7488 16.2592 36.4834 15.8886 35.6895C15.6985 35.2843 15.5998 34.7488 15.5926 34.0829C15.5565 30.6065 16.7406 27.5661 19.1448 24.9618C19.4937 24.5803 19.8499 24.4144 20.2133 24.4642Z" fill="#F2C2B6"/>
<path d="M46.6126 28.9078C47.0434 29.5926 47.0289 30.1329 46.5693 30.5287C46.2997 30.7609 45.8377 30.8983 45.1831 30.941C44.4105 30.9884 43.9136 31.0085 43.6922 31.0014C42.679 30.9635 41.7211 31.1341 40.8187 31.5133C40.4793 31.6555 39.9751 31.9706 39.3061 32.4588C38.7839 32.838 38.2773 33.159 37.7863 33.4221C37.3483 33.6543 37.1811 33.5311 37.2845 33.0524C37.4314 32.3723 37.7009 31.7621 38.0932 31.2218C38.4301 30.7597 38.9211 30.3284 39.566 29.9279C41.602 28.6601 43.8582 28.2585 46.3346 28.7229C46.3927 28.7342 46.4473 28.7564 46.4952 28.7882C46.543 28.82 46.583 28.8607 46.6126 28.9078Z" fill="#1E111E"/>
<path d="M62.4448 31.9929C61.3065 31.4621 60.0791 31.2192 58.7627 31.2642C58.0696 31.2855 57.4102 31.2287 56.7845 31.0936C56.3272 30.7121 56.1443 30.3258 56.2358 29.9348C56.4138 29.1718 56.9553 28.776 57.8602 28.7476C59.901 28.6836 61.7746 29.1421 63.4809 30.1232C64.1716 30.5189 64.6866 30.9455 65.0259 31.4028C65.4495 31.9668 65.7046 32.6078 65.7912 33.3259C65.8177 33.5344 65.7407 33.583 65.5602 33.4716C64.5903 32.8768 63.5519 32.3839 62.4448 31.9929Z" fill="#18111A"/>
<path d="M56.7852 31.0938C57.4109 31.2288 58.0703 31.2857 58.7634 31.2644C60.0798 31.2193 61.3072 31.4622 62.4455 31.9931C62.8811 32.5618 63.5261 33.172 64.3805 33.8237C65.1674 34.4232 65.396 35.2301 65.0663 36.2443L64.0736 35.4446C63.8618 34.7336 63.3865 34.3118 62.6477 34.1791C62.1279 34.0867 61.6056 34.0192 61.081 33.9765C60.2266 33.9078 59.7032 33.8794 59.5107 33.8912C58.5817 33.9433 57.8429 34.3936 57.2942 35.2419C56.8682 35.9055 56.6817 36.6282 56.7346 37.4102C56.0873 38.3273 55.8309 39.2124 55.9657 40.0655C56.1221 41.0632 56.5505 42.1248 57.2508 43.2504C57.6672 43.921 57.8681 44.4649 57.8537 44.882C57.8176 45.8393 57.2328 46.5372 56.0993 46.9756C56.198 46.4187 55.9693 46.2386 55.4134 46.4353C54.831 46.6391 54.3352 46.7943 53.9261 46.901C53.4352 47.0289 53.1825 46.8429 53.168 46.3429C53.1416 45.3073 53.0669 44.2848 52.9442 43.2753C52.7589 41.78 52.659 40.7622 52.6446 40.2219C52.6037 38.7053 52.6542 37.2112 52.7962 35.7396C52.8203 35.4908 52.872 35.2491 52.9514 35.0144C53.1728 34.3651 53.1596 34.0642 52.9117 34.1116C53.3834 32.7822 54.2005 31.7194 55.3629 30.9231C55.4059 30.8946 55.4571 30.8794 55.5103 30.8794C55.5635 30.8794 55.6164 30.8946 55.6625 30.9231C56.0572 31.172 56.4314 31.2288 56.7852 31.0938Z" fill="#C96042"/>
<path d="M43.9481 35.0889C42.8194 34.4017 41.8134 34.4775 40.9302 35.3164C40.8436 35.3993 40.7425 35.4574 40.627 35.4906C40.1938 35.6185 39.8545 35.8034 39.609 36.0451C39.313 36.3342 38.9941 36.4598 38.6523 36.4219C39.2396 34.8958 40.3755 34.0214 42.0601 33.7986C43.2538 33.6422 44.2489 33.6872 45.0455 33.9337C46.0322 34.2394 46.6953 34.9621 47.0346 36.102C47.1284 36.4171 47.0538 36.4622 46.8108 36.237C45.9107 35.3982 44.9565 35.0155 43.9481 35.0889Z" fill="#84362C"/>
<path d="M64.0733 35.4446C62.5788 34.6152 61.1084 34.5998 59.662 35.3984C58.4419 35.697 57.466 36.3676 56.7344 37.4103C56.6814 36.6283 56.8679 35.9055 57.2939 35.242C57.8426 34.3937 58.5814 33.9434 59.5104 33.8913C59.7029 33.8794 60.2264 33.9079 61.0807 33.9766C61.6054 34.0192 62.1276 34.0868 62.6474 34.1792C63.3863 34.3119 63.8616 34.7337 64.0733 35.4446Z" fill="#A94E39"/>
<path d="M52.911 34.1118C53.1588 34.0644 53.1721 34.3653 52.9507 35.0146C52.8712 35.2492 52.8195 35.4909 52.7954 35.7398C52.6535 37.2114 52.6029 38.7055 52.6438 40.2221C52.6583 40.7624 52.7581 41.7802 52.9434 43.2755C53.0662 44.285 53.1408 45.3075 53.1673 46.3431C53.1817 46.8431 53.4344 47.0291 53.9253 46.9011C54.3345 46.7945 54.8302 46.6393 55.4126 46.4355C55.9686 46.2388 56.1972 46.4189 56.0985 46.9758C56.0023 47.1251 55.9577 47.3052 55.965 47.5161C54.1985 47.3834 52.7437 47.9711 51.6006 49.2792C51.343 49.4972 50.9026 49.4427 50.2793 49.1156C50.3852 48.6962 50.2902 48.4225 49.9941 48.2945C50.4803 47.6642 51.041 47.2459 51.6764 47.0398C51.8402 46.987 51.9815 46.8821 52.0776 46.7417C52.1738 46.6013 52.2193 46.4334 52.207 46.2649C51.9904 43.3762 51.9519 40.6285 52.0915 38.0218C52.1661 36.6758 52.4393 35.3725 52.911 34.1118Z" fill="#A94E39"/>
<path d="M43.9478 35.0892C44.0537 35.7006 43.9935 36.2681 43.7673 36.7918C43.57 37.2539 43.2342 37.5395 42.7601 37.6485C42.262 37.7622 41.7722 37.7054 41.2909 37.4779C41.0767 37.0347 40.9672 36.6295 40.9624 36.2622C40.9528 35.838 40.7723 35.761 40.4209 36.0312L38.6773 37.3641C38.3115 37.1745 38.3031 36.8606 38.652 36.4222C38.9938 36.4601 39.3127 36.3345 39.6087 36.0454C39.8541 35.8037 40.1935 35.6188 40.6267 35.4909C40.7422 35.4577 40.8433 35.3996 40.9299 35.3167C41.8131 34.4778 42.8191 34.402 43.9478 35.0892Z" fill="#221824"/>
<path d="M64.073 35.4444L65.0658 36.2441L65.4448 37.0653C65.473 37.1243 65.4864 37.1868 65.4824 37.241C65.4784 37.2953 65.4574 37.3377 65.4231 37.3603C65.3365 37.4172 65.2282 37.3958 65.0983 37.2963C64.2872 36.6612 63.4557 36.0723 62.6038 35.5297C62.4089 35.4041 62.3306 35.4539 62.3692 35.679C62.6748 37.4776 61.9468 38.1174 60.1851 37.5984C59.3573 37.3544 59.1828 36.6209 59.6617 35.3982C61.1081 34.5996 62.5785 34.615 64.073 35.4444Z" fill="#332022"/>
<path d="M32.6232 35.3166C32.8783 35.8995 32.9577 36.5394 32.8614 37.2361C31.6413 36.4375 30.6558 36.5583 29.9049 37.5986C28.9326 38.9494 28.9711 40.3511 30.0204 41.8037C30.533 42.5122 31.1792 42.8807 31.9589 42.9092C32.4523 42.9258 32.8482 42.6888 33.1466 42.1983C33.9264 42.3594 34.1321 42.7077 33.7639 43.2433C33.2657 43.8286 33.0155 44.536 33.013 45.3654C32.498 45.6284 32.0263 45.7872 31.598 45.8417C30.9891 45.9199 30.385 45.799 29.7858 45.4791C28.4645 44.7753 27.5849 43.7137 27.1469 42.2942C26.5477 40.3558 26.6548 38.6129 27.4682 37.0654C28.1324 35.8047 29.2298 35.1211 30.7605 35.0144C31.0276 34.9955 31.3404 35.0287 31.699 35.114C31.9975 35.1851 32.3055 35.2526 32.6232 35.3166Z" fill="#F69674"/>
<path d="M69.3108 35.2168C72.7403 35.2334 74.4622 36.968 74.4766 40.4207C74.4887 43.0582 73.3239 44.8189 70.9822 45.7028C70.6573 45.826 70.3866 45.8485 70.17 45.7703C69.8668 45.659 69.6815 45.4161 69.6141 45.0416C69.6031 44.9765 69.5813 44.9171 69.5509 44.8692C69.5206 44.8212 69.4826 44.7863 69.4408 44.7679C69.2699 44.6945 69.1652 44.7857 69.1267 45.0416L68.6755 43.3532C68.3169 42.7324 68.3386 42.1885 68.7405 41.7217C69.306 42.7075 70.034 42.9184 70.9245 42.3544C71.9497 41.7003 72.4226 40.8022 72.3432 39.66C72.283 38.7856 71.9798 38.1185 71.4335 37.6588C70.7043 37.045 69.7958 37.1742 68.708 38.0462L69.3108 35.2168Z" fill="#F7B3A4"/>
<path d="M41.2913 37.4779C40.4081 37.9353 39.5369 37.8974 38.6777 37.3642L40.4213 36.0312C40.7727 35.761 40.9532 35.8381 40.9628 36.2622C40.9676 36.6296 41.0771 37.0348 41.2913 37.4779Z" fill="#E0C4B9"/>
<path d="M32.8621 37.236C33.3891 38.8593 33.4842 40.5134 33.1472 42.1982C32.8488 42.6888 32.4529 42.9257 31.9596 42.9091C31.1798 42.8807 30.5337 42.5122 30.021 41.8037C28.9718 40.351 28.9333 38.9493 29.9055 37.5986C30.6564 36.5583 31.6419 36.4374 32.8621 37.236Z" fill="#E86E5F"/>
<path d="M68.7415 41.722C68.9268 40.4044 68.916 39.1793 68.709 38.0466C69.7968 37.1745 70.7053 37.0453 71.4345 37.6591C71.9808 38.1188 72.284 38.7859 72.3442 39.6603C72.4236 40.8025 71.9507 41.7007 70.9255 42.3547C70.035 42.9187 69.307 42.7078 68.7415 41.722Z" fill="#EB8075"/>
<path d="M66.3655 39.6C66.8059 39.9958 67.037 40.4235 67.0586 40.8832C67.0779 41.2648 66.889 41.6581 66.4919 42.0634C65.7049 42.8714 64.7796 43.5101 63.7158 43.9793C61.3477 45.0267 59.3358 44.5516 57.6801 42.5539C56.999 41.734 56.9617 40.9306 57.5681 40.1439C58.2179 39.305 59.0133 38.7339 59.9543 38.4306C60.8544 38.1391 61.7954 38.0088 62.7773 38.0396C64.0696 38.0846 65.2657 38.6048 66.3655 39.6Z" fill="#DF6B57"/>
<path d="M44.1941 39.294C45.058 39.9149 45.4768 40.6874 45.4503 41.6116C45.4311 42.3652 45.1014 43.0844 44.4612 43.7692C43.5563 44.7361 42.3963 45.3297 40.9812 45.5501C40.2424 45.6662 39.5517 45.5501 38.9091 45.2017C37.6481 44.5216 36.6926 43.6022 36.0429 42.4434C35.5302 41.5263 35.6951 40.7253 36.5374 40.0405C37.683 39.1044 39.1354 38.5795 40.8946 38.4658C42.211 38.3805 43.3108 38.6566 44.1941 39.294Z" fill="#E86E5F"/>
<path d="M80.47 72.9027C78.2126 70.5258 76.824 67.6656 76.3041 64.3219C75.1249 56.7483 77.0827 50.1546 82.1775 44.5407C83.4674 43.1212 84.9632 41.9589 86.6646 41.0537C87.4203 40.6532 88.2301 40.4719 89.0941 40.5098C89.8955 40.5453 90.2204 40.9506 90.0688 41.7255C89.9509 42.325 89.7463 42.8997 89.4551 43.4494C89.2554 43.8262 88.8944 44.312 88.3721 44.9068C86.1484 47.4543 84.8296 49.0171 84.4156 49.5953C80.914 54.4982 80.1018 59.727 81.979 65.2817C82.7852 67.6609 84.2291 69.9713 86.3109 72.2131C86.5732 72.4951 86.9871 73.065 87.5527 73.9228C88.0147 74.6219 88.1206 75.3174 87.8704 76.0094C87.6152 76.7179 87.1207 76.9703 86.3867 76.7665C85.193 76.4371 84.104 75.9312 83.1197 75.2487C82.2942 74.6752 81.411 73.8932 80.47 72.9027Z" fill="#FB9550"/>
<path d="M21.4652 41.2138C21.9321 41.6166 21.9622 42.2031 21.5554 42.9733C20.2294 45.4852 18.8913 47.9888 17.5412 50.4841C15.8542 53.6027 14.6617 57.2295 13.9638 61.3647C13.8194 62.2202 13.699 62.8292 13.6028 63.1917C13.3766 64.0496 13.1407 64.6278 12.8952 64.9264C12.4645 65.4453 12.0674 65.552 11.704 65.2463C11.4946 65.0709 11.3646 64.7771 11.3141 64.3647C11.1095 62.6586 11.1853 60.7723 11.5415 58.7059C12.4344 53.5043 14.3729 48.7187 17.3571 44.3489C18.1633 43.1712 19.1488 42.119 20.3136 41.1925C20.7059 40.882 21.0898 40.8891 21.4652 41.2138Z" fill="#FB9652"/>
<path d="M33.7649 43.2432C34.0513 44.0702 34.3822 44.8617 34.7576 45.6176C35.2702 46.6532 35.6589 47.4162 35.9236 47.9068C36.9464 49.8002 38.3471 51.3215 40.1256 52.4708C40.4986 52.7126 40.6574 52.6142 40.6021 52.1758C40.4986 51.3749 40.7164 50.6805 41.2555 50.0928C41.7945 50.0407 42.1784 50.2244 42.407 50.6438C42.4143 50.658 42.4504 50.8417 42.5153 51.1948C42.5611 51.4365 42.7428 51.5822 43.0604 51.632C43.2024 53.9235 43.9545 55.9946 45.3166 57.8454C46.2817 59.1582 47.4248 60.0148 48.7461 60.4153C51.4487 61.2353 53.747 60.772 55.641 59.0255C56.3101 58.407 56.8973 57.5906 57.4027 56.5764C57.8768 55.6261 58.2329 54.6771 58.4712 53.7292C58.7335 52.6818 58.9862 51.8595 59.2293 51.2623C59.6889 51.2078 60.0824 50.9779 60.4097 50.5727C60.5349 50.4163 60.6817 50.3571 60.8501 50.395C60.9 50.4065 60.9447 50.4368 60.9774 50.4812C61.01 50.5256 61.0288 50.5815 61.0306 50.6402L61.1064 52.6841C61.1084 52.7486 61.1245 52.8094 61.1525 52.8574C61.1804 52.9054 61.2187 52.9382 61.2617 52.9507C61.3652 52.9815 61.465 52.9472 61.5613 52.8476C61.7538 52.85 61.9295 52.7908 62.0883 52.6699C63.7393 51.4021 65.0437 49.8499 66.0015 48.0134C66.6128 46.8404 67.2337 45.6721 67.8642 44.5086C68.0519 44.0631 68.3227 43.678 68.6765 43.3534L69.1277 45.0418C70.2251 52.4685 68.3395 58.9544 63.4709 64.4995C62.9102 64.8242 62.483 65.233 62.1894 65.7259C59.0295 67.9605 55.6314 69.0932 51.995 69.124C48.5198 69.1525 45.2276 68.1904 42.1182 66.2377L39.3566 63.8348C36.3027 60.6973 34.3425 56.9875 33.4761 52.7054C32.9899 50.3049 32.8359 47.8582 33.014 45.3652C33.0164 44.5358 33.2667 43.8285 33.7649 43.2432Z" fill="#502018"/>
<path d="M67.8644 44.5086C67.2339 45.6722 66.613 46.8404 66.0017 48.0135C65.0439 49.85 63.7395 51.4022 62.0885 52.67C61.9297 52.7908 61.754 52.8501 61.5615 52.8477C61.5206 52.4851 61.5555 52.1344 61.6662 51.7955C61.8443 51.8358 62.0067 51.9152 62.1535 52.0337C62.1931 52.0649 62.2419 52.082 62.2914 52.082C62.3409 52.082 62.3879 52.0649 62.4243 52.0337C63.5626 51.0834 64.4181 50.145 64.9909 49.2185C65.8862 47.7706 66.6755 46.267 67.359 44.7077C67.4505 44.5063 67.6189 44.4399 67.8644 44.5086Z" fill="#F5B486"/>
<path d="M49.9945 48.2943C50.2905 48.4222 50.3856 48.6959 50.2797 49.1154C50.1521 49.4945 49.9067 49.7659 49.5433 49.9294C47.5626 50.2611 45.6121 50.7102 43.6916 51.2765C43.4389 51.3168 43.2283 51.4353 43.0598 51.632C42.7422 51.5822 42.5605 51.4365 42.5147 51.1948C42.4498 50.8417 42.4137 50.658 42.4064 50.6438C42.1778 50.2244 41.794 50.0407 41.2549 50.0929C43.635 47.363 46.5482 46.7634 49.9945 48.2943Z" fill="#2A151C"/>
<path d="M55.966 47.5159C58.0766 47.7031 59.8346 48.5361 61.2401 50.0148C61.4663 50.2565 61.5974 50.5325 61.6335 50.843C61.6696 51.1582 61.6805 51.4757 61.666 51.7956C61.5553 52.1345 61.5204 52.4852 61.5613 52.8478C61.4651 52.9473 61.3652 52.9816 61.2617 52.9508C61.2188 52.9383 61.1805 52.9056 61.1525 52.8575C61.1246 52.8095 61.1084 52.7488 61.1065 52.6842L61.0307 50.6404C61.0288 50.5816 61.0101 50.5257 60.9774 50.4813C60.9448 50.437 60.9 50.4066 60.8502 50.3951C60.6817 50.3572 60.5349 50.4164 60.4098 50.5728C60.0825 50.978 59.689 51.2079 59.2293 51.2624L57.8612 50.9212L56.724 50.7648C54.9287 50.6131 53.2212 50.1178 51.6016 49.279C52.7447 47.9709 54.1995 47.3832 55.966 47.5159Z" fill="#22151C"/>
<path d="M50.2804 49.1152C50.9037 49.4423 51.3441 49.4968 51.6016 49.2787C53.2213 50.1176 54.9288 50.6129 56.7241 50.7646C56.7434 51.2575 57.055 51.4565 57.6591 51.3617C57.7272 51.3513 57.7894 51.3274 57.8368 51.2936C57.8841 51.2597 57.9142 51.2176 57.9226 51.1733C57.9395 51.0928 57.919 51.0086 57.8612 50.921L59.2294 51.2622C58.9863 51.8594 58.7336 52.6817 58.4713 53.7291C58.2331 54.677 57.8769 55.626 57.4028 56.5763C56.8974 57.5905 56.3102 58.4069 55.6411 59.0254C53.7471 60.7719 51.4488 61.2352 48.7462 60.4152C47.4249 60.0148 46.2818 59.1581 45.3168 57.8453C43.9546 55.9945 43.2025 53.9234 43.0605 51.6319C43.229 51.4352 43.4396 51.3167 43.6923 51.2764C43.6754 51.5229 43.7958 51.6082 44.0533 51.5323C45.7331 51.0252 47.4442 50.6757 49.1866 50.4837C49.3551 50.4648 49.467 50.4162 49.5223 50.338C49.5945 50.2314 49.6017 50.0951 49.544 49.9292C49.9074 49.7657 50.1528 49.4944 50.2804 49.1152ZM47.1759 53.043C47.0507 54.7516 47.1001 55.8689 47.3239 56.395C48.3539 58.8145 49.9555 59.7505 52.1287 59.2031C53.4523 58.8714 54.433 58.2386 55.0708 57.305C55.7807 56.2647 55.9311 54.9957 55.522 53.498C56.0322 53.0715 56.4185 52.5952 56.6808 52.0691C56.69 52.0499 56.6946 52.029 56.6943 52.0078C56.694 51.9866 56.6888 51.9658 56.679 51.9469C56.6692 51.928 56.6552 51.9116 56.638 51.8989C56.6208 51.8862 56.6009 51.8775 56.5797 51.8736C53.2201 51.2575 49.852 51.197 46.4755 51.6923C46.4587 51.6947 46.3047 51.7136 46.0135 51.7492C45.4479 51.8179 45.3601 51.9743 45.7499 52.2184C45.8294 52.2658 45.9665 52.3238 46.1615 52.3926C46.5513 52.5276 46.8895 52.7445 47.1759 53.043Z" fill="#F5A48C"/>
<path d="M49.5437 49.9292C49.6014 50.0951 49.5942 50.2313 49.522 50.338C49.4667 50.4162 49.3548 50.4648 49.1863 50.4837C47.4439 50.6757 45.7328 51.0252 44.053 51.5323C43.7955 51.6081 43.6751 51.5228 43.692 51.2764C45.6125 50.71 47.563 50.261 49.5437 49.9292Z" fill="#FABBB4"/>
<path d="M56.7236 50.7646L57.8608 50.921C57.9185 51.0087 57.939 51.0929 57.9221 51.1734C57.9137 51.2177 57.8836 51.2598 57.8363 51.2937C57.7889 51.3275 57.7267 51.3514 57.6586 51.3618C57.0545 51.4566 56.7429 51.2575 56.7236 50.7646Z" fill="#F2C7BB"/>
<path d="M55.5215 53.4981C52.8477 52.799 50.0656 52.6474 47.1753 53.0431C46.8889 52.7445 46.5508 52.5277 46.1609 52.3926C45.966 52.3239 45.8288 52.2659 45.7494 52.2185C45.3595 51.9744 45.4473 51.818 46.0129 51.7493C46.3041 51.7137 46.4581 51.6948 46.475 51.6924C49.8515 51.1971 53.2195 51.2575 56.5792 51.8737C56.6003 51.8776 56.6202 51.8863 56.6374 51.899C56.6547 51.9117 56.6687 51.9281 56.6784 51.947C56.6882 51.9659 56.6934 51.9867 56.6937 52.0079C56.6941 52.0291 56.6894 52.05 56.6802 52.0692C56.4179 52.5953 56.0317 53.0716 55.5215 53.4981Z" fill="#FAF9F9"/>
<path d="M55.5209 53.4982C55.93 54.9958 55.7796 56.2648 55.0697 57.3051C54.4319 58.2388 53.4512 58.8715 52.1276 59.2033C49.9544 59.7507 48.3528 58.8146 47.3227 56.3952C47.0989 55.8691 47.0496 54.7518 47.1747 53.0432C50.0651 52.6474 52.8471 52.7991 55.5209 53.4982Z" fill="#251124"/>
<path d="M25.714 54.4616C26.217 54.8787 26.4938 55.3526 26.5443 55.8834C27.2543 63.4689 25.5552 70.4477 21.4471 76.8199C20.6698 78.0261 19.6903 78.8899 18.5086 79.4112C17.8709 79.6932 17.3835 79.5321 17.0466 78.9278C16.8372 78.5486 16.6772 78.1541 16.5665 77.7441C16.4774 77.4195 16.4281 77 16.4185 76.4858C16.3342 72.6492 16.8902 68.9335 18.0863 65.3386C18.7842 63.2367 19.5278 61.4416 20.3172 59.9534C21.2245 58.2401 22.3604 56.6394 23.725 55.1512C24.1942 54.6393 24.7502 54.3728 25.3927 54.3514C25.5088 54.3469 25.6235 54.3862 25.714 54.4616Z" fill="#FB9550"/>
<path d="M39.3569 63.835L42.1185 66.2379C42.636 67.0957 43.287 67.8303 44.0715 68.4417C44.625 68.8706 45.4312 69.4133 46.4902 70.0697C49.2409 71.7712 52.189 72.1373 55.3345 71.1681C58.2104 70.2794 60.4955 68.4654 62.1897 65.726C62.4833 65.2331 62.9105 64.8243 63.4712 64.4997C63.517 65.8575 63.5639 67.2142 63.612 68.5697C63.612 68.5957 63.6132 69.0827 63.6156 70.0306C63.6156 70.8339 63.7035 71.6254 63.8792 72.4051C64.0621 73.2131 64.4207 73.9015 64.9549 74.4703C66.4133 76.0177 68.3314 76.8056 70.7092 76.8341C71.3565 78.6421 71.436 80.545 70.9474 82.5427C70.2904 85.2323 69.2062 87.5902 67.6949 89.6163C66.3183 91.4623 64.5975 93.1045 62.5327 94.543C59.5894 96.5904 56.2935 97.6935 52.6451 97.8523C50.1855 97.9613 47.8222 97.6082 45.5552 96.793C42.1859 95.5797 39.3305 93.5335 36.9888 90.6543C33.7664 86.6897 32.2707 82.1541 32.5017 77.0473C33.3224 76.7369 34.6159 76.3175 36.3824 75.789C37.1573 75.5568 37.8119 75.0757 38.3462 74.3458C38.9695 73.4904 39.2499 72.3126 39.1873 70.8126C39.0958 68.5329 39.1524 66.207 39.3569 63.835Z" fill="#F6915B"/>
<path d="M62.1894 65.7261C60.4951 68.4655 58.21 70.2795 55.3341 71.1681C52.1887 72.1373 49.2405 71.7712 46.4898 70.0698C45.4309 69.4134 44.6247 68.8707 44.0711 68.4418C43.2866 67.8304 42.6356 67.0958 42.1182 66.2379C45.2275 68.1906 48.5198 69.1527 51.9949 69.1242C55.6313 69.0934 59.0295 67.9607 62.1894 65.7261Z" fill="#DF6B57"/>
<path d="M70.7088 76.834C72.2803 77.4975 73.8518 78.1338 75.4233 78.7428C75.7194 78.8565 76.007 79.0129 76.2861 79.212C76.4642 79.3376 76.6447 79.462 76.8276 79.5852C76.9937 79.6942 77.1946 79.7772 77.4305 79.834C78.2511 80.0284 79.1283 80.4277 80.0621 81.0319C80.9862 81.6291 83.4831 82.9668 87.5527 85.0451C87.608 85.1872 87.5707 85.3235 87.4408 85.4538C79.138 93.9825 69.1204 99.0228 57.3882 100.575C54.9358 100.9 52.5364 101.038 50.19 100.991C42.7222 100.839 35.5553 99.0513 28.6892 95.627C23.2647 92.9232 18.6043 89.4504 14.708 85.2086C17.5262 83.7749 20.3792 82.4135 23.2671 81.1244C23.2936 81.1125 23.574 80.9395 24.1083 80.6054C24.6088 80.295 25.32 80.1421 26.2417 80.1469C26.2685 80.1469 26.2942 80.1364 26.3132 80.1177C26.3321 80.099 26.3428 80.0737 26.3428 80.0473C26.3404 79.7037 26.5209 79.462 26.8843 79.3222C28.7735 78.6018 30.6458 77.8435 32.5013 77.0473C32.2703 82.154 33.766 86.6896 36.9885 90.6542C39.3301 93.5334 42.1856 95.5796 45.5548 96.7929C47.8219 97.6081 50.1852 97.9612 52.6447 97.8522C56.2931 97.6934 59.589 96.5903 62.5323 94.5429C64.5972 93.1045 66.3179 91.4623 67.6945 89.6162C69.2058 87.5901 70.29 85.2323 70.947 82.5426C71.4356 80.545 71.3562 78.6421 70.7088 76.834Z" fill="#599B97"/>
</svg>
