<svg width="25" height="25" viewBox="0 0 25 25" fill="none" xmlns="http://www.w3.org/2000/svg">
<path d="M22.1621 18.1234C22.6803 17.0486 22.9346 15.8656 22.9038 14.6727C22.873 13.4798 22.5581 12.3115 21.9851 11.2649C21.4121 10.2182 20.5976 9.32329 19.6093 8.65458C18.621 7.98588 17.4874 7.56263 16.3027 7.42001C15.9085 6.50348 15.3354 5.67481 14.617 4.98253C13.8985 4.29025 13.0492 3.74828 12.1186 3.38835C11.1881 3.02842 10.1951 2.85777 9.19782 2.88639C8.20052 2.91501 7.21896 3.14232 6.3106 3.55502C5.40225 3.96772 4.58537 4.55751 3.9078 5.28985C3.23023 6.02219 2.70559 6.88236 2.36459 7.81999C2.0236 8.75762 1.87312 9.75387 1.92195 10.7504C1.97078 11.7469 2.21795 12.7236 2.64898 13.6234L1.96742 15.94C1.89121 16.1986 1.88612 16.473 1.95267 16.7343C2.01922 16.9955 2.15495 17.234 2.34559 17.4247C2.53623 17.6153 2.77473 17.751 3.03599 17.8176C3.29725 17.8841 3.57162 17.879 3.83023 17.8028L6.14679 17.1213C6.89063 17.4786 7.68812 17.7114 8.50742 17.8103C8.90546 18.743 9.48849 19.5852 10.2213 20.2861C10.954 20.987 11.8213 21.532 12.7707 21.8883C13.7201 22.2445 14.7319 22.4045 15.7449 22.3586C16.7578 22.3127 17.751 22.0619 18.6643 21.6213L20.9809 22.3028C21.2394 22.3789 21.5136 22.384 21.7748 22.3175C22.0359 22.251 22.2743 22.1153 22.4649 21.9248C22.6555 21.7343 22.7913 21.496 22.8579 21.2349C22.9246 20.9738 22.9197 20.6995 22.8437 20.4409L22.1621 18.1234ZM6.21804 15.5678C6.14637 15.568 6.07507 15.5781 6.00617 15.5978L3.40554 16.3647L4.17148 13.7622C4.22595 13.5742 4.20476 13.3723 4.11242 13.1997C3.43396 11.9309 3.23405 10.4605 3.54913 9.05657C3.86422 7.65266 4.67331 6.40873 5.82893 5.55152C6.98454 4.69432 8.40972 4.28094 9.84465 4.38673C11.2796 4.49252 12.6287 5.11044 13.6461 6.12785C14.6635 7.14526 15.2815 8.4944 15.3873 9.92934C15.4931 11.3643 15.0797 12.7895 14.2225 13.9451C13.3653 15.1007 12.1213 15.9098 10.7174 16.2249C9.31351 16.5399 7.84312 16.34 6.57429 15.6616C6.46518 15.6012 6.34274 15.569 6.21804 15.5678ZM20.6359 18.2613L21.4055 20.8647L18.803 20.0988C18.615 20.0443 18.4131 20.0655 18.2405 20.1578C16.8594 20.8953 15.2449 21.0642 13.7411 20.6284C12.2373 20.1927 10.9632 19.1869 10.1902 17.8253C11.2171 17.7181 12.2108 17.3999 13.109 16.8906C14.0071 16.3812 14.7902 15.6918 15.4093 14.8655C16.0284 14.0392 16.4701 13.0938 16.7066 12.0888C16.9431 11.0838 16.9693 10.0407 16.7837 9.02501C17.6784 9.23592 18.5127 9.64959 19.2222 10.2341C19.9317 10.8186 20.4974 11.5583 20.8757 12.3962C21.2539 13.234 21.4346 14.1476 21.4037 15.0663C21.3729 15.9851 21.1313 16.8844 20.6977 17.695C20.6044 17.8687 20.5832 18.0721 20.6387 18.2613H20.6359Z" fill="black"/>
</svg>
